<?xml version="1.0" encoding="UTF-8"?>
<svg id="artwork" xmlns="http://www.w3.org/2000/svg" xmlns:xlink="http://www.w3.org/1999/xlink" viewBox="0 0 70.92 72.11">
  <defs>
    <style>
      .cls-1 {
        fill: #0e4377;
      }

      .cls-1, .cls-2, .cls-3, .cls-4 {
        stroke-width: 0px;
      }

      .cls-2 {
        fill: #1976d2;
      }

      .cls-3 {
        fill: #fff;
      }

      .cls-4 {
        fill: url(#radial-gradient);
      }
    </style>
    <radialGradient id="radial-gradient" cx="38.88" cy="32.04" fx="38.88" fy="32.04" r="32.04" gradientUnits="userSpaceOnUse">
      <stop offset="0" stop-color="#1976d2"/>
      <stop offset=".51" stop-color="#1874d0"/>
      <stop offset=".7" stop-color="#1871c9"/>
      <stop offset=".83" stop-color="#166abd"/>
      <stop offset=".93" stop-color="#1461ac"/>
      <stop offset="1" stop-color="#13599e"/>
    </radialGradient>
  </defs>
  <path class="cls-4" d="m54.11,55.81c1.91-1.7,4.38-2.64,6.94-2.64h0c.59,0,1.18.06,1.76.16,5.04-5.66,8.11-13.12,8.11-21.29C70.92,14.34,56.57,0,38.88,0S6.84,14.34,6.84,32.04s14.34,32.04,32.04,32.04c4.21,0,8.22-.82,11.9-2.29.4-2.23,1.51-4.36,3.33-5.98Z"/>
  <path class="cls-3" d="m61.28,20.35s-.02-.04-.04-.06l-.31-.19s-.03-.01-.05-.01l-1.13.13s.05-.05.04-.08l-.11-.92s-.04-.07-.09-.07l-5.69.67s-.07.04-.07.09l.11.92s.03.06.07.06l-1.13.13s-.03,0-.05.02l-.25.25s-.02.04-.02.06l.24,2.02s.02.04.04.06l.31.19s.03.01.05.01l.57-.07s-.04.04-.03.07l.4,3.41c.03.26.12.52.26.74l1.92,3.02c.05.07.13.11.21.1l.64-.08s.07-.04.07-.09l-.3-2.53s-.04-.07-.09-.07l-.23.03s-.08-.03-.09-.07l-.56-4.74s-.02-.05-.05-.06l5.27-.62s.03,0,.05-.02l.25-.25s.03-.04.02-.06l-.24-2.02Z"/>
  <path class="cls-3" d="m30.48,42.42h-6.25s-.61,0-.61,0c-.07,0-.26.05-.28.26l-1.1,9.63c0,.06-.07.11-.14.11h-.53s-.59,0-.86,0-.48.1-.48.39v.61c0,.07.06.12.14.12h1.21s.54,0,.54,0h1.06s7.31,0,7.31,0h7.31s1.06,0,1.06,0h1.75c.08,0,.14-.05.14-.12v-.61c0-.29-.21-.39-.48-.39h-1.4c-.07,0-.13-.05-.14-.11l-1.1-9.63c-.03-.21-.21-.26-.28-.26h-.61s-6.25,0-6.25,0Z"/>
  <path class="cls-1" d="m35.48,53.54h2.31s1.06,0,1.06,0h1.75c.08,0,.14-.05.14-.12v-.61c0-.29-.21-.39-.48-.39h-1.4c-.07,0-.13-.05-.14-.11l-1.1-9.63c-.03-.21-.21-.26-.28-.26h-.61s-1.25,0-1.25,0"/>
  <path class="cls-3" d="m58.93,27.75l-.46-3.91s.03-.08.07-.09l2.08-.25s.08.03.09.07l.3,2.58c.03.26,0,.53-.08.78l-1.16,3.39c-.03.08-.1.14-.18.15l-.64.08s-.08-.03-.09-.07l-.3-2.53s.03-.08.07-.09l.23-.03s.07-.04.07-.09Z"/>
  <path class="cls-1" d="m59.39,30.49l.19-.02c.08,0,.15-.07.18-.15l1.16-3.39c.09-.25.11-.52.08-.78l-.3-2.58s-.04-.07-.09-.07l-.63.07.4,2.69s0,.07.05.69c-.12.64-1.05,3.54-1.05,3.54Z"/>
  <path class="cls-2" d="m67.39,57.98c-1.61-1.81-3.92-2.85-6.35-2.85-2.08,0-4.08.76-5.64,2.14-2.68,2.38-3.49,6.1-2.32,9.28-6.51,2.61-13.64,3.32-20.69,1.98-9.74-1.86-18.17-7.4-23.74-15.59C2.63,44.05.74,33,3.48,22.61c.16-.6-.2-1.22-.8-1.37-.6-.16-1.22.2-1.37.8-2.9,11.02-.9,22.74,5.5,32.16,5.91,8.7,14.85,14.57,25.17,16.54,2.49.47,4.98.71,7.46.71,5.06,0,10.03-.99,14.7-2.9.17.24.36.48.56.71,1.61,1.81,3.92,2.85,6.35,2.85,2.08,0,4.08-.76,5.63-2.14,1.69-1.51,2.7-3.58,2.84-5.84.13-2.26-.62-4.44-2.13-6.14Zm-1.3,9.41c-.25.34-.54.65-.86.94-.28.25-.58.47-.89.66-.03.02-.06.04-.08.05-.3.18-.61.32-.92.44-.05.02-.09.04-.14.05-.31.11-.63.2-.95.26-.05.01-.11.02-.16.03-.32.05-.64.08-.97.09-.08,0-.16,0-.24,0-.12,0-.23,0-.35-.02-.09,0-.19-.02-.28-.03-.12-.01-.23-.03-.35-.05-.09-.02-.18-.04-.28-.06-.11-.03-.23-.06-.34-.09-.09-.03-.18-.05-.27-.08-.11-.04-.22-.08-.33-.13-.09-.03-.17-.07-.26-.11-.11-.05-.22-.11-.33-.17-.08-.04-.16-.08-.24-.13-.11-.07-.22-.14-.33-.21-.07-.05-.14-.09-.21-.14-.12-.09-.23-.18-.34-.28-.06-.05-.11-.09-.17-.14-.16-.15-.32-.31-.47-.48-1.3-1.46-1.79-3.36-1.51-5.16.03-.2.07-.4.12-.59.3-1.18.94-2.28,1.92-3.14,0,0,0,0,0,0,.28-.25.58-.47.89-.66.03-.02.06-.04.09-.06.3-.18.61-.32.92-.44.05-.02.09-.04.14-.05.31-.11.63-.2.95-.26.05-.01.11-.02.16-.03.32-.05.64-.08.97-.09.08,0,.16,0,.24,0,.12,0,.23,0,.35.02.09,0,.19.02.28.03.12.01.23.03.35.05.09.02.18.04.28.06.11.03.23.06.34.09.09.03.18.05.27.08.11.04.22.08.33.13.09.03.17.07.26.11.11.05.22.11.33.16.08.04.16.08.24.13.11.07.22.14.33.21.07.05.14.09.21.14.12.09.23.18.34.28.06.05.11.09.17.14.16.15.32.31.47.48,1.01,1.14,1.53,2.54,1.59,3.95.05,1.41-.37,2.83-1.25,4Z"/>
  <g>
    <path class="cls-2" d="m58.76,64.46c-.63-.63-.95-1.46-.95-2.29s.32-1.65.95-2.29c.63-.63,1.46-.95,2.29-.95s1.65.32,2.29.95c.63.63.95,1.46.95,2.29s-.32,1.65-.95,2.29l-1.07,1.07h-.34v-3.94c-.07-.03-.14-.08-.19-.13h0c-.12-.12-.2-.3-.2-.48s.08-.36.2-.48h0c.12-.12.29-.2.48-.2s.36.08.48.2h0c.12.12.2.3.2.48s-.08.36-.2.48c-.06.06-.12.1-.19.13v2.87l.41-.41c.52-.52.78-1.19.78-1.87s-.26-1.35-.78-1.87c-.52-.52-1.19-.78-1.87-.78s-1.35.26-1.87.78c-.52.52-.78,1.19-.78,1.87s.26,1.35.78,1.87l.41.41v-.58c-.07-.03-.14-.08-.19-.13h0c-.12-.12-.2-.3-.2-.48s.08-.36.2-.48h0c.12-.12.29-.2.48-.2s.36.08.48.2h0c.12.12.2.3.2.48s-.08.36-.2.48c-.06.06-.12.1-.19.13v1.66h-.34l-1.07-1.07h0Zm3.61-3.65h0s-.09-.06-.15-.06-.11.02-.15.06c-.04.04-.06.09-.06.15s.02.11.06.15h0s.09.06.15.06.11-.02.15-.06c.04-.04.06-.09.06-.15s-.02-.11-.06-.15h0Zm-2.34,2.29h0s-.09-.06-.15-.06-.11.02-.15.06c-.04.04-.06.09-.06.15s.02.11.06.15h0s.09.06.15.06.11-.02.15-.06c.04-.04.06-.09.06-.15s-.02-.11-.06-.15h0Zm1.02-1.68c.19,0,.36.08.48.2h0c.12.12.2.3.2.48s-.08.36-.2.48c-.06.06-.12.1-.19.13v2.8h-.59v-2.8c-.07-.03-.14-.08-.19-.13h0c-.12-.12-.2-.3-.2-.48s.08-.36.2-.48h0c.12-.12.29-.2.48-.2Zm.15.53h0s-.09-.06-.15-.06-.11.02-.15.06c-.04.04-.06.09-.06.15s.02.11.06.15h0s.09.06.15.06.11-.02.15-.06c.04-.04.06-.09.06-.15s-.02-.11-.06-.15h0Z"/>
    <path class="cls-2" d="m59.79,65.91h2.52c.17,0,.3.13.3.3h0c0,.16-.14.3-.3.3h-2.52c-.17,0-.3-.13-.3-.3h0c0-.16.14-.3.3-.3Z"/>
    <path class="cls-2" d="m59.96,66.8h2.17c.14,0,.26.13.26.3h0c0,.16-.12.3-.26.3h-2.17c-.14,0-.26-.13-.26-.3h0c0-.16.12-.3.26-.3Z"/>
    <path class="cls-2" d="m60.35,67.71h1.4c-.06.34-.35.59-.7.59s-.64-.25-.7-.59Z"/>
  </g>
  <path class="cls-3" d="m58.43,14.57c.28-.64.36-1.37.16-2.1-.45-1.71-2.2-2.73-3.92-2.28-.28.07-.55.19-.79.33l-11.19.17s0-.01-.01-.02c-1.6-2.27-4.73-2.81-7-1.22-2.27,1.6-2.81,4.73-1.22,7,.39.56.88,1.02,1.43,1.36l1.11,7.61-9.65,4.88c-1.7.86-2.78,2.61-2.78,4.52v5.42h-.58c-.44,0-.5.33-.5.33v.86h13.96v-.86s-.06-.33-.5-.33h-.46l8.73-8.77c1.57-1.7,1.67-4.28.24-6.1-.02-.03-.05-.06-.08-.09l-2.82-8.68c.1-.13.19-.26.28-.4l10.38-.65c.18.18.38.34.6.47l.43,2.93,4.7-.56-.54-3.83Zm-21.67.28c-.71-1.01-.47-2.4.54-3.11,1.01-.71,2.4-.47,3.11.54.71,1.01.47,2.4-.54,3.11s-2.4.47-3.11-.54Zm7.68,13.67c-.2,1.47-1.55,2.51-3.02,2.31s-2.51-1.55-2.31-3.02c.2-1.47,1.55-2.51,3.02-2.31,1.47.2,2.51,1.55,2.31,3.02Zm11.39-13.95c-.71.19-1.43-.24-1.61-.94-.19-.71.24-1.43.94-1.61s1.43.24,1.61.94-.24,1.43-.94,1.61Z"/>
</svg>