<?xml version="1.0" encoding="UTF-8" standalone="no"?>
<svg
   id="artwork"
   viewBox="0 0 64.080004 64.080001"
   version="1.1"
   sodipodi:docname="al_dark.svg"
   width="64.080002"
   height="64.080002"
   inkscape:version="1.1 (c68e22c387, 2021-05-23)"
   inkscape:export-filename="C:\Users\sgaron\Downloads\AL - Analytical Platform logos\al_dark.png"
   inkscape:export-xdpi="126.271"
   inkscape:export-ydpi="126.271"
   xmlns:inkscape="http://www.inkscape.org/namespaces/inkscape"
   xmlns:sodipodi="http://sodipodi.sourceforge.net/DTD/sodipodi-0.dtd"
   xmlns:xlink="http://www.w3.org/1999/xlink"
   xmlns="http://www.w3.org/2000/svg"
   xmlns:svg="http://www.w3.org/2000/svg">
  <sodipodi:namedview
     id="namedview90050"
     pagecolor="#505050"
     bordercolor="#eeeeee"
     borderopacity="1"
     inkscape:pageshadow="0"
     inkscape:pageopacity="0"
     inkscape:pagecheckerboard="0"
     showgrid="false"
     width="70.92px"
     fit-margin-top="0"
     fit-margin-left="0"
     fit-margin-right="0"
     fit-margin-bottom="0"
     inkscape:zoom="12.106504"
     inkscape:cx="21.186959"
     inkscape:cy="36.055"
     inkscape:window-width="2560"
     inkscape:window-height="1369"
     inkscape:window-x="3832"
     inkscape:window-y="-8"
     inkscape:window-maximized="1"
     inkscape:current-layer="artwork" />
  <defs
     id="defs90021">
    <style
       id="style90006">
      .cls-1 {
        fill: #0e4377;
      }

      .cls-1, .cls-2, .cls-3, .cls-4 {
        stroke-width: 0px;
      }

      .cls-2 {
        fill: #1976d2;
      }

      .cls-3 {
        fill: #fff;
      }

      .cls-4 {
        fill: url(#radial-gradient);
      }
    </style>
    <radialGradient
       id="radial-gradient"
       cx="38.880001"
       cy="32.040001"
       fx="38.880001"
       fy="32.040001"
       r="32.040001"
       gradientUnits="userSpaceOnUse">
      <stop
         offset="0"
         stop-color="#1976d2"
         id="stop90008" />
      <stop
         offset=".51"
         stop-color="#1874d0"
         id="stop90010" />
      <stop
         offset=".7"
         stop-color="#1871c9"
         id="stop90012" />
      <stop
         offset=".83"
         stop-color="#166abd"
         id="stop90014" />
      <stop
         offset=".93"
         stop-color="#1461ac"
         id="stop90016" />
      <stop
         offset="1"
         stop-color="#13599e"
         id="stop90018" />
    </radialGradient>
    <radialGradient
       id="radial-gradient-4"
       cx="38.880001"
       cy="32.040001"
       fx="38.880001"
       fy="32.040001"
       r="32.040001"
       gradientUnits="userSpaceOnUse"
       gradientTransform="translate(-6.8400001)">
      <stop
         offset="0"
         stop-color="#1976d2"
         id="stop1154"
         style="stop-color:#848dae;stop-opacity:1" />
      <stop
         offset=".51"
         stop-color="#1874d0"
         id="stop1156"
         style="stop-color:#7e90aa;stop-opacity:1" />
      <stop
         offset=".7"
         stop-color="#1871c9"
         id="stop1158"
         style="stop-color:#7183a2;stop-opacity:1" />
      <stop
         offset=".83"
         stop-color="#166abd"
         id="stop1160"
         style="stop-color:#637897;stop-opacity:1" />
      <stop
         offset=".93"
         stop-color="#1461ac"
         id="stop1162"
         style="stop-color:#5d708e;stop-opacity:1" />
      <stop
         offset="1"
         stop-color="#13599e"
         id="stop1164"
         style="stop-color:#586b88;stop-opacity:1" />
    </radialGradient>
    <radialGradient
       id="radial-gradient-8"
       cx="38.880001"
       cy="32.040001"
       fx="38.880001"
       fy="32.040001"
       r="32.040001"
       gradientUnits="userSpaceOnUse"
       gradientTransform="translate(-6.84)"
       xlink:href="#radial-gradient-4">
      <stop
         offset="0"
         stop-color="#1976d2"
         id="stop1154-8"
         style="stop-color:#929fb7;stop-opacity:1" />
      <stop
         offset=".51"
         stop-color="#1874d0"
         id="stop1156-9"
         style="stop-color:#8494ae;stop-opacity:1" />
      <stop
         offset=".7"
         stop-color="#1871c9"
         id="stop1158-1"
         style="stop-color:#7887a6;stop-opacity:1" />
      <stop
         offset=".83"
         stop-color="#166abd"
         id="stop1160-7"
         style="stop-color:#6e7fa0;stop-opacity:1" />
      <stop
         offset=".93"
         stop-color="#1461ac"
         id="stop1162-1"
         style="stop-color:#68809c;stop-opacity:1" />
      <stop
         offset="1"
         stop-color="#13599e"
         id="stop1164-4"
         style="stop-color:#617294;stop-opacity:1" />
    </radialGradient>
    <radialGradient
       id="radial-gradient-0"
       cx="38.880001"
       cy="32.040001"
       fx="38.880001"
       fy="32.040001"
       r="32.040001"
       gradientUnits="userSpaceOnUse"
       gradientTransform="translate(-6.8400004)">
      <stop
         offset="0"
         stop-color="#1976d2"
         id="stop1154-4"
         style="stop-color:#65789a;stop-opacity:1" />
      <stop
         offset=".51"
         stop-color="#1874d0"
         id="stop1156-7"
         style="stop-color:#5f7191;stop-opacity:1" />
      <stop
         offset=".7"
         stop-color="#1871c9"
         id="stop1158-9"
         style="stop-color:#5b6d8a;stop-opacity:1" />
      <stop
         offset=".83"
         stop-color="#166abd"
         id="stop1160-0"
         style="stop-color:#5b6c8b;stop-opacity:1" />
      <stop
         offset=".93"
         stop-color="#1461ac"
         id="stop1162-10"
         style="stop-color:#576884;stop-opacity:1" />
      <stop
         offset="1"
         stop-color="#13599e"
         id="stop1164-9"
         style="stop-color:#53637e;stop-opacity:1" />
    </radialGradient>
  </defs>
  <path
     class="cls-5"
     d="M 64.08,32.04 C 64.08,14.34 49.73,0 32.04,0 14.35,0 0,14.34 0,32.04 0,49.74 14.34,64.08 32.04,64.08 49.015921,63.696527 63.854604,47.890119 64.08,32.04 Z"
     id="path1195"
     style="fill:url(#radial-gradient-0);stroke-width:0px"
     sodipodi:nodetypes="csscc" />
  <g
     id="g92492"
     transform="matrix(1.0337795,0,0,1.0202152,-9.8403742,-1.3587099)">
    <path
       class="cls-4"
       d="m 57.770769,15.965566 c 0.33989,-0.788067 0.437002,-1.686955 0.194223,-2.585844 -0.546252,-2.105617 -2.670566,-3.361598 -4.758463,-2.807489 -0.33989,0.0862 -0.667641,0.233958 -0.958976,0.406347 l -13.583469,0.20933 c 0,0 0,-0.01231 -0.01214,-0.02463 -1.94223,-2.7951746 -5.741717,-3.460106 -8.497255,-1.5022522 -2.755539,1.9701672 -3.411041,5.8243072 -1.480951,8.6194822 0.473419,0.689559 1.068227,1.255982 1.735868,1.674642 l 1.347422,9.370609 -11.714073,6.00901 c -2.063619,1.058965 -3.374624,3.213836 -3.374624,5.565723 v 6.673942 h -0.704059 c -0.534113,0 -0.606946,0.406347 -0.606946,0.406347 v 1.058965 H 32.30328 v -1.058965 c 0,0 -0.07283,-0.406347 -0.606946,-0.406347 h -0.558392 l 10.597292,-10.79898 c 1.905813,-2.093303 2.027202,-5.270198 0.291334,-7.511263 -0.02428,-0.03694 -0.0607,-0.07388 -0.09711,-0.110822 l -3.42318,-10.688158 c 0.121389,-0.160076 0.230639,-0.320152 0.33989,-0.492542 l 12.600215,-0.80038 c 0.218501,0.221644 0.46128,0.41866 0.728337,0.578736 l 0.521974,3.607869 5.7053,-0.689558 -0.655503,-4.716088 z"
       id="path1197"
       style="fill:#e89530;fill-opacity:1"
       sodipodi:nodetypes="cccccccccccscsccccscccccccccccc" />
    <path
       class="cls-4"
       d="m 61.230366,23.082796 c 0,0 -0.02428,-0.04925 -0.04856,-0.07388 l -0.376307,-0.233958 c 0,0 -0.03642,-0.01231 -0.0607,-0.01231 L 59.3731,22.922724 c 0,0 0.06069,-0.06157 0.04856,-0.09851 l -0.133528,-1.132846 c 0,0 -0.04856,-0.0862 -0.10925,-0.0862 l -6.907055,0.825008 c 0,0 -0.08497,0.04925 -0.08497,0.110822 l 0.133529,1.132846 c 0,0 0.03642,0.07388 0.08497,0.07388 L 51.033657,23.9078 c 0,0 -0.03642,0 -0.06069,0.02463 l -0.303474,0.307838 c 0,0 -0.02428,0.04925 -0.02428,0.07388 l 0.291334,2.487336 c 0,0 0.02428,0.04925 0.04856,0.07388 l 0.376307,0.233957 c 0,0 0.03642,0.01231 0.0607,0.01231 l 0.691919,-0.0862 c 0,0 -0.04856,0.04925 -0.03642,0.0862 l 0.485558,4.198919 c 0.03642,0.320152 0.145667,0.640305 0.315612,0.911203 l 2.330676,3.71869 c 0.06069,0.08619 0.157806,0.135449 0.254917,0.123136 l 0.776892,-0.09851 c 0,0 0.08497,-0.04926 0.08497,-0.110822 l -0.36417,-3.115317 c 0,0 -0.04856,-0.0862 -0.109251,-0.0862 l -0.279195,0.03694 c 0,0 -0.09711,-0.03694 -0.109251,-0.08619 l -0.67978,-5.836621 c 0,0 -0.02428,-0.06157 -0.06069,-0.07388 L 61.12112,25.93954 c 0,0 0.03642,0 0.06069,-0.02463 l 0.303473,-0.307838 c 0,0 0.03642,-0.04925 0.02428,-0.07388 l -0.291334,-2.487337 z"
       id="path1199"
       style="fill:#555555;fill-opacity:1"
       sodipodi:nodetypes="cccccccccccccccccccccccccscccccccccccccc" />
    <path
       class="cls-4"
       d="m 23.842443,50.258792 h -7.586835 -0.740475 c -0.08497,0 -0.315613,0.06157 -0.33989,0.320152 l -0.01992,0.21799 c 4.330679,6.420001 12.054586,11.911619 21.157604,13.059238 l -0.0038,-0.803608 c -0.0017,-0.357089 -0.254917,-0.480228 -0.582669,-0.480228 h -1.69945 c -0.08497,0 -0.157806,-0.06157 -0.169945,-0.135449 L 32.521782,50.578944 c -0.03642,-0.258584 -0.254917,-0.320152 -0.33989,-0.320152 h -0.740475 -7.586835 z"
       id="path1201"
       style="fill:#555555;fill-opacity:1"
       sodipodi:nodetypes="ccscccsssccsccc" />
    <path
       class="cls-2"
       d="m 29.916198,62.291641 c 2.598638,1.005794 3.803263,1.107139 6.396729,1.564531 l -0.01594,-0.803606 c -0.0071,-0.357021 -0.254917,-0.480228 -0.582669,-0.480228 H 34.01487 c -0.08497,0 -0.157806,-0.06157 -0.169945,-0.135449 L 32.509643,50.578944 c -0.03642,-0.258584 -0.254917,-0.320152 -0.33989,-0.320152 h -0.740475 -1.517367"
       id="path1203"
       style="fill:#303030;fill-opacity:1"
       sodipodi:nodetypes="ccsssccscc" />
    <path
       class="cls-2"
       d="m 31.465695,16.310346 c -0.861865,-1.243669 -0.57053,-2.955251 0.655502,-3.829513 1.226033,-0.874262 2.913345,-0.578737 3.775209,0.664931 0.861865,1.243668 0.57053,2.955251 -0.655502,3.829513 -1.226033,0.874262 -2.913345,0.578737 -3.775209,-0.664931 z"
       id="path1205"
       style="fill:#555555;fill-opacity:1"
       sodipodi:nodetypes="sssss" />
    <path
       class="cls-2"
       d="m 40.788398,33.142963 c -0.242779,1.810091 -1.881535,3.0907 -3.665959,2.844429 -1.784424,-0.246271 -3.046873,-1.9086 -2.804094,-3.718691 0.242778,-1.810091 1.881535,-3.0907 3.665958,-2.844429 1.784424,0.246271 3.046873,1.9086 2.804095,3.718691 z"
       id="path1207"
       style="fill:#555555;fill-opacity:1"
       sodipodi:nodetypes="sssss" />
    <path
       class="cls-2"
       d="m 54.614646,15.965566 c -0.861865,0.233958 -1.735868,-0.295525 -1.954369,-1.157473 -0.23064,-0.874262 0.291334,-1.760837 1.14106,-1.982481 0.861864,-0.233957 1.735868,0.295525 1.954369,1.157473 0.230639,0.874262 -0.291335,1.760837 -1.14106,1.982481 z"
       id="path1209"
       style="fill:#555555;fill-opacity:1"
       sodipodi:nodetypes="ccccc" />
    <path
       class="cls-4"
       d="m 58.377716,32.19482 -0.558391,-4.814597 c 0,0 0.03642,-0.09851 0.08497,-0.110821 l 2.524899,-0.307839 c 0,0 0.09711,0.03694 0.10925,0.0862 l 0.364169,3.176895 c 0.03642,0.320152 0,0.652618 -0.09711,0.960456 l -1.408117,4.174292 c -0.03642,0.09851 -0.121389,0.17239 -0.2185,0.184703 l -0.776892,0.09851 c 0,0 -0.09711,-0.03694 -0.109251,-0.08619 l -0.364168,-3.115327 c 0,0 0.03642,-0.09851 0.08497,-0.110822 l 0.279195,-0.03694 c 0,0 0.08497,-0.04925 0.08497,-0.110822 z"
       id="path1211"
       style="fill:#555555;fill-opacity:1"
       sodipodi:nodetypes="ccccccccsccccccc" />
    <path
       class="cls-2"
       d="m 58.936107,35.568732 0.23064,-0.02463 c 0.09711,0 0.182084,-0.08619 0.218501,-0.184703 l 1.408116,-4.174292 c 0.109251,-0.307838 0.133528,-0.640304 0.09711,-0.960456 l -0.364168,-3.176895 c 0,0 -0.04856,-0.0862 -0.109251,-0.0862 l -0.764753,0.0862 0.485558,3.312344 c 0,0 0,0.08619 0.06069,0.849634 -0.145667,0.788067 -1.274588,4.358996 -1.274588,4.358996 z"
       id="path1213"
       style="fill:#303030;fill-opacity:1"
       sodipodi:nodetypes="cccccccccccc" />
  </g>
</svg>
