<?xml version="1.0" encoding="UTF-8" standalone="no"?>
<svg
   id="artwork"
   viewBox="0 0 290.28628 205.67572"
   version="1.1"
   sodipodi:docname="banner_dark_vertical.svg"
   inkscape:version="1.1 (c68e22c387, 2021-05-23)"
   width="290.28629"
   height="205.67572"
   xmlns:inkscape="http://www.inkscape.org/namespaces/inkscape"
   xmlns:sodipodi="http://sodipodi.sourceforge.net/DTD/sodipodi-0.dtd"
   xmlns="http://www.w3.org/2000/svg"
   xmlns:svg="http://www.w3.org/2000/svg">
  <sodipodi:namedview
     id="namedview1232"
     pagecolor="#505050"
     bordercolor="#eeeeee"
     borderopacity="1"
     inkscape:pageshadow="0"
     inkscape:pageopacity="0"
     inkscape:pagecheckerboard="0"
     showgrid="false"
     inkscape:zoom="0.94936107"
     inkscape:cx="-185.91451"
     inkscape:cy="77.420491"
     inkscape:window-width="2560"
     inkscape:window-height="1369"
     inkscape:window-x="3832"
     inkscape:window-y="-8"
     inkscape:window-maximized="1"
     inkscape:current-layer="artwork"
     fit-margin-top="0"
     fit-margin-left="0"
     fit-margin-right="0"
     fit-margin-bottom="0" />
  <defs
     id="defs1167">
    <style
       id="style1152">
      .cls-1 {
        fill: #4d4d4d;
      }

      .cls-1, .cls-2, .cls-3, .cls-4, .cls-5 {
        stroke-width: 0px;
      }

      .cls-2 {
        fill: #0e4377;
      }

      .cls-3 {
        fill: #1976d2;
      }

      .cls-4 {
        fill: #fff;
      }

      .cls-5 {
        fill: url(#radial-gradient);
      }
    </style>
    <radialGradient
       id="radial-gradient"
       cx="38.880001"
       cy="32.040001"
       fx="38.880001"
       fy="32.040001"
       r="32.040001"
       gradientUnits="userSpaceOnUse"
       gradientTransform="matrix(2,0,0,2,70.883154,-7.3733801)">
      <stop
         offset="0"
         stop-color="#1976d2"
         id="stop1154"
         style="stop-color:#65789a;stop-opacity:1" />
      <stop
         offset=".51"
         stop-color="#1874d0"
         id="stop1156"
         style="stop-color:#5f7191;stop-opacity:1" />
      <stop
         offset=".7"
         stop-color="#1871c9"
         id="stop1158"
         style="stop-color:#5b6d8a;stop-opacity:1" />
      <stop
         offset=".83"
         stop-color="#166abd"
         id="stop1160"
         style="stop-color:#5b6c8b;stop-opacity:1" />
      <stop
         offset=".93"
         stop-color="#1461ac"
         id="stop1162"
         style="stop-color:#576884;stop-opacity:1" />
      <stop
         offset="1"
         stop-color="#13599e"
         id="stop1164"
         style="stop-color:#53637e;stop-opacity:1" />
    </radialGradient>
  </defs>
  <g
     id="g48422"
     transform="translate(0,7.3733801)">
    <g
       id="g91781"
       transform="translate(91.601142,36.055)">
      <path
         class="cls-1"
         d="m -77.971142,122.84734 h 6.45 l 13.62,32 h -7.31 l -2.91,-7.13 h -13.44 l -2.91,7.13 h -7.13 l 13.62,-32 z m 7.35,18.7 -4.22,-10.3 -4.22,10.3 z"
         id="path1169"
         style="fill:#a6a6a6;fill-opacity:1" />
      <path
         class="cls-1"
         d="m -56.771142,151.62734 2.95,-4.54 c 2.63,1.91 5.4,2.91 7.67,2.91 2,0 2.91,-0.73 2.91,-1.82 v -0.09 c 0,-1.5 -2.36,-2 -5.04,-2.81 -3.4,-1 -7.26,-2.59 -7.26,-7.31 v -0.09 c 0,-4.95 4,-7.72 8.9,-7.72 3.09,0 6.45,1.04 9.08,2.81 l -2.63,4.77 c -2.41,-1.41 -4.81,-2.27 -6.58,-2.27 -1.77,0 -2.54,0.73 -2.54,1.68 v 0.09 c 0,1.36 2.32,2 4.95,2.91 3.4,1.13 7.35,2.77 7.35,7.22 v 0.09 c 0,5.4 -4.04,7.85 -9.31,7.85 -3.4,0 -7.22,-1.14 -10.44,-3.68 z"
         id="path1171"
         style="fill:#a6a6a6;fill-opacity:1" />
      <path
         class="cls-1"
         d="m -35.561142,151.62734 2.95,-4.54 c 2.63,1.91 5.4,2.91 7.67,2.91 2,0 2.91,-0.73 2.91,-1.82 v -0.09 c 0,-1.5 -2.36,-2 -5.04,-2.81 -3.4,-1 -7.26,-2.59 -7.26,-7.31 v -0.09 c 0,-4.95 4,-7.72 8.9,-7.72 3.09,0 6.45,1.04 9.08,2.81 l -2.63,4.77 c -2.41,-1.41 -4.81,-2.27 -6.58,-2.27 -1.77,0 -2.54,0.73 -2.54,1.68 v 0.09 c 0,1.36 2.32,2 4.95,2.91 3.4,1.13 7.35,2.77 7.35,7.22 v 0.09 c 0,5.4 -4.04,7.85 -9.31,7.85 -3.4,0 -7.22,-1.14 -10.44,-3.68 z"
         id="path1173"
         style="fill:#a6a6a6;fill-opacity:1" />
      <path
         class="cls-1"
         d="m -13.181142,142.81734 v -0.09 c 0,-6.95 4.9500002,-12.67 12.0300002,-12.67 8.13,0 11.8499998,6.31 11.8499998,13.21 0,0.54 -0.05,1.18 -0.09,1.82 H -6.3211418 c 0.68,3.13 2.86,4.77 5.94999998,4.77 2.31000002,0 3.99000002,-0.73 5.90000002,-2.5 l 3.95,3.5 c -2.27,2.81 -5.54,4.54 -9.94000002,4.54 -7.30999998,0 -12.71000018,-5.13 -12.71000018,-12.57 z m 17.1600002,-2.04 c -0.41,-3.09 -2.22,-5.18 -5.13,-5.18 -2.91,0 -4.72,2.04 -5.27,5.18 z"
         id="path1175"
         style="fill:#a6a6a6;fill-opacity:1" />
      <path
         class="cls-1"
         d="m 14.688858,130.51734 h 6.9 v 3.45 c 1.59,-2.04 3.68,-3.9 7.17,-3.9 3.18,0 5.58,1.41 6.85,3.86 2.13,-2.5 4.68,-3.86 7.99,-3.86 5.13,0 8.22,3.09 8.22,8.94 v 15.84 h -6.9 v -13.57 c 0,-3.27 -1.45,-4.95 -4.04,-4.95 -2.59,0 -4.18,1.68 -4.18,4.95 v 13.57 h -6.9 v -13.57 c 0,-3.27 -1.45,-4.95 -4.04,-4.95 -2.59,0 -4.18,1.68 -4.18,4.95 v 13.57 h -6.9 v -24.33 z"
         id="path1177"
         style="fill:#a6a6a6;fill-opacity:1" />
      <path
         class="cls-1"
         d="m 63.588858,151.66734 v 3.18 h -6.9 v -33.14 h 6.9 v 12.3 c 1.68,-2.27 3.99,-3.95 7.58,-3.95 5.67,0 11.08,4.45 11.08,12.57 v 0.09 c 0,8.13 -5.31,12.57 -11.08,12.57 -3.68,0 -5.95,-1.68 -7.58,-3.63 z m 11.76,-8.94 v -0.09 c 0,-4.04 -2.72,-6.72 -5.95,-6.72 -3.23,0 -5.9,2.68 -5.9,6.72 v 0.09 c 0,4.04 2.68,6.72 5.9,6.72 3.22,0 5.95,-2.63 5.95,-6.72 z"
         id="path1179"
         style="fill:#a6a6a6;fill-opacity:1" />
      <path
         class="cls-1"
         d="m 86.508858,121.70734 h 6.9 v 33.14 h -6.9 z"
         id="path1181"
         style="fill:#a6a6a6;fill-opacity:1" />
      <path
         class="cls-1"
         d="m 125.03159,121.54026 h 6.9 v 33.14 h -6.9 z"
         id="path1181-7"
         style="fill:#a6a6a6;fill-opacity:1;stroke-width:0px" />
      <path
         class="cls-1"
         d="m 98.448858,160.56734 2.320002,-4.99 c 0.91,0.54 2.04,0.95 2.95,0.95 1.18,0 1.82,-0.36 2.41,-1.59 l -9.530002,-24.42 h 7.310002 l 5.54,16.57 5.31,-16.57 h 7.17 l -9.35,24.92 c -1.86,4.95 -3.86,6.81 -7.99,6.81 -2.5,0 -4.36,-0.64 -6.130002,-1.68 z"
         id="path1183"
         style="fill:#a6a6a6;fill-opacity:1" />
      <path
         class="cls-1"
         d="m 136.39513,121.70734 h 7.26 v 6.13 h -7.26 z m 0.18,8.81 h 6.9 v 24.33 h -6.9 z"
         id="path1187"
         style="fill:#a6a6a6;fill-opacity:1" />
      <path
         class="cls-1"
         d="m 148.83513,130.51734 h 6.9 v 3.45 c 1.59,-2.04 3.63,-3.9 7.13,-3.9 5.22,0 8.26,3.45 8.26,9.03 v 15.75 h -6.9 v -13.57 c 0,-3.27 -1.54,-4.95 -4.18,-4.95 -2.64,0 -4.31,1.68 -4.31,4.95 v 13.57 h -6.9 z"
         id="path1189"
         style="fill:#a6a6a6;fill-opacity:1" />
      <path
         class="cls-1"
         d="m 174.80513,142.81734 v -0.09 c 0,-6.95 4.95,-12.67 12.03,-12.67 8.13,0 11.85,6.31 11.85,13.21 0,0.54 -0.04,1.18 -0.09,1.82 h -16.93 c 0.68,3.13 2.86,4.77 5.95,4.77 2.32,0 4,-0.73 5.9,-2.5 l 3.95,3.5 c -2.27,2.81 -5.54,4.54 -9.94,4.54 -7.31,0 -12.71,-5.13 -12.71,-12.57 z m 17.16,-2.04 c -0.41,-3.09 -2.22,-5.18 -5.13,-5.18 -2.91,0 -4.72,2.04 -5.27,5.18 z"
         id="path1191"
         style="fill:#a6a6a6;fill-opacity:1" />
    </g>
  </g>
  <g
     id="g48407"
     transform="translate(3.3304879,7.3733801)">
    <path
       class="cls-5"
       d="m 179.10315,104.24662 c 3.82,-3.4 8.76,-5.28 13.88,-5.28 v 0 c 1.18,0 2.36,0.12 3.52,0.32 10.08,-11.32 16.22,-26.24 16.22,-42.58 0,-35.4 -28.7,-64.0800001 -64.08,-64.0800001 -35.38,0 -64.079996,28.6800001 -64.079996,64.0800001 0,35.4 28.679996,64.08 64.079996,64.08 8.42,0 16.44,-1.64 23.8,-4.58 0.8,-4.46 3.02,-8.72 6.66,-11.96 z"
       id="path1195"
       style="fill:url(#radial-gradient)" />
    <g
       id="g92492"
       transform="matrix(2.067559,0,0,2.0404304,64.882406,-10.0908)">
      <path
         class="cls-4"
         d="m 57.770769,15.965566 c 0.33989,-0.788067 0.437002,-1.686955 0.194223,-2.585844 -0.546252,-2.105617 -2.670566,-3.361598 -4.758463,-2.807489 -0.33989,0.0862 -0.667641,0.233958 -0.958976,0.406347 l -13.583469,0.20933 c 0,0 0,-0.01231 -0.01214,-0.02463 -1.94223,-2.7951746 -5.741717,-3.460106 -8.497255,-1.5022522 -2.755539,1.9701672 -3.411041,5.8243072 -1.480951,8.6194822 0.473419,0.689559 1.068227,1.255982 1.735868,1.674642 l 1.347422,9.370609 -11.714073,6.00901 c -2.063619,1.058965 -3.374624,3.213836 -3.374624,5.565723 v 6.673942 h -0.704059 c -0.534113,0 -0.606946,0.406347 -0.606946,0.406347 v 1.058965 H 32.30328 v -1.058965 c 0,0 -0.07283,-0.406347 -0.606946,-0.406347 h -0.558392 l 10.597292,-10.79898 c 1.905813,-2.093303 2.027202,-5.270198 0.291334,-7.511263 -0.02428,-0.03694 -0.0607,-0.07388 -0.09711,-0.110822 l -3.42318,-10.688158 c 0.121389,-0.160076 0.230639,-0.320152 0.33989,-0.492542 l 12.600215,-0.80038 c 0.218501,0.221644 0.46128,0.41866 0.728337,0.578736 l 0.521974,3.607869 5.7053,-0.689558 -0.655503,-4.716088 z"
         id="path1197"
         style="fill:#e89530;fill-opacity:1"
         sodipodi:nodetypes="cccccccccccscsccccscccccccccccc" />
      <path
         class="cls-4"
         d="m 61.230366,23.082796 c 0,0 -0.02428,-0.04925 -0.04856,-0.07388 l -0.376307,-0.233958 c 0,0 -0.03642,-0.01231 -0.0607,-0.01231 L 59.3731,22.922724 c 0,0 0.06069,-0.06157 0.04856,-0.09851 l -0.133528,-1.132846 c 0,0 -0.04856,-0.0862 -0.10925,-0.0862 l -6.907055,0.825008 c 0,0 -0.08497,0.04925 -0.08497,0.110822 l 0.133529,1.132846 c 0,0 0.03642,0.07388 0.08497,0.07388 L 51.033657,23.9078 c 0,0 -0.03642,0 -0.06069,0.02463 l -0.303474,0.307838 c 0,0 -0.02428,0.04925 -0.02428,0.07388 l 0.291334,2.487336 c 0,0 0.02428,0.04925 0.04856,0.07388 l 0.376307,0.233957 c 0,0 0.03642,0.01231 0.0607,0.01231 l 0.691919,-0.0862 c 0,0 -0.04856,0.04925 -0.03642,0.0862 l 0.485558,4.198919 c 0.03642,0.320152 0.145667,0.640305 0.315612,0.911203 l 2.330676,3.71869 c 0.06069,0.08619 0.157806,0.135449 0.254917,0.123136 l 0.776892,-0.09851 c 0,0 0.08497,-0.04926 0.08497,-0.110822 l -0.36417,-3.115317 c 0,0 -0.04856,-0.0862 -0.109251,-0.0862 l -0.279195,0.03694 c 0,0 -0.09711,-0.03694 -0.109251,-0.08619 l -0.67978,-5.836621 c 0,0 -0.02428,-0.06157 -0.06069,-0.07388 L 61.12112,25.93954 c 0,0 0.03642,0 0.06069,-0.02463 l 0.303473,-0.307838 c 0,0 0.03642,-0.04925 0.02428,-0.07388 l -0.291334,-2.487337 z"
         id="path1199"
         style="fill:#555555;fill-opacity:1"
         sodipodi:nodetypes="cccccccccccccccccccccccccscccccccccccccc" />
      <path
         class="cls-4"
         d="m 23.842443,50.258792 h -7.586835 -0.740475 c -0.08497,0 -0.315613,0.06157 -0.33989,0.320152 l -0.01992,0.21799 c 4.330679,6.420001 12.054586,11.911619 21.157604,13.059238 l -0.0038,-0.803608 c -0.0017,-0.357089 -0.254917,-0.480228 -0.582669,-0.480228 h -1.69945 c -0.08497,0 -0.157806,-0.06157 -0.169945,-0.135449 L 32.521782,50.578944 c -0.03642,-0.258584 -0.254917,-0.320152 -0.33989,-0.320152 h -0.740475 -7.586835 z"
         id="path1201"
         style="fill:#555555;fill-opacity:1"
         sodipodi:nodetypes="ccscccsssccsccc" />
      <path
         class="cls-2"
         d="m 29.916198,62.291641 c 2.598638,1.005794 3.803263,1.107139 6.396729,1.564531 l -0.01594,-0.803606 c -0.0071,-0.357021 -0.254917,-0.480228 -0.582669,-0.480228 H 34.01487 c -0.08497,0 -0.157806,-0.06157 -0.169945,-0.135449 L 32.509643,50.578944 c -0.03642,-0.258584 -0.254917,-0.320152 -0.33989,-0.320152 h -0.740475 -1.517367"
         id="path1203"
         style="fill:#303030;fill-opacity:1"
         sodipodi:nodetypes="ccsssccscc" />
      <path
         class="cls-2"
         d="m 31.465695,16.310346 c -0.861865,-1.243669 -0.57053,-2.955251 0.655502,-3.829513 1.226033,-0.874262 2.913345,-0.578737 3.775209,0.664931 0.861865,1.243668 0.57053,2.955251 -0.655502,3.829513 -1.226033,0.874262 -2.913345,0.578737 -3.775209,-0.664931 z"
         id="path1205"
         style="fill:#555555;fill-opacity:1"
         sodipodi:nodetypes="sssss" />
      <path
         class="cls-2"
         d="m 40.788398,33.142963 c -0.242779,1.810091 -1.881535,3.0907 -3.665959,2.844429 -1.784424,-0.246271 -3.046873,-1.9086 -2.804094,-3.718691 0.242778,-1.810091 1.881535,-3.0907 3.665958,-2.844429 1.784424,0.246271 3.046873,1.9086 2.804095,3.718691 z"
         id="path1207"
         style="fill:#555555;fill-opacity:1"
         sodipodi:nodetypes="sssss" />
      <path
         class="cls-2"
         d="m 54.614646,15.965566 c -0.861865,0.233958 -1.735868,-0.295525 -1.954369,-1.157473 -0.23064,-0.874262 0.291334,-1.760837 1.14106,-1.982481 0.861864,-0.233957 1.735868,0.295525 1.954369,1.157473 0.230639,0.874262 -0.291335,1.760837 -1.14106,1.982481 z"
         id="path1209"
         style="fill:#555555;fill-opacity:1"
         sodipodi:nodetypes="ccccc" />
      <path
         class="cls-4"
         d="m 58.377716,32.19482 -0.558391,-4.814597 c 0,0 0.03642,-0.09851 0.08497,-0.110821 l 2.524899,-0.307839 c 0,0 0.09711,0.03694 0.10925,0.0862 l 0.364169,3.176895 c 0.03642,0.320152 0,0.652618 -0.09711,0.960456 l -1.408117,4.174292 c -0.03642,0.09851 -0.121389,0.17239 -0.2185,0.184703 l -0.776892,0.09851 c 0,0 -0.09711,-0.03694 -0.109251,-0.08619 l -0.364168,-3.115327 c 0,0 0.03642,-0.09851 0.08497,-0.110822 l 0.279195,-0.03694 c 0,0 0.08497,-0.04925 0.08497,-0.110822 z"
         id="path1211"
         style="fill:#555555;fill-opacity:1"
         sodipodi:nodetypes="ccccccccsccccccc" />
      <path
         class="cls-2"
         d="m 58.936107,35.568732 0.23064,-0.02463 c 0.09711,0 0.182084,-0.08619 0.218501,-0.184703 l 1.408116,-4.174292 c 0.109251,-0.307838 0.133528,-0.640304 0.09711,-0.960456 l -0.364168,-3.176895 c 0,0 -0.04856,-0.0862 -0.109251,-0.0862 l -0.764753,0.0862 0.485558,3.312344 c 0,0 0,0.08619 0.06069,0.849634 -0.145667,0.788067 -1.274588,4.358996 -1.274588,4.358996 z"
         id="path1213"
         style="fill:#303030;fill-opacity:1"
         sodipodi:nodetypes="cccccccccccc" />
    </g>
    <path
       class="cls-3"
       d="m 205.66315,108.58662 c -3.22,-3.62 -7.84,-5.7 -12.7,-5.7 -4.16,0 -8.16,1.52 -11.28,4.28 -5.36,4.76 -6.98,12.2 -4.64,18.56 -13.02,5.22 -27.28,6.64 -41.38,3.96 -19.48,-3.72 -36.339996,-14.8 -47.479996,-31.18 -12.04,-17.78 -15.82,-39.88 -10.34,-60.66 0.32,-1.2 -0.4,-2.44 -1.6,-2.74 -1.2,-0.32 -2.44,0.4 -2.74,1.6 -5.8,22.04 -1.8,45.48 11,64.32 11.82,17.4 29.699996,29.14 50.339996,33.08 4.98,0.94 9.96,1.42 14.92,1.42 10.12,0 20.06,-1.98 29.4,-5.8 0.34,0.48 0.72,0.96 1.12,1.42 3.22,3.62 7.84,5.7 12.7,5.7 4.16,0 8.16,-1.52 11.26,-4.28 3.38,-3.02 5.4,-7.16 5.68,-11.68 0.26,-4.52 -1.24,-8.88 -4.26,-12.28 z m -2.6,18.82 c -0.5,0.68 -1.08,1.3 -1.72,1.88 -0.56,0.5 -1.16,0.94 -1.78,1.32 -0.06,0.04 -0.12,0.08 -0.16,0.1 -0.6,0.36 -1.22,0.64 -1.84,0.88 -0.1,0.04 -0.18,0.08 -0.28,0.1 -0.62,0.22 -1.26,0.4 -1.9,0.52 -0.1,0.02 -0.22,0.04 -0.32,0.06 -0.64,0.1 -1.28,0.16 -1.94,0.18 -0.16,0 -0.32,0 -0.48,0 -0.24,0 -0.46,0 -0.7,-0.04 -0.18,0 -0.38,-0.04 -0.56,-0.06 -0.24,-0.02 -0.46,-0.06 -0.7,-0.1 -0.18,-0.04 -0.36,-0.08 -0.56,-0.12 -0.22,-0.06 -0.46,-0.12 -0.68,-0.18 -0.18,-0.06 -0.36,-0.1 -0.54,-0.16 -0.22,-0.08 -0.44,-0.16 -0.66,-0.26 -0.18,-0.06 -0.34,-0.14 -0.52,-0.22 -0.22,-0.1 -0.44,-0.22 -0.66,-0.34 -0.16,-0.08 -0.32,-0.16 -0.48,-0.26 -0.22,-0.14 -0.44,-0.28 -0.66,-0.42 -0.14,-0.1 -0.28,-0.18 -0.42,-0.28 -0.24,-0.18 -0.46,-0.36 -0.68,-0.56 -0.12,-0.1 -0.22,-0.18 -0.34,-0.28 -0.32,-0.3 -0.64,-0.62 -0.94,-0.96 -2.6,-2.92 -3.58,-6.72 -3.02,-10.32 0.06,-0.4 0.14,-0.8 0.24,-1.18 0.6,-2.36 1.88,-4.56 3.84,-6.28 0,0 0,0 0,0 0.56,-0.5 1.16,-0.94 1.78,-1.32 0.06,-0.04 0.12,-0.08 0.18,-0.12 0.6,-0.36 1.22,-0.64 1.84,-0.88 0.1,-0.04 0.18,-0.08 0.28,-0.1 0.62,-0.22 1.26,-0.4 1.9,-0.52 0.1,-0.02 0.22,-0.04 0.32,-0.06 0.64,-0.1 1.28,-0.16 1.94,-0.18 0.16,0 0.32,0 0.48,0 0.24,0 0.46,0 0.7,0.04 0.18,0 0.38,0.04 0.56,0.06 0.24,0.02 0.46,0.06 0.7,0.1 0.18,0.04 0.36,0.08 0.56,0.12 0.22,0.06 0.46,0.12 0.68,0.18 0.18,0.06 0.36,0.1 0.54,0.16 0.22,0.08 0.44,0.16 0.66,0.26 0.18,0.06 0.34,0.14 0.52,0.22 0.22,0.1 0.44,0.22 0.66,0.32 0.16,0.08 0.32,0.16 0.48,0.26 0.22,0.14 0.44,0.28 0.66,0.42 0.14,0.1 0.28,0.18 0.42,0.28 0.24,0.18 0.46,0.36 0.68,0.56 0.12,0.1 0.22,0.18 0.34,0.28 0.32,0.3 0.64,0.62 0.94,0.96 2.02,2.28 3.06,5.08 3.18,7.9 0.1,2.82 -0.74,5.66 -2.5,8 z"
       id="path1217"
       style="fill:#586a88;fill-opacity:1" />
    <g
       id="g1227"
       transform="matrix(2,0,0,2,70.883154,-7.3733801)">
      <path
         class="cls-3"
         d="M 58.76,64.46 C 58.13,63.83 57.81,63 57.81,62.17 c 0,-0.83 0.32,-1.65 0.95,-2.29 0.63,-0.63 1.46,-0.95 2.29,-0.95 0.83,0 1.65,0.32 2.29,0.95 0.63,0.63 0.95,1.46 0.95,2.29 0,0.83 -0.32,1.65 -0.95,2.29 l -1.07,1.07 h -0.34 v -3.94 c -0.07,-0.03 -0.14,-0.08 -0.19,-0.13 v 0 c -0.12,-0.12 -0.2,-0.3 -0.2,-0.48 0,-0.18 0.08,-0.36 0.2,-0.48 v 0 c 0.12,-0.12 0.29,-0.2 0.48,-0.2 0.19,0 0.36,0.08 0.48,0.2 v 0 c 0.12,0.12 0.2,0.3 0.2,0.48 0,0.18 -0.08,0.36 -0.2,0.48 -0.06,0.06 -0.12,0.1 -0.19,0.13 v 2.87 l 0.41,-0.41 c 0.52,-0.52 0.78,-1.19 0.78,-1.87 0,-0.68 -0.26,-1.35 -0.78,-1.87 -0.52,-0.52 -1.19,-0.78 -1.87,-0.78 -0.68,0 -1.35,0.26 -1.87,0.78 -0.52,0.52 -0.78,1.19 -0.78,1.87 0,0.68 0.26,1.35 0.78,1.87 l 0.41,0.41 V 63.88 C 59.52,63.85 59.45,63.8 59.4,63.75 v 0 c -0.12,-0.12 -0.2,-0.3 -0.2,-0.48 0,-0.18 0.08,-0.36 0.2,-0.48 v 0 c 0.12,-0.12 0.29,-0.2 0.48,-0.2 0.19,0 0.36,0.08 0.48,0.2 v 0 c 0.12,0.12 0.2,0.3 0.2,0.48 0,0.18 -0.08,0.36 -0.2,0.48 -0.06,0.06 -0.12,0.1 -0.19,0.13 v 1.66 h -0.34 l -1.07,-1.07 v 0 z m 3.61,-3.65 v 0 c 0,0 -0.09,-0.06 -0.15,-0.06 -0.06,0 -0.11,0.02 -0.15,0.06 -0.04,0.04 -0.06,0.09 -0.06,0.15 0,0.06 0.02,0.11 0.06,0.15 v 0 c 0,0 0.09,0.06 0.15,0.06 0.06,0 0.11,-0.02 0.15,-0.06 0.04,-0.04 0.06,-0.09 0.06,-0.15 0,-0.06 -0.02,-0.11 -0.06,-0.15 z m -2.34,2.29 v 0 c 0,0 -0.09,-0.06 -0.15,-0.06 -0.06,0 -0.11,0.02 -0.15,0.06 -0.04,0.04 -0.06,0.09 -0.06,0.15 0,0.06 0.02,0.11 0.06,0.15 v 0 c 0,0 0.09,0.06 0.15,0.06 0.06,0 0.11,-0.02 0.15,-0.06 0.04,-0.04 0.06,-0.09 0.06,-0.15 0,-0.06 -0.02,-0.11 -0.06,-0.15 z m 1.02,-1.68 c 0.19,0 0.36,0.08 0.48,0.2 v 0 c 0.12,0.12 0.2,0.3 0.2,0.48 0,0.18 -0.08,0.36 -0.2,0.48 -0.06,0.06 -0.12,0.1 -0.19,0.13 v 2.8 h -0.59 v -2.8 c -0.07,-0.03 -0.14,-0.08 -0.19,-0.13 v 0 c -0.12,-0.12 -0.2,-0.3 -0.2,-0.48 0,-0.18 0.08,-0.36 0.2,-0.48 v 0 c 0.12,-0.12 0.29,-0.2 0.48,-0.2 z m 0.15,0.53 v 0 c 0,0 -0.09,-0.06 -0.15,-0.06 -0.06,0 -0.11,0.02 -0.15,0.06 -0.04,0.04 -0.06,0.09 -0.06,0.15 0,0.06 0.02,0.11 0.06,0.15 v 0 c 0,0 0.09,0.06 0.15,0.06 0.06,0 0.11,-0.02 0.15,-0.06 0.04,-0.04 0.06,-0.09 0.06,-0.15 0,-0.06 -0.02,-0.11 -0.06,-0.15 z"
         id="path1219"
         style="fill:#929cad;fill-opacity:1" />
      <path
         class="cls-3"
         d="m 59.79,65.91 h 2.52 c 0.17,0 0.3,0.13 0.3,0.3 v 0 c 0,0.16 -0.14,0.3 -0.3,0.3 h -2.52 c -0.17,0 -0.3,-0.13 -0.3,-0.3 v 0 c 0,-0.16 0.14,-0.3 0.3,-0.3 z"
         id="path1221"
         style="fill:#929cad;fill-opacity:1" />
      <path
         class="cls-3"
         d="m 59.96,66.8 h 2.17 c 0.14,0 0.26,0.13 0.26,0.3 v 0 c 0,0.16 -0.12,0.3 -0.26,0.3 h -2.17 c -0.14,0 -0.26,-0.13 -0.26,-0.3 v 0 c 0,-0.16 0.12,-0.3 0.26,-0.3 z"
         id="path1223"
         style="fill:#929cad;fill-opacity:1" />
      <path
         class="cls-3"
         d="m 60.35,67.71 h 1.4 c -0.06,0.34 -0.35,0.59 -0.7,0.59 -0.35,0 -0.64,-0.25 -0.7,-0.59 z"
         id="path1225"
         style="fill:#929cad;fill-opacity:1" />
    </g>
  </g>
</svg>
