<?xml version="1.0" encoding="UTF-8" standalone="no"?>
<svg id="artwork" viewBox="0 0 1157.6634 259.59602" version="1.1" sodipodi:docname="banner_dark.svg"
   inkscape:version="1.1 (c68e22c387, 2021-05-23)" width="578.83173" height="129.798"
   xmlns:inkscape="http://www.inkscape.org/namespaces/inkscape"
   xmlns:sodipodi="http://sodipodi.sourceforge.net/DTD/sodipodi-0.dtd" xmlns="http://www.w3.org/2000/svg"
   xmlns:svg="http://www.w3.org/2000/svg">
   <sodipodi:namedview id="namedview1232" pagecolor="#202020" bordercolor="#eeeeee" borderopacity="1"
      inkscape:pageshadow="0" inkscape:pageopacity="0" inkscape:pagecheckerboard="false" showgrid="false"
      inkscape:zoom="5.6568545" inkscape:cx="117.64489" inkscape:cy="76.986247" inkscape:window-width="2560"
      inkscape:window-height="1369" inkscape:window-x="3832" inkscape:window-y="-8" inkscape:window-maximized="1"
      inkscape:current-layer="artwork" fit-margin-top="0" fit-margin-left="0" fit-margin-right="0" fit-margin-bottom="0"
      lock-margins="true" scale-x="2" />
   <defs id="defs1167">
      <style id="style1152">
         .text {
            fill: #bcbcbc;
         }

         .text,
         .base,
         shadow {
            stroke-width: 0px;
         }

         .base {
            fill: #7da1db;
         }

         .shadow {
            fill: #3e506d;
         }

         .circle {
            fill: url(#radial-gradient);
         }
      </style>
      <radialGradient id="radial-gradient" cx="38.880001" cy="32.040001" fx="38.880001" fy="32.040001" r="32.040001"
         gradientUnits="userSpaceOnUse" gradientTransform="matrix(3.6,0,0,3.6,-0.03418579,0)">
         <stop offset="0" stop-color="#b1c6e9" id="stop0" />
         <stop offset=".51" stop-color="#97b3e2" id="stop1" />
         <stop offset=".7" stop-color="#8aaade" id="stop2" />
         <stop offset=".83" stop-color="#83a5dc" id="stop3" />
         <stop offset=".93" stop-color="#80a3db" id="stop4" />
         <stop offset="1" stop-color="#7da1db" id="stop5" />
      </radialGradient>
   </defs>
   <g id="name" transform="matrix(3,0,0,3,21.244664,21.633)" class="text">
      <path
         d="m 102.15,16.46 h 6.45 l 13.62,32 h -7.31 L 112,41.33 H 98.56 l -2.91,7.13 h -7.13 l 13.62,-32 z m 7.35,18.7 -4.22,-10.3 -4.22,10.3 z" />
      <path
         d="m 123.35,45.24 2.95,-4.54 c 2.63,1.91 5.4,2.91 7.67,2.91 2,0 2.91,-0.73 2.91,-1.82 V 41.7 c 0,-1.5 -2.36,-2 -5.04,-2.81 -3.4,-1 -7.26,-2.59 -7.26,-7.31 v -0.09 c 0,-4.95 4,-7.72 8.9,-7.72 3.09,0 6.45,1.04 9.08,2.81 l -2.63,4.77 c -2.41,-1.41 -4.81,-2.27 -6.58,-2.27 -1.77,0 -2.54,0.73 -2.54,1.68 v 0.09 c 0,1.36 2.32,2 4.95,2.91 3.4,1.13 7.35,2.77 7.35,7.22 v 0.09 c 0,5.4 -4.04,7.85 -9.31,7.85 -3.4,0 -7.22,-1.14 -10.44,-3.68 z" />
      <path
         d="m 144.56,45.24 2.95,-4.54 c 2.63,1.91 5.4,2.91 7.67,2.91 2,0 2.91,-0.73 2.91,-1.82 V 41.7 c 0,-1.5 -2.36,-2 -5.04,-2.81 -3.4,-1 -7.26,-2.59 -7.26,-7.31 v -0.09 c 0,-4.95 4,-7.72 8.9,-7.72 3.09,0 6.45,1.04 9.08,2.81 l -2.63,4.77 c -2.41,-1.41 -4.81,-2.27 -6.58,-2.27 -1.77,0 -2.54,0.73 -2.54,1.68 v 0.09 c 0,1.36 2.32,2 4.95,2.91 3.4,1.13 7.35,2.77 7.35,7.22 v 0.09 c 0,5.4 -4.04,7.85 -9.31,7.85 -3.4,0 -7.22,-1.14 -10.44,-3.68 z" />
      <path
         d="m 166.94,36.43 v -0.09 c 0,-6.95 4.95,-12.67 12.03,-12.67 8.13,0 11.85,6.31 11.85,13.21 0,0.54 -0.05,1.18 -0.09,1.82 H 173.8 c 0.68,3.13 2.86,4.77 5.95,4.77 2.31,0 3.99,-0.73 5.9,-2.5 l 3.95,3.5 c -2.27,2.81 -5.54,4.54 -9.94,4.54 -7.31,0 -12.71,-5.13 -12.71,-12.57 z m 17.16,-2.04 c -0.41,-3.09 -2.22,-5.18 -5.13,-5.18 -2.91,0 -4.72,2.04 -5.27,5.18 z" />
      <path
         d="m 194.81,24.13 h 6.9 v 3.45 c 1.59,-2.04 3.68,-3.9 7.17,-3.9 3.18,0 5.58,1.41 6.85,3.86 2.13,-2.5 4.68,-3.86 7.99,-3.86 5.13,0 8.22,3.09 8.22,8.94 v 15.84 h -6.9 V 34.89 c 0,-3.27 -1.45,-4.95 -4.04,-4.95 -2.59,0 -4.18,1.68 -4.18,4.95 v 13.57 h -6.9 V 34.89 c 0,-3.27 -1.45,-4.95 -4.04,-4.95 -2.59,0 -4.18,1.68 -4.18,4.95 v 13.57 h -6.9 V 24.13 Z" />
      <path
         d="m 243.71,45.28 v 3.18 h -6.9 V 15.32 h 6.9 v 12.3 c 1.68,-2.27 3.99,-3.95 7.58,-3.95 5.67,0 11.08,4.45 11.08,12.57 v 0.09 c 0,8.13 -5.31,12.57 -11.08,12.57 -3.68,0 -5.95,-1.68 -7.58,-3.63 z m 11.76,-8.94 v -0.09 c 0,-4.04 -2.72,-6.72 -5.95,-6.72 -3.23,0 -5.9,2.68 -5.9,6.72 v 0.09 c 0,4.04 2.68,6.72 5.9,6.72 3.22,0 5.95,-2.63 5.95,-6.72 z" />
      <path d="m 266.63,15.32 h 6.9 v 33.14 h -6.9 z" />
      <path d="m 305.15273,15.152918 h 6.9 v 33.14 h -6.9 z" />
      <path
         d="m 278.57,54.18 2.32,-4.99 c 0.91,0.54 2.04,0.95 2.95,0.95 1.18,0 1.82,-0.36 2.41,-1.59 l -9.53,-24.42 h 7.31 l 5.54,16.57 5.31,-16.57 h 7.17 l -9.35,24.92 c -1.86,4.95 -3.86,6.81 -7.99,6.81 -2.5,0 -4.36,-0.64 -6.13,-1.68 z" />
      <path d="m 316.51627,15.32 h 7.26 v 6.13 h -7.26 z m 0.18,8.81 h 6.9 v 24.33 h -6.9 z" />
      <path
         d="m 328.95627,24.13 h 6.9 v 3.45 c 1.59,-2.04 3.63,-3.9 7.13,-3.9 5.22,0 8.26,3.45 8.26,9.03 v 15.75 h -6.9 V 34.89 c 0,-3.27 -1.54,-4.95 -4.18,-4.95 -2.64,0 -4.31,1.68 -4.31,4.95 v 13.57 h -6.9 z" />
      <path
         d="m 354.92627,36.43 v -0.09 c 0,-6.95 4.95,-12.67 12.03,-12.67 8.13,0 11.85,6.31 11.85,13.21 0,0.54 -0.04,1.18 -0.09,1.82 h -16.93 c 0.68,3.13 2.86,4.77 5.95,4.77 2.32,0 4,-0.73 5.9,-2.5 l 3.95,3.5 c -2.27,2.81 -5.54,4.54 -9.94,4.54 -7.31,0 -12.71,-5.13 -12.71,-12.57 z m 17.16,-2.04 c -0.41,-3.09 -2.22,-5.18 -5.13,-5.18 -2.91,0 -4.72,2.04 -5.27,5.18 z" />
   </g>
   <path id="circle" class="circle"
      d="M 139.93359,0 C 76.249594,0 24.591794,51.621798 24.591794,115.3418 c 0,24.69111 7.77398,47.55108 20.97657,66.31054 l 0.0703,-0.77929 c 0.0904,-0.94972 0.94939,-1.17774 1.26562,-1.17774 h 2.75977 28.23046 0.0469 28.236326 2.75391 c 0.31623,0 1.13008,0.228 1.26562,1.17774 l 4.96875,43.55273 c 0.0452,0.27135 0.31659,0.49743 0.63281,0.49805 l 6.02344,0.0117 c 1.21976,0.002 2.39602,0.42873 2.40235,1.74023 l 0.082,2.92969 c 5.11289,0.69245 10.32366,1.08398 15.62695,1.08398 15.156,0 29.58989,-2.95214 42.83789,-8.24413 1.44,-8.02801 5.43628,-15.69535 11.98828,-21.52735 6.876,-6.12 15.76838,-9.5039 24.98438,-9.5039 2.124,0 4.25184,0.21423 6.33984,0.57421 18.144,-20.376 29.19141,-47.23448 29.19141,-76.64648 C 255.27536,51.621798 203.61756,0 139.93356,0 Z m -25.93945,26.472656 c 7.28159,-0.137796 14.50189,3.222397 19.01953,9.638671 0.0452,0.04524 0.041,0.0879 0.041,0.0879 l 50.55469,-0.767577 c 1.08423,-0.633147 2.30342,-1.177548 3.56836,-1.494141 7.77033,-2.035116 15.67409,2.579043 17.70703,10.3125 0.90353,3.301416 0.54423,6.603654 -0.7207,9.498048 l -0.0879,-0.04689 2.4375,17.320311 -21.23438,2.53125 -1.93945,-13.248048 c -0.99388,-0.587919 -1.89972,-1.312902 -2.71289,-2.126952 l -46.89258,2.941407 c -0.40659,0.63315 -0.81386,1.222626 -1.26563,1.810545 l 12.73829,39.25196 c 0.13551,0.13569 0.27291,0.2745 0.36328,0.41015 6.46021,8.23093 6.0087,19.89771 -1.08399,27.58594 l -39.43944,39.66211 h 2.08008 c 1.98777,0 2.25586,1.49414 2.25586,1.49414 v 3.88477 H 46.318354 v -3.88477 c 0,0 0.27396,-1.49414 2.26171,-1.49414 h 2.61914 v -24.51562 c 0,-8.63795 4.87667,-16.54816 12.55665,-20.4375 L 107.3496,102.81445 102.33983,68.402343 C 99.855134,66.864699 97.638824,64.782594 95.876944,62.25 c -7.18304,-10.266048 -4.74136,-24.422223 5.513666,-31.658202 3.84564,-2.696538 8.23456,-4.036465 12.60352,-4.119142 z m 95.4082,47.98828 c 0.22587,0 0.41016,0.316407 0.41016,0.316407 l 0.49804,4.160157 c 0.0452,0.13566 -0.18165,0.363282 -0.18165,0.363282 l 5.10352,-0.591798 c 0.0904,0 0.22851,0.04689 0.22851,0.04689 l 1.40039,0.861327 c 0.063,0.06309 0.10824,0.15192 0.14061,0.21093 l -0.006,-0.07617 0.041,0.13476 c 0,0 -0.021,-0.03297 -0.0352,-0.05859 l 1.07813,9.058593 c 0.0452,0.09045 -0.0937,0.26952 -0.0937,0.26952 l -1.125,1.130859 c -0.0903,0.09045 -0.22851,0.09375 -0.22851,0.09375 L 192.826,93.181635 c 0.13551,0.04521 0.22266,0.26952 0.22266,0.26952 l 2.53125,21.439455 c 0.0452,0.1809 0.41015,0.3164 0.41015,0.3164 l 1.03711,-0.13476 c 0.22587,0 0.4043,0.31641 0.4043,0.31641 l 1.35937,11.44336 c 0,0.22611 -0.3164,0.4043 -0.3164,0.4043 l -2.89453,0.36328 c -0.36141,0.0452 -0.72336,-0.13461 -0.94922,-0.45118 l -8.67171,-13.65819 c -0.63247,-0.99494 -1.04219,-2.16985 -1.17773,-3.3457 l -1.80469,-15.421873 c -0.0452,-0.13572 0.13476,-0.316407 0.13476,-0.316407 l -2.57226,0.316407 c -0.0904,0 -0.22851,-0.04689 -0.22851,-0.04689 l -1.40039,-0.86133 c -0.0904,-0.09045 -0.18165,-0.26952 -0.18165,-0.26952 l -1.08399,-9.134766 c 0,-0.09045 0.0937,-0.2754 0.0937,-0.2754 l 1.125,-1.125 c 0.0903,-0.09045 0.22851,-0.09375 0.22851,-0.09375 l 5.10352,-0.585939 c -0.18069,0 -0.31641,-0.2754 -0.31641,-0.2754 l -0.49805,-4.160154 c 0,-0.22614 0.31641,-0.404298 0.31641,-0.404298 z m 4.6582,19.669923 c 0,0 0.35912,0.13548 0.4043,0.316407 l 1.35352,11.671874 c 0.13554,1.17585 0.004,2.39673 -0.35743,3.52734 l -5.24414,15.32813 c -0.13554,0.36181 -0.45304,0.63446 -0.81445,0.67969 l -2.88867,0.36328 c 0,0 -0.35912,-0.13551 -0.4043,-0.31641 L 204.75,114.25781 c 0,0 0.13572,-0.36493 0.3164,-0.41015 l 1.04297,-0.13476 c 0,0 0.29412,-0.16929 0.31055,-0.38672 L 204.3457,95.671881 c 0,0 0.13572,-0.364941 0.31641,-0.410157 z" />
   <g id="shadow" class="shadow" transform="matrix(3.7216062,0,0,3.6727746,-10.835536,-4.891356)">
      <path
         d="m 29.916198,62.291641 c 2.598638,1.005794 3.8032,1.098284 6.396666,1.555676 l -0.01588,-0.794751 c -0.0071,-0.35702 -0.327343,-0.475737 -0.655092,-0.477037 l -1.611281,-0.0064 c -0.08497,-3.37e-4 -0.16171,-0.05824 -0.173849,-0.132117 L 32.521656,50.578765 c -0.03642,-0.258584 -0.248037,-0.319973 -0.33301,-0.319973 h -0.759368 -1.517367" />
      <path
         d="m 31.465695,16.310346 c -0.861865,-1.243669 -0.57053,-2.955251 0.655502,-3.829513 1.226033,-0.874262 2.913345,-0.578737 3.775209,0.664931 0.861865,1.243668 0.57053,2.955251 -0.655502,3.829513 -1.226033,0.874262 -2.913345,0.578737 -3.775209,-0.664931 z" />
      <path
         d="m 40.788398,33.142963 c -0.242779,1.810091 -1.881535,3.0907 -3.665959,2.844429 -1.784424,-0.246271 -3.046873,-1.9086 -2.804094,-3.718691 0.242778,-1.810091 1.881535,-3.0907 3.665958,-2.844429 1.784424,0.246271 3.046873,1.9086 2.804095,3.718691 z" />
      <path
         d="m 54.614646,15.965566 c -0.861865,0.233958 -1.735868,-0.295525 -1.954369,-1.157473 -0.23064,-0.874262 0.291334,-1.760837 1.14106,-1.982481 0.861864,-0.233957 1.735868,0.295525 1.954369,1.157473 0.230639,0.874262 -0.291335,1.760837 -1.14106,1.982481 z" />
      <path
         d="m 58.927111,35.57511 0.251067,-0.03096 c 0.09711,0 0.182428,-0.08655 0.218845,-0.185062 l 1.409106,-4.173445 c 0.109251,-0.307838 0.132458,-0.640251 0.09604,-0.960403 l -0.363691,-3.177945 c 0,0 -0.01035,-0.101694 -0.121423,-0.08574 l -0.749009,0.09258 0.469814,3.305963 c 0,0 0,0.08619 0.06069,0.849634 -0.356814,1.471768 -0.829235,2.918481 -1.271439,4.365378 z" />
   </g>
   <path class="base"
      d="m 242.56981,208.728 c -5.796,-6.516 -14.112,-10.26 -22.86,-10.26 -7.488,0 -14.688,2.736 -20.304,7.704 -9.648,8.568 -12.564,21.96 -8.352,33.408 -23.436,9.396 -49.104,11.952 -74.484,7.128 C 81.505814,240.012 51.157814,220.068 31.105814,190.584 9.4338142,158.58 2.6298142,118.8 12.493814,81.396 c 0.576,-2.16 -0.72,-4.392 -2.8799998,-4.932 -2.16,-0.576 -4.392,0.72 -4.932,2.88 -10.44,39.672 -3.24,81.864 19.7999998,115.776 21.276,31.32 53.46,52.452 90.611996,59.544 8.964,1.692 17.928,2.556 26.856,2.556 18.216,0 36.108,-3.564 52.92,-10.44 0.612,0.864 1.296,1.728 2.016,2.556 5.796,6.516 14.112,10.26 22.86,10.26 7.488,0 14.688,-2.736 20.268,-7.704 6.084,-5.436 9.72,-12.888 10.224,-21.024 0.468,-8.136 -2.232,-15.984 -7.668,-22.104 z m -4.68,33.876 c -0.9,1.224 -1.944,2.34 -3.096,3.384 -1.008,0.9 -2.088,1.692 -3.204,2.376 -0.108,0.072 -0.216,0.144 -0.288,0.18 -1.08,0.648 -2.196,1.152 -3.312,1.584 -0.18,0.072 -0.324,0.144 -0.504,0.18 -1.116,0.396 -2.268,0.72 -3.42,0.936 -0.18,0.036 -0.396,0.072 -0.576,0.108 -1.152,0.18 -2.304,0.288 -3.492,0.324 -0.288,0 -0.576,0 -0.864,0 -0.432,0 -0.828,0 -1.26,-0.072 -0.324,0 -0.684,-0.072 -1.008,-0.108 -0.432,-0.036 -0.828,-0.108 -1.26,-0.18 -0.324,-0.072 -0.648,-0.144 -1.008,-0.216 -0.396,-0.108 -0.828,-0.216 -1.224,-0.324 -0.324,-0.108 -0.648,-0.18 -0.972,-0.288 -0.396,-0.144 -0.792,-0.288 -1.188,-0.468 -0.324,-0.108 -0.612,-0.252 -0.936,-0.396 -0.396,-0.18 -0.792,-0.396 -1.188,-0.612 -0.288,-0.144 -0.576,-0.288 -0.864,-0.468 -0.396,-0.252 -0.792,-0.504 -1.188,-0.756 -0.252,-0.18 -0.504,-0.324 -0.756,-0.504 -0.432,-0.324 -0.828,-0.648 -1.224,-1.008 -0.216,-0.18 -0.396,-0.324 -0.612,-0.504 -0.576,-0.54 -1.152,-1.116 -1.692,-1.728 -4.68,-5.256 -6.444,-12.096 -5.436,-18.576 0.108,-0.72 0.252,-1.44 0.432,-2.124 1.08,-4.248 3.384,-8.208 6.912,-11.304 0,0 0,0 0,0 1.008,-0.9 2.088,-1.692 3.204,-2.376 0.108,-0.072 0.216,-0.144 0.324,-0.216 1.08,-0.648 2.196,-1.152 3.312,-1.584 0.18,-0.072 0.324,-0.144 0.504,-0.18 1.116,-0.396 2.268,-0.72 3.42,-0.936 0.18,-0.036 0.396,-0.072 0.576,-0.108 1.152,-0.18 2.304,-0.288 3.492,-0.324 0.288,0 0.576,0 0.864,0 0.432,0 0.828,0 1.26,0.072 0.324,0 0.684,0.072 1.008,0.108 0.432,0.036 0.828,0.108 1.26,0.18 0.324,0.072 0.648,0.144 1.008,0.216 0.396,0.108 0.828,0.216 1.224,0.324 0.324,0.108 0.648,0.18 0.972,0.288 0.396,0.144 0.792,0.288 1.188,0.468 0.324,0.108 0.612,0.252 0.936,0.396 0.396,0.18 0.792,0.396 1.188,0.576 0.288,0.144 0.576,0.288 0.864,0.468 0.396,0.252 0.792,0.504 1.188,0.756 0.252,0.18 0.504,0.324 0.756,0.504 0.432,0.324 0.828,0.648 1.224,1.008 0.216,0.18 0.396,0.324 0.612,0.504 0.576,0.54 1.152,1.116 1.692,1.728 3.636,4.104 5.508,9.144 5.724,14.22 0.18,5.076 -1.332,10.188 -4.5,14.4 z" />
   <g id="bulb" class="text" transform="matrix(3.6,0,0,3.6,-0.03418579,0)">
      <path
         d="M 58.76,64.46 C 58.13,63.83 57.81,63 57.81,62.17 c 0,-0.83 0.32,-1.65 0.95,-2.29 0.63,-0.63 1.46,-0.95 2.29,-0.95 0.83,0 1.65,0.32 2.29,0.95 0.63,0.63 0.95,1.46 0.95,2.29 0,0.83 -0.32,1.65 -0.95,2.29 l -1.07,1.07 h -0.34 v -3.94 c -0.07,-0.03 -0.14,-0.08 -0.19,-0.13 v 0 c -0.12,-0.12 -0.2,-0.3 -0.2,-0.48 0,-0.18 0.08,-0.36 0.2,-0.48 v 0 c 0.12,-0.12 0.29,-0.2 0.48,-0.2 0.19,0 0.36,0.08 0.48,0.2 v 0 c 0.12,0.12 0.2,0.3 0.2,0.48 0,0.18 -0.08,0.36 -0.2,0.48 -0.06,0.06 -0.12,0.1 -0.19,0.13 v 2.87 l 0.41,-0.41 c 0.52,-0.52 0.78,-1.19 0.78,-1.87 0,-0.68 -0.26,-1.35 -0.78,-1.87 -0.52,-0.52 -1.19,-0.78 -1.87,-0.78 -0.68,0 -1.35,0.26 -1.87,0.78 -0.52,0.52 -0.78,1.19 -0.78,1.87 0,0.68 0.26,1.35 0.78,1.87 l 0.41,0.41 V 63.88 C 59.52,63.85 59.45,63.8 59.4,63.75 v 0 c -0.12,-0.12 -0.2,-0.3 -0.2,-0.48 0,-0.18 0.08,-0.36 0.2,-0.48 v 0 c 0.12,-0.12 0.29,-0.2 0.48,-0.2 0.19,0 0.36,0.08 0.48,0.2 v 0 c 0.12,0.12 0.2,0.3 0.2,0.48 0,0.18 -0.08,0.36 -0.2,0.48 -0.06,0.06 -0.12,0.1 -0.19,0.13 v 1.66 h -0.34 l -1.07,-1.07 v 0 z m 3.61,-3.65 v 0 c 0,0 -0.09,-0.06 -0.15,-0.06 -0.06,0 -0.11,0.02 -0.15,0.06 -0.04,0.04 -0.06,0.09 -0.06,0.15 0,0.06 0.02,0.11 0.06,0.15 v 0 c 0,0 0.09,0.06 0.15,0.06 0.06,0 0.11,-0.02 0.15,-0.06 0.04,-0.04 0.06,-0.09 0.06,-0.15 0,-0.06 -0.02,-0.11 -0.06,-0.15 z m -2.34,2.29 v 0 c 0,0 -0.09,-0.06 -0.15,-0.06 -0.06,0 -0.11,0.02 -0.15,0.06 -0.04,0.04 -0.06,0.09 -0.06,0.15 0,0.06 0.02,0.11 0.06,0.15 v 0 c 0,0 0.09,0.06 0.15,0.06 0.06,0 0.11,-0.02 0.15,-0.06 0.04,-0.04 0.06,-0.09 0.06,-0.15 0,-0.06 -0.02,-0.11 -0.06,-0.15 z m 1.02,-1.68 c 0.19,0 0.36,0.08 0.48,0.2 v 0 c 0.12,0.12 0.2,0.3 0.2,0.48 0,0.18 -0.08,0.36 -0.2,0.48 -0.06,0.06 -0.12,0.1 -0.19,0.13 v 2.8 h -0.59 v -2.8 c -0.07,-0.03 -0.14,-0.08 -0.19,-0.13 v 0 c -0.12,-0.12 -0.2,-0.3 -0.2,-0.48 0,-0.18 0.08,-0.36 0.2,-0.48 v 0 c 0.12,-0.12 0.29,-0.2 0.48,-0.2 z m 0.15,0.53 v 0 c 0,0 -0.09,-0.06 -0.15,-0.06 -0.06,0 -0.11,0.02 -0.15,0.06 -0.04,0.04 -0.06,0.09 -0.06,0.15 0,0.06 0.02,0.11 0.06,0.15 v 0 c 0,0 0.09,0.06 0.15,0.06 0.06,0 0.11,-0.02 0.15,-0.06 0.04,-0.04 0.06,-0.09 0.06,-0.15 0,-0.06 -0.02,-0.11 -0.06,-0.15 z" />
      <path
         d="m 59.79,65.91 h 2.52 c 0.17,0 0.3,0.13 0.3,0.3 v 0 c 0,0.16 -0.14,0.3 -0.3,0.3 h -2.52 c -0.17,0 -0.3,-0.13 -0.3,-0.3 v 0 c 0,-0.16 0.14,-0.3 0.3,-0.3 z" />
      <path
         d="m 59.96,66.8 h 2.17 c 0.14,0 0.26,0.13 0.26,0.3 v 0 c 0,0.16 -0.12,0.3 -0.26,0.3 h -2.17 c -0.14,0 -0.26,-0.13 -0.26,-0.3 v 0 c 0,-0.16 0.12,-0.3 0.26,-0.3 z" />
      <path d="m 60.35,67.71 h 1.4 c -0.06,0.34 -0.35,0.59 -0.7,0.59 -0.35,0 -0.64,-0.25 -0.7,-0.59 z" />
   </g>
</svg>
