<?xml version="1.0" encoding="UTF-8"?>
<svg id="artwork" xmlns="http://www.w3.org/2000/svg" xmlns:xlink="http://www.w3.org/1999/xlink" viewBox="0 0 394.38 72.11">
  <defs>
    <style>
      .cls-1 {
        fill: #4d4d4d;
      }

      .cls-1, .cls-2, .cls-3, .cls-4, .cls-5 {
        stroke-width: 0px;
      }

      .cls-2 {
        fill: #0e4377;
      }

      .cls-3 {
        fill: #1976d2;
      }

      .cls-4 {
        fill: #fff;
      }

      .cls-5 {
        fill: url(#radial-gradient);
      }
    </style>
    <radialGradient id="radial-gradient" cx="38.88" cy="32.04" fx="38.88" fy="32.04" r="32.04" gradientUnits="userSpaceOnUse">
      <stop offset="0" stop-color="#1976d2"/>
      <stop offset=".51" stop-color="#1874d0"/>
      <stop offset=".7" stop-color="#1871c9"/>
      <stop offset=".83" stop-color="#166abd"/>
      <stop offset=".93" stop-color="#1461ac"/>
      <stop offset="1" stop-color="#13599e"/>
    </radialGradient>
  </defs>
  <g>
    <path class="cls-1" d="m102.15,16.46h6.45l13.62,32h-7.31l-2.91-7.13h-13.44l-2.91,7.13h-7.13l13.62-32Zm7.35,18.7l-4.22-10.3-4.22,10.3h8.44Z"/>
    <path class="cls-1" d="m123.35,45.24l2.95-4.54c2.63,1.91,5.4,2.91,7.67,2.91,2,0,2.91-.73,2.91-1.82v-.09c0-1.5-2.36-2-5.04-2.81-3.4-1-7.26-2.59-7.26-7.31v-.09c0-4.95,4-7.72,8.9-7.72,3.09,0,6.45,1.04,9.08,2.81l-2.63,4.77c-2.41-1.41-4.81-2.27-6.58-2.27s-2.54.73-2.54,1.68v.09c0,1.36,2.32,2,4.95,2.91,3.4,1.13,7.35,2.77,7.35,7.22v.09c0,5.4-4.04,7.85-9.31,7.85-3.4,0-7.22-1.14-10.44-3.68Z"/>
    <path class="cls-1" d="m144.56,45.24l2.95-4.54c2.63,1.91,5.4,2.91,7.67,2.91,2,0,2.91-.73,2.91-1.82v-.09c0-1.5-2.36-2-5.04-2.81-3.4-1-7.26-2.59-7.26-7.31v-.09c0-4.95,4-7.72,8.9-7.72,3.09,0,6.45,1.04,9.08,2.81l-2.63,4.77c-2.41-1.41-4.81-2.27-6.58-2.27s-2.54.73-2.54,1.68v.09c0,1.36,2.32,2,4.95,2.91,3.4,1.13,7.35,2.77,7.35,7.22v.09c0,5.4-4.04,7.85-9.31,7.85-3.4,0-7.22-1.14-10.44-3.68Z"/>
    <path class="cls-1" d="m166.94,36.43v-.09c0-6.95,4.95-12.67,12.03-12.67,8.13,0,11.85,6.31,11.85,13.21,0,.54-.05,1.18-.09,1.82h-16.93c.68,3.13,2.86,4.77,5.95,4.77,2.31,0,3.99-.73,5.9-2.5l3.95,3.5c-2.27,2.81-5.54,4.54-9.94,4.54-7.31,0-12.71-5.13-12.71-12.57Zm17.16-2.04c-.41-3.09-2.22-5.18-5.13-5.18s-4.72,2.04-5.27,5.18h10.4Z"/>
    <path class="cls-1" d="m194.81,24.13h6.9v3.45c1.59-2.04,3.68-3.9,7.17-3.9,3.18,0,5.58,1.41,6.85,3.86,2.13-2.5,4.68-3.86,7.99-3.86,5.13,0,8.22,3.09,8.22,8.94v15.84h-6.9v-13.57c0-3.27-1.45-4.95-4.04-4.95s-4.18,1.68-4.18,4.95v13.57h-6.9v-13.57c0-3.27-1.45-4.95-4.04-4.95s-4.18,1.68-4.18,4.95v13.57h-6.9v-24.33Z"/>
    <path class="cls-1" d="m243.71,45.28v3.18h-6.9V15.32h6.9v12.3c1.68-2.27,3.99-3.95,7.58-3.95,5.67,0,11.08,4.45,11.08,12.57v.09c0,8.13-5.31,12.57-11.08,12.57-3.68,0-5.95-1.68-7.58-3.63Zm11.76-8.94v-.09c0-4.04-2.72-6.72-5.95-6.72s-5.9,2.68-5.9,6.72v.09c0,4.04,2.68,6.72,5.9,6.72s5.95-2.63,5.95-6.72Z"/>
    <path class="cls-1" d="m266.63,15.32h6.9v33.14h-6.9V15.32Z"/>
    <path class="cls-1" d="m278.57,54.18l2.32-4.99c.91.54,2.04.95,2.95.95,1.18,0,1.82-.36,2.41-1.59l-9.53-24.42h7.31l5.54,16.57,5.31-16.57h7.17l-9.35,24.92c-1.86,4.95-3.86,6.81-7.99,6.81-2.5,0-4.36-.64-6.13-1.68Z"/>
    <path class="cls-1" d="m305.72,16.68h6.99v25.42h15.84v6.36h-22.83v-31.78Z"/>
    <path class="cls-1" d="m332.1,15.32h7.26v6.13h-7.26v-6.13Zm.18,8.81h6.9v24.33h-6.9v-24.33Z"/>
    <path class="cls-1" d="m344.54,24.13h6.9v3.45c1.59-2.04,3.63-3.9,7.13-3.9,5.22,0,8.26,3.45,8.26,9.03v15.75h-6.9v-13.57c0-3.27-1.54-4.95-4.18-4.95s-4.31,1.68-4.31,4.95v13.57h-6.9v-24.33Z"/>
    <path class="cls-1" d="m370.51,36.43v-.09c0-6.95,4.95-12.67,12.03-12.67,8.13,0,11.85,6.31,11.85,13.21,0,.54-.04,1.18-.09,1.82h-16.93c.68,3.13,2.86,4.77,5.95,4.77,2.32,0,4-.73,5.9-2.5l3.95,3.5c-2.27,2.81-5.54,4.54-9.94,4.54-7.31,0-12.71-5.13-12.71-12.57Zm17.16-2.04c-.41-3.09-2.22-5.18-5.13-5.18s-4.72,2.04-5.27,5.18h10.4Z"/>
  </g>
  <g>
    <path class="cls-5" d="m54.11,55.81c1.91-1.7,4.38-2.64,6.94-2.64h0c.59,0,1.18.06,1.76.16,5.04-5.66,8.11-13.12,8.11-21.29C70.92,14.34,56.57,0,38.88,0S6.84,14.34,6.84,32.04s14.34,32.04,32.04,32.04c4.21,0,8.22-.82,11.9-2.29.4-2.23,1.51-4.36,3.33-5.98Z"/>
    <g>
      <path class="cls-4" d="m58.43,14.57c.28-.64.36-1.37.16-2.1-.45-1.71-2.2-2.73-3.92-2.28-.28.07-.55.19-.79.33l-11.19.17s0-.01-.01-.02c-1.6-2.27-4.73-2.81-7-1.22-2.27,1.6-2.81,4.73-1.22,7,.39.56.88,1.02,1.43,1.36l1.11,7.61-9.65,4.88c-1.7.86-2.78,2.61-2.78,4.52v5.42h-.58c-.44,0-.5.33-.5.33v.86h13.96v-.86s-.06-.33-.5-.33h-.46l8.73-8.77c1.57-1.7,1.67-4.28.24-6.1-.02-.03-.05-.06-.08-.09l-2.82-8.68c.1-.13.19-.26.28-.4l10.38-.65c.18.18.38.34.6.47l.43,2.93,4.7-.56-.54-3.83Z"/>
      <path class="cls-4" d="m61.28,20.35s-.02-.04-.04-.06l-.31-.19s-.03-.01-.05-.01l-1.13.13s.05-.05.04-.08l-.11-.92s-.04-.07-.09-.07l-5.69.67s-.07.04-.07.09l.11.92s.03.06.07.06l-1.13.13s-.03,0-.05.02l-.25.25s-.02.04-.02.06l.24,2.02s.02.04.04.06l.31.19s.03.01.05.01l.57-.07s-.04.04-.03.07l.4,3.41c.03.26.12.52.26.74l1.92,3.02c.05.07.13.11.21.1l.64-.08s.07-.04.07-.09l-.3-2.53s-.04-.07-.09-.07l-.23.03s-.08-.03-.09-.07l-.56-4.74s-.02-.05-.05-.06l5.27-.62s.03,0,.05-.02l.25-.25s.03-.04.02-.06l-.24-2.02Z"/>
      <path class="cls-4" d="m30.48,42.42h-6.25s-.61,0-.61,0c-.07,0-.26.05-.28.26l-1.1,9.63c0,.06-.07.11-.14.11h-.53s-.59,0-.86,0-.48.1-.48.39v.61c0,.07.06.12.14.12h1.21s.54,0,.54,0h1.06s7.31,0,7.31,0h7.31s1.06,0,1.06,0h1.75c.08,0,.14-.05.14-.12v-.61c0-.29-.21-.39-.48-.39h-1.4c-.07,0-.13-.05-.14-.11l-1.1-9.63c-.03-.21-.21-.26-.28-.26h-.61s-6.25,0-6.25,0Z"/>
      <path class="cls-2" d="m35.48,53.54h2.31s1.06,0,1.06,0h1.75c.08,0,.14-.05.14-.12v-.61c0-.29-.21-.39-.48-.39h-1.4c-.07,0-.13-.05-.14-.11l-1.1-9.63c-.03-.21-.21-.26-.28-.26h-.61s-1.25,0-1.25,0"/>
      <path class="cls-2" d="m36.76,14.85c-.71-1.01-.47-2.4.54-3.11s2.4-.47,3.11.54c.71,1.01.47,2.4-.54,3.11-1.01.71-2.4.47-3.11-.54Z"/>
      <path class="cls-2" d="m44.44,28.52c-.2,1.47-1.55,2.51-3.02,2.31-1.47-.2-2.51-1.55-2.31-3.02.2-1.47,1.55-2.51,3.02-2.31,1.47.2,2.51,1.55,2.31,3.02Z"/>
      <path class="cls-2" d="m55.83,14.57c-.71.19-1.43-.24-1.61-.94-.19-.71.24-1.43.94-1.61.71-.19,1.43.24,1.61.94.19.71-.24,1.43-.94,1.61Z"/>
      <path class="cls-4" d="m58.93,27.75l-.46-3.91s.03-.08.07-.09l2.08-.25s.08.03.09.07l.3,2.58c.03.26,0,.53-.08.78l-1.16,3.39c-.03.08-.1.14-.18.15l-.64.08s-.08-.03-.09-.07l-.3-2.53s.03-.08.07-.09l.23-.03s.07-.04.07-.09Z"/>
      <path class="cls-2" d="m59.39,30.49l.19-.02c.08,0,.15-.07.18-.15l1.16-3.39c.09-.25.11-.52.08-.78l-.3-2.58s-.04-.07-.09-.07l-.63.07.4,2.69s0,.07.05.69c-.12.64-1.05,3.54-1.05,3.54Z"/>
    </g>
    <path class="cls-3" d="m67.39,57.98c-1.61-1.81-3.92-2.85-6.35-2.85-2.08,0-4.08.76-5.64,2.14-2.68,2.38-3.49,6.1-2.32,9.28-6.51,2.61-13.64,3.32-20.69,1.98-9.74-1.86-18.17-7.4-23.74-15.59C2.63,44.05.74,33,3.48,22.61c.16-.6-.2-1.22-.8-1.37-.6-.16-1.22.2-1.37.8-2.9,11.02-.9,22.74,5.5,32.16,5.91,8.7,14.85,14.57,25.17,16.54,2.49.47,4.98.71,7.46.71,5.06,0,10.03-.99,14.7-2.9.17.24.36.48.56.71,1.61,1.81,3.92,2.85,6.35,2.85,2.08,0,4.08-.76,5.63-2.14,1.69-1.51,2.7-3.58,2.84-5.84.13-2.26-.62-4.44-2.13-6.14Zm-1.3,9.41c-.25.34-.54.65-.86.94-.28.25-.58.47-.89.66-.03.02-.06.04-.08.05-.3.18-.61.32-.92.44-.05.02-.09.04-.14.05-.31.11-.63.2-.95.26-.05.01-.11.02-.16.03-.32.05-.64.08-.97.09-.08,0-.16,0-.24,0-.12,0-.23,0-.35-.02-.09,0-.19-.02-.28-.03-.12-.01-.23-.03-.35-.05-.09-.02-.18-.04-.28-.06-.11-.03-.23-.06-.34-.09-.09-.03-.18-.05-.27-.08-.11-.04-.22-.08-.33-.13-.09-.03-.17-.07-.26-.11-.11-.05-.22-.11-.33-.17-.08-.04-.16-.08-.24-.13-.11-.07-.22-.14-.33-.21-.07-.05-.14-.09-.21-.14-.12-.09-.23-.18-.34-.28-.06-.05-.11-.09-.17-.14-.16-.15-.32-.31-.47-.48-1.3-1.46-1.79-3.36-1.51-5.16.03-.2.07-.4.12-.59.3-1.18.94-2.28,1.92-3.14,0,0,0,0,0,0,.28-.25.58-.47.89-.66.03-.02.06-.04.09-.06.3-.18.61-.32.92-.44.05-.02.09-.04.14-.05.31-.11.63-.2.95-.26.05-.01.11-.02.16-.03.32-.05.64-.08.97-.09.08,0,.16,0,.24,0,.12,0,.23,0,.35.02.09,0,.19.02.28.03.12.01.23.03.35.05.09.02.18.04.28.06.11.03.23.06.34.09.09.03.18.05.27.08.11.04.22.08.33.13.09.03.17.07.26.11.11.05.22.11.33.16.08.04.16.08.24.13.11.07.22.14.33.21.07.05.14.09.21.14.12.09.23.18.34.28.06.05.11.09.17.14.16.15.32.31.47.48,1.01,1.14,1.53,2.54,1.59,3.95.05,1.41-.37,2.83-1.25,4Z"/>
    <g>
      <path class="cls-3" d="m58.76,64.46c-.63-.63-.95-1.46-.95-2.29s.32-1.65.95-2.29c.63-.63,1.46-.95,2.29-.95s1.65.32,2.29.95c.63.63.95,1.46.95,2.29s-.32,1.65-.95,2.29l-1.07,1.07h-.34v-3.94c-.07-.03-.14-.08-.19-.13h0c-.12-.12-.2-.3-.2-.48s.08-.36.2-.48h0c.12-.12.29-.2.48-.2s.36.08.48.2h0c.12.12.2.3.2.48s-.08.36-.2.48c-.06.06-.12.1-.19.13v2.87l.41-.41c.52-.52.78-1.19.78-1.87s-.26-1.35-.78-1.87c-.52-.52-1.19-.78-1.87-.78s-1.35.26-1.87.78c-.52.52-.78,1.19-.78,1.87s.26,1.35.78,1.87l.41.41v-.58c-.07-.03-.14-.08-.19-.13h0c-.12-.12-.2-.3-.2-.48s.08-.36.2-.48h0c.12-.12.29-.2.48-.2s.36.08.48.2h0c.12.12.2.3.2.48s-.08.36-.2.48c-.06.06-.12.1-.19.13v1.66h-.34l-1.07-1.07h0Zm3.61-3.65h0s-.09-.06-.15-.06-.11.02-.15.06c-.04.04-.06.09-.06.15s.02.11.06.15h0s.09.06.15.06.11-.02.15-.06c.04-.04.06-.09.06-.15s-.02-.11-.06-.15h0Zm-2.34,2.29h0s-.09-.06-.15-.06-.11.02-.15.06c-.04.04-.06.09-.06.15s.02.11.06.15h0s.09.06.15.06.11-.02.15-.06c.04-.04.06-.09.06-.15s-.02-.11-.06-.15h0Zm1.02-1.68c.19,0,.36.08.48.2h0c.12.12.2.3.2.48s-.08.36-.2.48c-.06.06-.12.1-.19.13v2.8h-.59v-2.8c-.07-.03-.14-.08-.19-.13h0c-.12-.12-.2-.3-.2-.48s.08-.36.2-.48h0c.12-.12.29-.2.48-.2Zm.15.53h0s-.09-.06-.15-.06-.11.02-.15.06c-.04.04-.06.09-.06.15s.02.11.06.15h0s.09.06.15.06.11-.02.15-.06c.04-.04.06-.09.06-.15s-.02-.11-.06-.15h0Z"/>
      <path class="cls-3" d="m59.79,65.91h2.52c.17,0,.3.13.3.3h0c0,.16-.14.3-.3.3h-2.52c-.17,0-.3-.13-.3-.3h0c0-.16.14-.3.3-.3Z"/>
      <path class="cls-3" d="m59.96,66.8h2.17c.14,0,.26.13.26.3h0c0,.16-.12.3-.26.3h-2.17c-.14,0-.26-.13-.26-.3h0c0-.16.12-.3.26-.3Z"/>
      <path class="cls-3" d="m60.35,67.71h1.4c-.06.34-.35.59-.7.59s-.64-.25-.7-.59Z"/>
    </g>
  </g>
</svg>