<?xml version="1.0" encoding="UTF-8" standalone="no"?>
<svg
   id="artwork"
   viewBox="0 0 385.88781 86.531998"
   version="1.1"
   sodipodi:docname="banner_with_text.svg"
   inkscape:version="1.1 (c68e22c387, 2021-05-23)"
   width="385.88782"
   height="86.531998"
   xmlns:inkscape="http://www.inkscape.org/namespaces/inkscape"
   xmlns:sodipodi="http://sodipodi.sourceforge.net/DTD/sodipodi-0.dtd"
   xmlns="http://www.w3.org/2000/svg"
   xmlns:svg="http://www.w3.org/2000/svg">
  <sodipodi:namedview
     id="namedview1232"
     pagecolor="#505050"
     bordercolor="#eeeeee"
     borderopacity="1"
     inkscape:pageshadow="0"
     inkscape:pageopacity="0"
     inkscape:pagecheckerboard="0"
     showgrid="false"
     inkscape:zoom="1.9023979"
     inkscape:cx="37.584146"
     inkscape:cy="2.8910881"
     inkscape:window-width="2560"
     inkscape:window-height="1369"
     inkscape:window-x="3832"
     inkscape:window-y="-8"
     inkscape:window-maximized="1"
     inkscape:current-layer="g41457"
     fit-margin-top="0"
     fit-margin-left="0"
     fit-margin-right="0"
     fit-margin-bottom="0"
     inkscape:snap-nodes="false"
     width="469.03091px"
     lock-margins="true" />
  <defs
     id="defs1167">
    <style
       id="style1152">
      .cls-1 {
        fill: #4d4d4d;
      }

      .cls-1, .cls-2, .cls-3, .cls-4, .cls-5 {
        stroke-width: 0px;
      }

      .cls-2 {
        fill: #0e4377;
      }

      .cls-3 {
        fill: #1976d2;
      }

      .cls-4 {
        fill: #fff;
      }

      .cls-5 {
        fill: url(#radial-gradient);
      }
    </style>
    <radialGradient
       id="radial-gradient"
       cx="38.880001"
       cy="32.040001"
       fx="38.880001"
       fy="32.040001"
       r="32.040001"
       gradientUnits="userSpaceOnUse">
      <stop
         offset="0"
         stop-color="#1976d2"
         id="stop1154"
         style="stop-color:#0b8de5;stop-opacity:1" />
      <stop
         offset=".51"
         stop-color="#1874d0"
         id="stop1156"
         style="stop-color:#0b85d5;stop-opacity:1" />
      <stop
         offset=".7"
         stop-color="#1871c9"
         id="stop1158"
         style="stop-color:#0b7bc6;stop-opacity:1" />
      <stop
         offset=".83"
         stop-color="#166abd"
         id="stop1160"
         style="stop-color:#0b72b7;stop-opacity:1" />
      <stop
         offset=".93"
         stop-color="#1461ac"
         id="stop1162"
         style="stop-color:#0b6cad;stop-opacity:1" />
      <stop
         offset="1"
         stop-color="#13599e"
         id="stop1164"
         style="stop-color:#0b65a1;stop-opacity:1" />
    </radialGradient>
  </defs>
  <g
     id="g91781"
     transform="translate(7.081555,7.211)">
    <path
       class="cls-1"
       d="m 102.15,16.46 h 6.45 l 13.62,32 h -7.31 L 112,41.33 H 98.56 l -2.91,7.13 h -7.13 l 13.62,-32 z m 7.35,18.7 -4.22,-10.3 -4.22,10.3 z"
       id="path1169"
       style="fill:#737373;fill-opacity:1" />
    <path
       class="cls-1"
       d="m 123.35,45.24 2.95,-4.54 c 2.63,1.91 5.4,2.91 7.67,2.91 2,0 2.91,-0.73 2.91,-1.82 V 41.7 c 0,-1.5 -2.36,-2 -5.04,-2.81 -3.4,-1 -7.26,-2.59 -7.26,-7.31 v -0.09 c 0,-4.95 4,-7.72 8.9,-7.72 3.09,0 6.45,1.04 9.08,2.81 l -2.63,4.77 c -2.41,-1.41 -4.81,-2.27 -6.58,-2.27 -1.77,0 -2.54,0.73 -2.54,1.68 v 0.09 c 0,1.36 2.32,2 4.95,2.91 3.4,1.13 7.35,2.77 7.35,7.22 v 0.09 c 0,5.4 -4.04,7.85 -9.31,7.85 -3.4,0 -7.22,-1.14 -10.44,-3.68 z"
       id="path1171"
       style="fill:#737373;fill-opacity:1" />
    <path
       class="cls-1"
       d="m 144.56,45.24 2.95,-4.54 c 2.63,1.91 5.4,2.91 7.67,2.91 2,0 2.91,-0.73 2.91,-1.82 V 41.7 c 0,-1.5 -2.36,-2 -5.04,-2.81 -3.4,-1 -7.26,-2.59 -7.26,-7.31 v -0.09 c 0,-4.95 4,-7.72 8.9,-7.72 3.09,0 6.45,1.04 9.08,2.81 l -2.63,4.77 c -2.41,-1.41 -4.81,-2.27 -6.58,-2.27 -1.77,0 -2.54,0.73 -2.54,1.68 v 0.09 c 0,1.36 2.32,2 4.95,2.91 3.4,1.13 7.35,2.77 7.35,7.22 v 0.09 c 0,5.4 -4.04,7.85 -9.31,7.85 -3.4,0 -7.22,-1.14 -10.44,-3.68 z"
       id="path1173"
       style="fill:#737373;fill-opacity:1" />
    <path
       class="cls-1"
       d="m 166.94,36.43 v -0.09 c 0,-6.95 4.95,-12.67 12.03,-12.67 8.13,0 11.85,6.31 11.85,13.21 0,0.54 -0.05,1.18 -0.09,1.82 H 173.8 c 0.68,3.13 2.86,4.77 5.95,4.77 2.31,0 3.99,-0.73 5.9,-2.5 l 3.95,3.5 c -2.27,2.81 -5.54,4.54 -9.94,4.54 -7.31,0 -12.71,-5.13 -12.71,-12.57 z m 17.16,-2.04 c -0.41,-3.09 -2.22,-5.18 -5.13,-5.18 -2.91,0 -4.72,2.04 -5.27,5.18 z"
       id="path1175"
       style="fill:#737373;fill-opacity:1" />
    <path
       class="cls-1"
       d="m 194.81,24.13 h 6.9 v 3.45 c 1.59,-2.04 3.68,-3.9 7.17,-3.9 3.18,0 5.58,1.41 6.85,3.86 2.13,-2.5 4.68,-3.86 7.99,-3.86 5.13,0 8.22,3.09 8.22,8.94 v 15.84 h -6.9 V 34.89 c 0,-3.27 -1.45,-4.95 -4.04,-4.95 -2.59,0 -4.18,1.68 -4.18,4.95 v 13.57 h -6.9 V 34.89 c 0,-3.27 -1.45,-4.95 -4.04,-4.95 -2.59,0 -4.18,1.68 -4.18,4.95 v 13.57 h -6.9 V 24.13 Z"
       id="path1177"
       style="fill:#737373;fill-opacity:1" />
    <path
       class="cls-1"
       d="m 243.71,45.28 v 3.18 h -6.9 V 15.32 h 6.9 v 12.3 c 1.68,-2.27 3.99,-3.95 7.58,-3.95 5.67,0 11.08,4.45 11.08,12.57 v 0.09 c 0,8.13 -5.31,12.57 -11.08,12.57 -3.68,0 -5.95,-1.68 -7.58,-3.63 z m 11.76,-8.94 v -0.09 c 0,-4.04 -2.72,-6.72 -5.95,-6.72 -3.23,0 -5.9,2.68 -5.9,6.72 v 0.09 c 0,4.04 2.68,6.72 5.9,6.72 3.22,0 5.95,-2.63 5.95,-6.72 z"
       id="path1179"
       style="fill:#737373;fill-opacity:1" />
    <path
       class="cls-1"
       d="m 266.63,15.32 h 6.9 v 33.14 h -6.9 z"
       id="path1181"
       style="fill:#737373;fill-opacity:1" />
    <path
       class="cls-1"
       d="m 305.15273,15.152918 h 6.9 v 33.14 h -6.9 z"
       id="path1181-7"
       style="fill:#737373;fill-opacity:1;stroke-width:0px" />
    <path
       class="cls-1"
       d="m 278.57,54.18 2.32,-4.99 c 0.91,0.54 2.04,0.95 2.95,0.95 1.18,0 1.82,-0.36 2.41,-1.59 l -9.53,-24.42 h 7.31 l 5.54,16.57 5.31,-16.57 h 7.17 l -9.35,24.92 c -1.86,4.95 -3.86,6.81 -7.99,6.81 -2.5,0 -4.36,-0.64 -6.13,-1.68 z"
       id="path1183"
       style="fill:#737373;fill-opacity:1" />
    <path
       class="cls-1"
       d="m 316.51627,15.32 h 7.26 v 6.13 h -7.26 z m 0.18,8.81 h 6.9 v 24.33 h -6.9 z"
       id="path1187"
       style="fill:#737373;fill-opacity:1" />
    <path
       class="cls-1"
       d="m 328.95627,24.13 h 6.9 v 3.45 c 1.59,-2.04 3.63,-3.9 7.13,-3.9 5.22,0 8.26,3.45 8.26,9.03 v 15.75 h -6.9 V 34.89 c 0,-3.27 -1.54,-4.95 -4.18,-4.95 -2.64,0 -4.31,1.68 -4.31,4.95 v 13.57 h -6.9 z"
       id="path1189"
       style="fill:#737373;fill-opacity:1" />
    <path
       class="cls-1"
       d="m 354.92627,36.43 v -0.09 c 0,-6.95 4.95,-12.67 12.03,-12.67 8.13,0 11.85,6.31 11.85,13.21 0,0.54 -0.04,1.18 -0.09,1.82 h -16.93 c 0.68,3.13 2.86,4.77 5.95,4.77 2.32,0 4,-0.73 5.9,-2.5 l 3.95,3.5 c -2.27,2.81 -5.54,4.54 -9.94,4.54 -7.31,0 -12.71,-5.13 -12.71,-12.57 z m 17.16,-2.04 c -0.41,-3.09 -2.22,-5.18 -5.13,-5.18 -2.91,0 -4.72,2.04 -5.27,5.18 z"
       id="path1191"
       style="fill:#737373;fill-opacity:1" />
  </g>
  <g
     id="g41457"
     transform="matrix(1.2,0,0,1.2,-0.01139526,0)">
    <path
       class="cls-5"
       d="m 54.11,55.81 c 1.91,-1.7 4.38,-2.64 6.94,-2.64 v 0 c 0.59,0 1.18,0.06 1.76,0.16 5.04,-5.66 8.11,-13.12 8.11,-21.29 C 70.92,14.34 56.57,0 38.88,0 21.19,0 6.84,14.34 6.84,32.04 c 0,17.7 14.34,32.04 32.04,32.04 4.21,0 8.22,-0.82 11.9,-2.29 0.4,-2.23 1.51,-4.36 3.33,-5.98 z"
       id="path1195"
       style="fill:url(#radial-gradient)" />
    <g
       id="g92492"
       transform="matrix(1.0337795,0,0,1.0202152,-3.0003738,-1.3587099)">
      <path
         class="cls-4"
         d="m 57.770769,15.965566 c 0.33989,-0.788067 0.437002,-1.686955 0.194223,-2.585844 -0.546252,-2.105617 -2.670566,-3.361598 -4.758463,-2.807489 -0.33989,0.0862 -0.667641,0.233958 -0.958976,0.406347 l -13.583469,0.20933 c 0,0 0,-0.01231 -0.01214,-0.02463 -1.94223,-2.7951746 -5.741717,-3.460106 -8.497255,-1.5022522 -2.755539,1.9701672 -3.411041,5.8243072 -1.480951,8.6194822 0.473419,0.689559 1.068227,1.255982 1.735868,1.674642 l 1.347422,9.370609 -11.714073,6.00901 c -2.063619,1.058965 -3.374624,3.213836 -3.374624,5.565723 v 6.673942 h -0.704059 c -0.534113,0 -0.606946,0.406347 -0.606946,0.406347 v 1.058965 H 32.30328 v -1.058965 c 0,0 -0.07283,-0.406347 -0.606946,-0.406347 h -0.558392 l 10.597292,-10.79898 c 1.905813,-2.093303 2.027202,-5.270198 0.291334,-7.511263 -0.02428,-0.03694 -0.0607,-0.07388 -0.09711,-0.110822 l -3.42318,-10.688158 c 0.121389,-0.160076 0.230639,-0.320152 0.33989,-0.492542 l 12.600215,-0.80038 c 0.218501,0.221644 0.46128,0.41866 0.728337,0.578736 l 0.521974,3.607869 5.7053,-0.689558 -0.655503,-4.716088 z"
         id="path1197"
         style="fill:#e98c24;fill-opacity:1"
         sodipodi:nodetypes="cccccccccccscsccccscccccccccccc" />
      <path
         class="cls-4"
         d="m 61.230366,23.082796 c 0,0 -0.02428,-0.04925 -0.04856,-0.07388 l -0.376307,-0.233958 c 0,0 -0.03642,-0.01231 -0.0607,-0.01231 L 59.3731,22.922724 c 0,0 0.06069,-0.06157 0.04856,-0.09851 l -0.133528,-1.132846 c 0,0 -0.04856,-0.0862 -0.10925,-0.0862 l -6.907055,0.825008 c 0,0 -0.08497,0.04925 -0.08497,0.110822 l 0.133529,1.132846 c 0,0 0.03642,0.07388 0.08497,0.07388 L 51.033657,23.9078 c 0,0 -0.03642,0 -0.06069,0.02463 l -0.303474,0.307838 c 0,0 -0.02428,0.04925 -0.02428,0.07388 l 0.291334,2.487336 c 0,0 0.02428,0.04925 0.04856,0.07388 l 0.376307,0.233957 c 0,0 0.03642,0.01231 0.0607,0.01231 l 0.691919,-0.0862 c 0,0 -0.04856,0.04925 -0.03642,0.0862 l 0.485558,4.198919 c 0.03642,0.320152 0.145667,0.640305 0.315612,0.911203 l 2.330676,3.71869 c 0.06069,0.08619 0.157806,0.135449 0.254917,0.123136 l 0.776892,-0.09851 c 0,0 0.08497,-0.04926 0.08497,-0.110822 l -0.36417,-3.115317 c 0,0 -0.04856,-0.0862 -0.109251,-0.0862 l -0.279195,0.03694 c 0,0 -0.09711,-0.03694 -0.109251,-0.08619 l -0.67978,-5.836621 c 0,0 -0.02428,-0.06157 -0.06069,-0.07388 L 61.12112,25.93954 c 0,0 0.03642,0 0.06069,-0.02463 l 0.303473,-0.307838 c 0,0 0.03642,-0.04925 0.02428,-0.07388 l -0.291334,-2.487337 z"
         id="path1199"
         style="fill:#424242;fill-opacity:1"
         sodipodi:nodetypes="cccccccccccccccccccccccccscccccccccccccc" />
      <path
         class="cls-4"
         d="m 23.842443,50.258792 h -7.586835 -0.740475 c -0.08497,0 -0.315613,0.06157 -0.33989,0.320152 l -0.01992,0.21799 c 4.330679,6.420001 12.054586,11.911619 21.157604,13.059238 l -0.0038,-0.803608 c -0.0017,-0.357089 -0.254917,-0.480228 -0.582669,-0.480228 h -1.69945 c -0.08497,0 -0.157806,-0.06157 -0.169945,-0.135449 L 32.521782,50.578944 c -0.03642,-0.258584 -0.254917,-0.320152 -0.33989,-0.320152 h -0.740475 -7.586835 z"
         id="path1201"
         style="fill:#424242;fill-opacity:1"
         sodipodi:nodetypes="ccscccsssccsccc" />
      <path
         class="cls-2"
         d="m 29.916198,62.291641 c 2.598638,1.005794 3.803263,1.107139 6.396729,1.564531 l -0.01594,-0.803606 c -0.0071,-0.357021 -0.254917,-0.480228 -0.582669,-0.480228 H 34.01487 c -0.08497,0 -0.157806,-0.06157 -0.169945,-0.135449 L 32.509643,50.578944 c -0.03642,-0.258584 -0.254917,-0.320152 -0.33989,-0.320152 h -0.740475 -1.517367"
         id="path1203"
         style="fill:#303030;fill-opacity:1"
         sodipodi:nodetypes="ccsssccscc" />
      <path
         class="cls-2"
         d="m 31.465695,16.310346 c -0.861865,-1.243669 -0.57053,-2.955251 0.655502,-3.829513 1.226033,-0.874262 2.913345,-0.578737 3.775209,0.664931 0.861865,1.243668 0.57053,2.955251 -0.655502,3.829513 -1.226033,0.874262 -2.913345,0.578737 -3.775209,-0.664931 z"
         id="path1205"
         style="fill:#424242;fill-opacity:1"
         sodipodi:nodetypes="sssss" />
      <path
         class="cls-2"
         d="m 40.788398,33.142963 c -0.242779,1.810091 -1.881535,3.0907 -3.665959,2.844429 -1.784424,-0.246271 -3.046873,-1.9086 -2.804094,-3.718691 0.242778,-1.810091 1.881535,-3.0907 3.665958,-2.844429 1.784424,0.246271 3.046873,1.9086 2.804095,3.718691 z"
         id="path1207"
         style="fill:#424242;fill-opacity:1"
         sodipodi:nodetypes="sssss" />
      <path
         class="cls-2"
         d="m 54.614646,15.965566 c -0.861865,0.233958 -1.735868,-0.295525 -1.954369,-1.157473 -0.23064,-0.874262 0.291334,-1.760837 1.14106,-1.982481 0.861864,-0.233957 1.735868,0.295525 1.954369,1.157473 0.230639,0.874262 -0.291335,1.760837 -1.14106,1.982481 z"
         id="path1209"
         style="fill:#424242;fill-opacity:1"
         sodipodi:nodetypes="ccccc" />
      <path
         class="cls-4"
         d="m 58.377716,32.19482 -0.558391,-4.814597 c 0,0 0.03642,-0.09851 0.08497,-0.110821 l 2.524899,-0.307839 c 0,0 0.09711,0.03694 0.10925,0.0862 l 0.364169,3.176895 c 0.03642,0.320152 0,0.652618 -0.09711,0.960456 l -1.408117,4.174292 c -0.03642,0.09851 -0.121389,0.17239 -0.2185,0.184703 l -0.776892,0.09851 c 0,0 -0.09711,-0.03694 -0.109251,-0.08619 l -0.364168,-3.115327 c 0,0 0.03642,-0.09851 0.08497,-0.110822 l 0.279195,-0.03694 c 0,0 0.08497,-0.04925 0.08497,-0.110822 z"
         id="path1211"
         style="fill:#424242;fill-opacity:1"
         sodipodi:nodetypes="ccccccccsccccccc" />
      <path
         class="cls-2"
         d="m 58.936107,35.568732 0.23064,-0.02463 c 0.09711,0 0.182084,-0.08619 0.218501,-0.184703 l 1.408116,-4.174292 c 0.109251,-0.307838 0.133528,-0.640304 0.09711,-0.960456 l -0.364168,-3.176895 c 0,0 -0.04856,-0.0862 -0.109251,-0.0862 l -0.764753,0.0862 0.485558,3.312344 c 0,0 0,0.08619 0.06069,0.849634 -0.145667,0.788067 -1.274588,4.358996 -1.274588,4.358996 z"
         id="path1213"
         style="fill:#303030;fill-opacity:1"
         sodipodi:nodetypes="cccccccccccc" />
    </g>
    <path
       class="cls-3"
       d="m 67.39,57.98 c -1.61,-1.81 -3.92,-2.85 -6.35,-2.85 -2.08,0 -4.08,0.76 -5.64,2.14 -2.68,2.38 -3.49,6.1 -2.32,9.28 -6.51,2.61 -13.64,3.32 -20.69,1.98 C 22.65,66.67 14.22,61.13 8.65,52.94 2.63,44.05 0.74,33 3.48,22.61 c 0.16,-0.6 -0.2,-1.22 -0.8,-1.37 -0.6,-0.16 -1.22,0.2 -1.37,0.8 -2.9,11.02 -0.9,22.74 5.5,32.16 5.91,8.7 14.85,14.57 25.17,16.54 2.49,0.47 4.98,0.71 7.46,0.71 5.06,0 10.03,-0.99 14.7,-2.9 0.17,0.24 0.36,0.48 0.56,0.71 1.61,1.81 3.92,2.85 6.35,2.85 2.08,0 4.08,-0.76 5.63,-2.14 1.69,-1.51 2.7,-3.58 2.84,-5.84 0.13,-2.26 -0.62,-4.44 -2.13,-6.14 z m -1.3,9.41 c -0.25,0.34 -0.54,0.65 -0.86,0.94 -0.28,0.25 -0.58,0.47 -0.89,0.66 -0.03,0.02 -0.06,0.04 -0.08,0.05 -0.3,0.18 -0.61,0.32 -0.92,0.44 -0.05,0.02 -0.09,0.04 -0.14,0.05 -0.31,0.11 -0.63,0.2 -0.95,0.26 -0.05,0.01 -0.11,0.02 -0.16,0.03 -0.32,0.05 -0.64,0.08 -0.97,0.09 -0.08,0 -0.16,0 -0.24,0 -0.12,0 -0.23,0 -0.35,-0.02 -0.09,0 -0.19,-0.02 -0.28,-0.03 C 60.13,69.85 60.02,69.83 59.9,69.81 59.81,69.79 59.72,69.77 59.62,69.75 59.51,69.72 59.39,69.69 59.28,69.66 59.19,69.63 59.1,69.61 59.01,69.58 58.9,69.54 58.79,69.5 58.68,69.45 58.59,69.42 58.51,69.38 58.42,69.34 58.31,69.29 58.2,69.23 58.09,69.17 58.01,69.13 57.93,69.09 57.85,69.04 57.74,68.97 57.63,68.9 57.52,68.83 57.45,68.78 57.38,68.74 57.31,68.69 57.19,68.6 57.08,68.51 56.97,68.41 56.91,68.36 56.86,68.32 56.8,68.27 c -0.16,-0.15 -0.32,-0.31 -0.47,-0.48 -1.3,-1.46 -1.79,-3.36 -1.51,-5.16 0.03,-0.2 0.07,-0.4 0.12,-0.59 0.3,-1.18 0.94,-2.28 1.92,-3.14 0,0 0,0 0,0 0.28,-0.25 0.58,-0.47 0.89,-0.66 0.03,-0.02 0.06,-0.04 0.09,-0.06 0.3,-0.18 0.61,-0.32 0.92,-0.44 0.05,-0.02 0.09,-0.04 0.14,-0.05 0.31,-0.11 0.63,-0.2 0.95,-0.26 0.05,-0.01 0.11,-0.02 0.16,-0.03 0.32,-0.05 0.64,-0.08 0.97,-0.09 0.08,0 0.16,0 0.24,0 0.12,0 0.23,0 0.35,0.02 0.09,0 0.19,0.02 0.28,0.03 0.12,0.01 0.23,0.03 0.35,0.05 0.09,0.02 0.18,0.04 0.28,0.06 0.11,0.03 0.23,0.06 0.34,0.09 0.09,0.03 0.18,0.05 0.27,0.08 0.11,0.04 0.22,0.08 0.33,0.13 0.09,0.03 0.17,0.07 0.26,0.11 0.11,0.05 0.22,0.11 0.33,0.16 0.08,0.04 0.16,0.08 0.24,0.13 0.11,0.07 0.22,0.14 0.33,0.21 0.07,0.05 0.14,0.09 0.21,0.14 0.12,0.09 0.23,0.18 0.34,0.28 0.06,0.05 0.11,0.09 0.17,0.14 0.16,0.15 0.32,0.31 0.47,0.48 1.01,1.14 1.53,2.54 1.59,3.95 0.05,1.41 -0.37,2.83 -1.25,4 z"
       id="path1217"
       style="fill:#0b65a1;fill-opacity:1" />
    <g
       id="g1227">
      <path
         class="cls-3"
         d="M 58.76,64.46 C 58.13,63.83 57.81,63 57.81,62.17 c 0,-0.83 0.32,-1.65 0.95,-2.29 0.63,-0.63 1.46,-0.95 2.29,-0.95 0.83,0 1.65,0.32 2.29,0.95 0.63,0.63 0.95,1.46 0.95,2.29 0,0.83 -0.32,1.65 -0.95,2.29 l -1.07,1.07 h -0.34 v -3.94 c -0.07,-0.03 -0.14,-0.08 -0.19,-0.13 v 0 c -0.12,-0.12 -0.2,-0.3 -0.2,-0.48 0,-0.18 0.08,-0.36 0.2,-0.48 v 0 c 0.12,-0.12 0.29,-0.2 0.48,-0.2 0.19,0 0.36,0.08 0.48,0.2 v 0 c 0.12,0.12 0.2,0.3 0.2,0.48 0,0.18 -0.08,0.36 -0.2,0.48 -0.06,0.06 -0.12,0.1 -0.19,0.13 v 2.87 l 0.41,-0.41 c 0.52,-0.52 0.78,-1.19 0.78,-1.87 0,-0.68 -0.26,-1.35 -0.78,-1.87 -0.52,-0.52 -1.19,-0.78 -1.87,-0.78 -0.68,0 -1.35,0.26 -1.87,0.78 -0.52,0.52 -0.78,1.19 -0.78,1.87 0,0.68 0.26,1.35 0.78,1.87 l 0.41,0.41 V 63.88 C 59.52,63.85 59.45,63.8 59.4,63.75 v 0 c -0.12,-0.12 -0.2,-0.3 -0.2,-0.48 0,-0.18 0.08,-0.36 0.2,-0.48 v 0 c 0.12,-0.12 0.29,-0.2 0.48,-0.2 0.19,0 0.36,0.08 0.48,0.2 v 0 c 0.12,0.12 0.2,0.3 0.2,0.48 0,0.18 -0.08,0.36 -0.2,0.48 -0.06,0.06 -0.12,0.1 -0.19,0.13 v 1.66 h -0.34 l -1.07,-1.07 v 0 z m 3.61,-3.65 v 0 c 0,0 -0.09,-0.06 -0.15,-0.06 -0.06,0 -0.11,0.02 -0.15,0.06 -0.04,0.04 -0.06,0.09 -0.06,0.15 0,0.06 0.02,0.11 0.06,0.15 v 0 c 0,0 0.09,0.06 0.15,0.06 0.06,0 0.11,-0.02 0.15,-0.06 0.04,-0.04 0.06,-0.09 0.06,-0.15 0,-0.06 -0.02,-0.11 -0.06,-0.15 z m -2.34,2.29 v 0 c 0,0 -0.09,-0.06 -0.15,-0.06 -0.06,0 -0.11,0.02 -0.15,0.06 -0.04,0.04 -0.06,0.09 -0.06,0.15 0,0.06 0.02,0.11 0.06,0.15 v 0 c 0,0 0.09,0.06 0.15,0.06 0.06,0 0.11,-0.02 0.15,-0.06 0.04,-0.04 0.06,-0.09 0.06,-0.15 0,-0.06 -0.02,-0.11 -0.06,-0.15 z m 1.02,-1.68 c 0.19,0 0.36,0.08 0.48,0.2 v 0 c 0.12,0.12 0.2,0.3 0.2,0.48 0,0.18 -0.08,0.36 -0.2,0.48 -0.06,0.06 -0.12,0.1 -0.19,0.13 v 2.8 h -0.59 v -2.8 c -0.07,-0.03 -0.14,-0.08 -0.19,-0.13 v 0 c -0.12,-0.12 -0.2,-0.3 -0.2,-0.48 0,-0.18 0.08,-0.36 0.2,-0.48 v 0 c 0.12,-0.12 0.29,-0.2 0.48,-0.2 z m 0.15,0.53 v 0 c 0,0 -0.09,-0.06 -0.15,-0.06 -0.06,0 -0.11,0.02 -0.15,0.06 -0.04,0.04 -0.06,0.09 -0.06,0.15 0,0.06 0.02,0.11 0.06,0.15 v 0 c 0,0 0.09,0.06 0.15,0.06 0.06,0 0.11,-0.02 0.15,-0.06 0.04,-0.04 0.06,-0.09 0.06,-0.15 0,-0.06 -0.02,-0.11 -0.06,-0.15 z"
         id="path1219"
         style="fill:#737373;fill-opacity:1" />
      <path
         class="cls-3"
         d="m 59.79,65.91 h 2.52 c 0.17,0 0.3,0.13 0.3,0.3 v 0 c 0,0.16 -0.14,0.3 -0.3,0.3 h -2.52 c -0.17,0 -0.3,-0.13 -0.3,-0.3 v 0 c 0,-0.16 0.14,-0.3 0.3,-0.3 z"
         id="path1221"
         style="fill:#737373;fill-opacity:1" />
      <path
         class="cls-3"
         d="m 59.96,66.8 h 2.17 c 0.14,0 0.26,0.13 0.26,0.3 v 0 c 0,0.16 -0.12,0.3 -0.26,0.3 h -2.17 c -0.14,0 -0.26,-0.13 -0.26,-0.3 v 0 c 0,-0.16 0.12,-0.3 0.26,-0.3 z"
         id="path1223"
         style="fill:#737373;fill-opacity:1" />
      <path
         class="cls-3"
         d="m 60.35,67.71 h 1.4 c -0.06,0.34 -0.35,0.59 -0.7,0.59 -0.35,0 -0.64,-0.25 -0.7,-0.59 z"
         id="path1225"
         style="fill:#737373;fill-opacity:1" />
    </g>
  </g>
  <text
     xml:space="preserve"
     style="font-size:16px;line-height:1.25;font-family:'Roboto Condensed';-inkscape-font-specification:'Roboto Condensed, ';letter-spacing:0.13px;fill:#737373;fill-opacity:1;stroke:none"
     x="94.320297"
     y="76.811874"
     id="text25118"><tspan
       sodipodi:role="line"
       id="tspan25116"
       x="94.320297"
       y="76.811874"
       style="font-style:normal;font-variant:normal;font-weight:bold;font-stretch:normal;font-size:16px;font-family:'Segoe UI';-inkscape-font-specification:'Segoe UI Bold'"
       dx="0">Distributed malware analysis platform</tspan></text>
</svg>
