<?xml version="1.0" encoding="UTF-8" standalone="no"?>
<svg
   id="artwork"
   viewBox="0 0 385.88781 86.531997"
   version="1.1"
   sodipodi:docname="banner_dark_hollow.svg"
   inkscape:version="1.1 (c68e22c387, 2021-05-23)"
   width="385.88782"
   height="86.531998"
   xmlns:inkscape="http://www.inkscape.org/namespaces/inkscape"
   xmlns:sodipodi="http://sodipodi.sourceforge.net/DTD/sodipodi-0.dtd"
   xmlns="http://www.w3.org/2000/svg"
   xmlns:svg="http://www.w3.org/2000/svg">
  <sodipodi:namedview
     id="namedview1232"
     pagecolor="#505050"
     bordercolor="#eeeeee"
     borderopacity="1"
     inkscape:pageshadow="0"
     inkscape:pageopacity="0"
     inkscape:pagecheckerboard="0"
     showgrid="false"
     inkscape:zoom="10.740794"
     inkscape:cx="80.859944"
     inkscape:cy="41.198072"
     inkscape:window-width="2560"
     inkscape:window-height="1369"
     inkscape:window-x="6392"
     inkscape:window-y="-8"
     inkscape:window-maximized="1"
     inkscape:current-layer="artwork"
     fit-margin-top="0"
     fit-margin-left="0"
     fit-margin-right="0"
     fit-margin-bottom="0"
     lock-margins="true" />
  <defs
     id="defs1167">
    <style
       id="style1152">
      .cls-1 {
        fill: #4d4d4d;
      }

      .cls-1, .cls-2, .cls-3, .cls-4, .cls-5 {
        stroke-width: 0px;
      }

      .cls-2 {
        fill: #0e4377;
      }

      .cls-3 {
        fill: #1976d2;
      }

      .cls-4 {
        fill: #fff;
      }

      .cls-5 {
        fill: url(#radial-gradient);
      }
    </style>
    <radialGradient
       id="radial-gradient"
       cx="38.880001"
       cy="32.040001"
       fx="38.880001"
       fy="32.040001"
       r="32.040001"
       gradientUnits="userSpaceOnUse"
       gradientTransform="matrix(1.2,0,0,1.2,-0.01139527,0)">
      <stop
         offset="0"
         stop-color="#1976d2"
         id="stop1154"
         style="stop-color:#748cbe;stop-opacity:1" />
      <stop
         offset=".51"
         stop-color="#1874d0"
         id="stop1156"
         style="stop-color:#6d87bb;stop-opacity:1" />
      <stop
         offset=".7"
         stop-color="#1871c9"
         id="stop1158"
         style="stop-color:#788fbf;stop-opacity:1" />
      <stop
         offset=".83"
         stop-color="#166abd"
         id="stop1160"
         style="stop-color:#7e95c3;stop-opacity:1" />
      <stop
         offset=".93"
         stop-color="#1461ac"
         id="stop1162"
         style="stop-color:#859ec6;stop-opacity:1" />
      <stop
         offset="1"
         stop-color="#13599e"
         id="stop1164"
         style="stop-color:#8ca2c9;stop-opacity:1" />
    </radialGradient>
  </defs>
  <g
     id="g91781"
     transform="translate(7.081554,7.211)">
    <path
       class="cls-1"
       d="m 102.15,16.46 h 6.45 l 13.62,32 h -7.31 L 112,41.33 H 98.56 l -2.91,7.13 h -7.13 l 13.62,-32 z m 7.35,18.7 -4.22,-10.3 -4.22,10.3 z"
       id="path1169"
       style="fill:#a6a6a6;fill-opacity:1" />
    <path
       class="cls-1"
       d="m 123.35,45.24 2.95,-4.54 c 2.63,1.91 5.4,2.91 7.67,2.91 2,0 2.91,-0.73 2.91,-1.82 V 41.7 c 0,-1.5 -2.36,-2 -5.04,-2.81 -3.4,-1 -7.26,-2.59 -7.26,-7.31 v -0.09 c 0,-4.95 4,-7.72 8.9,-7.72 3.09,0 6.45,1.04 9.08,2.81 l -2.63,4.77 c -2.41,-1.41 -4.81,-2.27 -6.58,-2.27 -1.77,0 -2.54,0.73 -2.54,1.68 v 0.09 c 0,1.36 2.32,2 4.95,2.91 3.4,1.13 7.35,2.77 7.35,7.22 v 0.09 c 0,5.4 -4.04,7.85 -9.31,7.85 -3.4,0 -7.22,-1.14 -10.44,-3.68 z"
       id="path1171"
       style="fill:#a6a6a6;fill-opacity:1" />
    <path
       class="cls-1"
       d="m 144.56,45.24 2.95,-4.54 c 2.63,1.91 5.4,2.91 7.67,2.91 2,0 2.91,-0.73 2.91,-1.82 V 41.7 c 0,-1.5 -2.36,-2 -5.04,-2.81 -3.4,-1 -7.26,-2.59 -7.26,-7.31 v -0.09 c 0,-4.95 4,-7.72 8.9,-7.72 3.09,0 6.45,1.04 9.08,2.81 l -2.63,4.77 c -2.41,-1.41 -4.81,-2.27 -6.58,-2.27 -1.77,0 -2.54,0.73 -2.54,1.68 v 0.09 c 0,1.36 2.32,2 4.95,2.91 3.4,1.13 7.35,2.77 7.35,7.22 v 0.09 c 0,5.4 -4.04,7.85 -9.31,7.85 -3.4,0 -7.22,-1.14 -10.44,-3.68 z"
       id="path1173"
       style="fill:#a6a6a6;fill-opacity:1" />
    <path
       class="cls-1"
       d="m 166.94,36.43 v -0.09 c 0,-6.95 4.95,-12.67 12.03,-12.67 8.13,0 11.85,6.31 11.85,13.21 0,0.54 -0.05,1.18 -0.09,1.82 H 173.8 c 0.68,3.13 2.86,4.77 5.95,4.77 2.31,0 3.99,-0.73 5.9,-2.5 l 3.95,3.5 c -2.27,2.81 -5.54,4.54 -9.94,4.54 -7.31,0 -12.71,-5.13 -12.71,-12.57 z m 17.16,-2.04 c -0.41,-3.09 -2.22,-5.18 -5.13,-5.18 -2.91,0 -4.72,2.04 -5.27,5.18 z"
       id="path1175"
       style="fill:#a6a6a6;fill-opacity:1" />
    <path
       class="cls-1"
       d="m 194.81,24.13 h 6.9 v 3.45 c 1.59,-2.04 3.68,-3.9 7.17,-3.9 3.18,0 5.58,1.41 6.85,3.86 2.13,-2.5 4.68,-3.86 7.99,-3.86 5.13,0 8.22,3.09 8.22,8.94 v 15.84 h -6.9 V 34.89 c 0,-3.27 -1.45,-4.95 -4.04,-4.95 -2.59,0 -4.18,1.68 -4.18,4.95 v 13.57 h -6.9 V 34.89 c 0,-3.27 -1.45,-4.95 -4.04,-4.95 -2.59,0 -4.18,1.68 -4.18,4.95 v 13.57 h -6.9 V 24.13 Z"
       id="path1177"
       style="fill:#a6a6a6;fill-opacity:1" />
    <path
       class="cls-1"
       d="m 243.71,45.28 v 3.18 h -6.9 V 15.32 h 6.9 v 12.3 c 1.68,-2.27 3.99,-3.95 7.58,-3.95 5.67,0 11.08,4.45 11.08,12.57 v 0.09 c 0,8.13 -5.31,12.57 -11.08,12.57 -3.68,0 -5.95,-1.68 -7.58,-3.63 z m 11.76,-8.94 v -0.09 c 0,-4.04 -2.72,-6.72 -5.95,-6.72 -3.23,0 -5.9,2.68 -5.9,6.72 v 0.09 c 0,4.04 2.68,6.72 5.9,6.72 3.22,0 5.95,-2.63 5.95,-6.72 z"
       id="path1179"
       style="fill:#a6a6a6;fill-opacity:1" />
    <path
       class="cls-1"
       d="m 266.63,15.32 h 6.9 v 33.14 h -6.9 z"
       id="path1181"
       style="fill:#a6a6a6;fill-opacity:1" />
    <path
       class="cls-1"
       d="m 305.15273,15.152918 h 6.9 v 33.14 h -6.9 z"
       id="path1181-7"
       style="fill:#a6a6a6;fill-opacity:1;stroke-width:0px" />
    <path
       class="cls-1"
       d="m 278.57,54.18 2.32,-4.99 c 0.91,0.54 2.04,0.95 2.95,0.95 1.18,0 1.82,-0.36 2.41,-1.59 l -9.53,-24.42 h 7.31 l 5.54,16.57 5.31,-16.57 h 7.17 l -9.35,24.92 c -1.86,4.95 -3.86,6.81 -7.99,6.81 -2.5,0 -4.36,-0.64 -6.13,-1.68 z"
       id="path1183"
       style="fill:#a6a6a6;fill-opacity:1" />
    <path
       class="cls-1"
       d="m 316.51627,15.32 h 7.26 v 6.13 h -7.26 z m 0.18,8.81 h 6.9 v 24.33 h -6.9 z"
       id="path1187"
       style="fill:#a6a6a6;fill-opacity:1" />
    <path
       class="cls-1"
       d="m 328.95627,24.13 h 6.9 v 3.45 c 1.59,-2.04 3.63,-3.9 7.13,-3.9 5.22,0 8.26,3.45 8.26,9.03 v 15.75 h -6.9 V 34.89 c 0,-3.27 -1.54,-4.95 -4.18,-4.95 -2.64,0 -4.31,1.68 -4.31,4.95 v 13.57 h -6.9 z"
       id="path1189"
       style="fill:#a6a6a6;fill-opacity:1" />
    <path
       class="cls-1"
       d="m 354.92627,36.43 v -0.09 c 0,-6.95 4.95,-12.67 12.03,-12.67 8.13,0 11.85,6.31 11.85,13.21 0,0.54 -0.04,1.18 -0.09,1.82 h -16.93 c 0.68,3.13 2.86,4.77 5.95,4.77 2.32,0 4,-0.73 5.9,-2.5 l 3.95,3.5 c -2.27,2.81 -5.54,4.54 -9.94,4.54 -7.31,0 -12.71,-5.13 -12.71,-12.57 z m 17.16,-2.04 c -0.41,-3.09 -2.22,-5.18 -5.13,-5.18 -2.91,0 -4.72,2.04 -5.27,5.18 z"
       id="path1191"
       style="fill:#a6a6a6;fill-opacity:1" />
  </g>
  <path
     id="path1195"
     style="fill:url(#radial-gradient)"
     class="cls-5"
     d="M 46.644531 0 C 25.416531 0 8.1972656 17.207266 8.1972656 38.447266 C 8.1972656 46.677636 10.78859 54.297625 15.189453 60.550781 L 15.212891 60.291016 C 15.243007 59.974444 15.529357 59.898438 15.634766 59.898438 L 16.554688 59.898438 L 25.964844 59.898438 L 25.980469 59.898438 L 35.392578 59.898438 L 36.310547 59.898438 C 36.415959 59.898438 36.687242 59.974442 36.732422 60.291016 L 38.388672 74.808594 C 38.403731 74.899041 38.494201 74.974609 38.599609 74.974609 L 40.708984 74.974609 C 41.115572 74.974609 41.429532 75.125331 41.431641 75.5625 L 41.435547 76.535156 C 43.139846 76.765972 44.876768 76.896484 46.644531 76.896484 C 51.696531 76.896484 56.507828 75.912436 60.923828 74.148438 C 61.403828 71.472437 62.735922 68.916656 64.919922 66.972656 C 67.211922 64.932656 70.176047 63.804688 73.248047 63.804688 C 73.956047 63.804688 74.665328 63.876094 75.361328 63.996094 C 81.409328 57.204094 85.091797 48.251266 85.091797 38.447266 C 85.091797 17.207266 67.872531 4.7369516e-15 46.644531 0 z M 37.998047 8.8242188 C 40.425246 8.778287 42.832012 9.8983509 44.337891 12.037109 C 44.352951 12.052192 44.351562 12.066406 44.351562 12.066406 L 61.203125 11.810547 C 61.564536 11.599498 61.970933 11.418031 62.392578 11.3125 C 64.982688 10.634128 67.617277 12.172181 68.294922 14.75 C 68.596098 15.850472 68.476332 16.951218 68.054688 17.916016 L 68.025391 17.900391 L 68.837891 23.673828 L 61.759766 24.517578 L 61.113281 20.101562 C 60.781988 19.905589 60.480043 19.663928 60.208984 19.392578 L 44.578125 20.373047 C 44.442595 20.584097 44.306837 20.780589 44.15625 20.976562 L 48.402344 34.060547 C 48.447512 34.105773 48.493316 34.152042 48.523438 34.197266 C 50.676842 36.940908 50.526338 40.829835 48.162109 43.392578 L 35.015625 56.613281 L 35.708984 56.613281 C 36.371574 56.613281 36.460938 57.111328 36.460938 57.111328 L 36.460938 58.40625 L 15.439453 58.40625 L 15.439453 57.111328 C 15.439453 57.111328 15.530773 56.613281 16.193359 56.613281 L 17.066406 56.613281 L 17.066406 48.441406 C 17.066406 45.562089 18.691961 42.925353 21.251953 41.628906 L 35.783203 34.271484 L 34.113281 22.800781 C 33.285049 22.288233 32.546277 21.594198 31.958984 20.75 C 29.564639 17.327984 30.378531 12.609259 33.796875 10.197266 C 35.078753 9.29842 36.541728 8.8517777 37.998047 8.8242188 z M 69.800781 24.820312 C 69.876069 24.820312 69.9375 24.925781 69.9375 24.925781 L 70.103516 26.3125 C 70.118563 26.357724 70.042969 26.433594 70.042969 26.433594 L 71.744141 26.236328 C 71.774261 26.236328 71.820312 26.251953 71.820312 26.251953 L 72.287109 26.539062 C 72.308112 26.560088 72.323194 26.5897 72.333984 26.609375 L 72.332031 26.583984 L 72.345703 26.628906 C 72.345703 26.628906 72.338669 26.617916 72.333984 26.609375 L 72.693359 29.628906 C 72.708419 29.65906 72.662109 29.71875 72.662109 29.71875 L 72.287109 30.095703 C 72.257002 30.125857 72.210938 30.126953 72.210938 30.126953 L 64.275391 31.060547 C 64.320559 31.075617 64.349609 31.150391 64.349609 31.150391 L 65.193359 38.296875 C 65.208421 38.35717 65.330078 38.402344 65.330078 38.402344 L 65.675781 38.357422 C 65.751071 38.357422 65.810547 38.462891 65.810547 38.462891 L 66.263672 42.277344 C 66.263672 42.352712 66.158203 42.412109 66.158203 42.412109 L 65.193359 42.533203 C 65.07289 42.548277 64.952241 42.488332 64.876953 42.382812 L 61.986328 37.830078 C 61.775505 37.498429 61.63893 37.106792 61.59375 36.714844 L 60.992188 31.574219 C 60.977127 31.528982 61.037109 31.46875 61.037109 31.46875 L 60.179688 31.574219 C 60.149566 31.574219 60.103516 31.558594 60.103516 31.558594 L 59.636719 31.271484 C 59.606599 31.241331 59.576172 31.181641 59.576172 31.181641 L 59.214844 28.136719 C 59.214844 28.106565 59.246094 28.044922 59.246094 28.044922 L 59.621094 27.669922 C 59.651202 27.639768 59.697266 27.638672 59.697266 27.638672 L 61.398438 27.443359 C 61.338209 27.443359 61.292969 27.351562 61.292969 27.351562 L 61.126953 25.964844 C 61.126953 25.889464 61.232422 25.830078 61.232422 25.830078 L 69.800781 24.820312 z M 71.353516 31.376953 C 71.353516 31.376953 71.473221 31.422115 71.488281 31.482422 L 71.939453 35.373047 C 71.984633 35.764996 71.940781 36.171955 71.820312 36.548828 L 70.072266 41.658203 C 70.027085 41.778805 69.921251 41.869691 69.800781 41.884766 L 68.837891 42.005859 C 68.837891 42.005859 68.718186 41.960685 68.703125 41.900391 L 68.25 38.085938 C 68.25 38.085938 68.295241 37.964292 68.355469 37.949219 L 68.703125 37.904297 C 68.703125 37.904297 68.801169 37.847864 68.806641 37.775391 L 68.115234 31.890625 C 68.115234 31.890625 68.160475 31.768978 68.220703 31.753906 L 71.353516 31.376953 z " />
  <g
     id="g92492"
     transform="matrix(1.2405354,0,0,1.2242582,-3.6118437,-1.6304519)">
    <path
       class="cls-2"
       d="m 29.916198,62.291641 c 2.598638,1.005794 3.803263,1.107139 6.396729,1.564531 l -0.01594,-0.803606 c -0.0071,-0.357021 -0.254917,-0.480228 -0.582669,-0.480228 H 34.01487 c -0.08497,0 -0.157806,-0.06157 -0.169945,-0.135449 L 32.509643,50.578944 c -0.03642,-0.258584 -0.254917,-0.320152 -0.33989,-0.320152 h -0.740475 -1.517367"
       id="path1203"
       style="fill:#384457;fill-opacity:1"
       sodipodi:nodetypes="ccsssccscc" />
    <path
       class="cls-2"
       d="m 31.465695,16.310346 c -0.861865,-1.243669 -0.57053,-2.955251 0.655502,-3.829513 1.226033,-0.874262 2.913345,-0.578737 3.775209,0.664931 0.861865,1.243668 0.57053,2.955251 -0.655502,3.829513 -1.226033,0.874262 -2.913345,0.578737 -3.775209,-0.664931 z"
       id="path1205"
       style="fill:#384457;fill-opacity:1"
       sodipodi:nodetypes="sssss" />
    <path
       class="cls-2"
       d="m 40.788398,33.142963 c -0.242779,1.810091 -1.881535,3.0907 -3.665959,2.844429 -1.784424,-0.246271 -3.046873,-1.9086 -2.804094,-3.718691 0.242778,-1.810091 1.881535,-3.0907 3.665958,-2.844429 1.784424,0.246271 3.046873,1.9086 2.804095,3.718691 z"
       id="path1207"
       style="fill:#384457;fill-opacity:1"
       sodipodi:nodetypes="sssss" />
    <path
       class="cls-2"
       d="m 54.614646,15.965566 c -0.861865,0.233958 -1.735868,-0.295525 -1.954369,-1.157473 -0.23064,-0.874262 0.291334,-1.760837 1.14106,-1.982481 0.861864,-0.233957 1.735868,0.295525 1.954369,1.157473 0.230639,0.874262 -0.291335,1.760837 -1.14106,1.982481 z"
       id="path1209"
       style="fill:#384457;fill-opacity:1"
       sodipodi:nodetypes="ccccc" />
    <path
       class="cls-2"
       d="m 58.936107,35.568732 0.23064,-0.02463 c 0.09711,0 0.182084,-0.08619 0.218501,-0.184703 l 1.408116,-4.174292 c 0.109251,-0.307838 0.133528,-0.640304 0.09711,-0.960456 l -0.364168,-3.176895 c 0,0 -0.04856,-0.0862 -0.109251,-0.0862 l -0.764753,0.0862 0.485558,3.312344 c 0,0 0,0.08619 0.06069,0.849634 -0.145667,0.788067 -1.274588,4.358996 -1.274588,4.358996 z"
       id="path1213"
       style="fill:#384457;fill-opacity:1"
       sodipodi:nodetypes="cccccccccccc" />
  </g>
  <path
     class="cls-3"
     d="m 80.856604,69.576 c -1.932,-2.172 -4.704,-3.42 -7.62,-3.42 -2.496,0 -4.896,0.912 -6.768,2.568 -3.216,2.856 -4.188,7.32 -2.784,11.136 -7.812,3.132 -16.368,3.984 -24.828,2.376 C 27.168604,80.004 17.052605,73.356 10.368605,63.528 3.1446047,52.86 0.87660473,39.6 4.1646047,27.132 c 0.192,-0.72 -0.24,-1.464 -0.96,-1.644 -0.72,-0.192 -1.464,0.24 -1.644,0.96 -3.48,13.224 -1.07999997,27.288 6.6000003,38.592 7.092,10.44 17.819999,17.484 30.203999,19.848 2.988,0.564 5.976,0.852 8.952,0.852 6.072,0 12.036,-1.188 17.64,-3.48 0.204,0.288 0.432,0.576 0.672,0.852 1.932,2.172 4.704,3.42 7.62,3.42 2.496,0 4.896,-0.912 6.756,-2.568 2.028,-1.812 3.24,-4.296 3.408,-7.008 0.156,-2.712 -0.744,-5.328 -2.556,-7.368 z m -1.56,11.292 c -0.3,0.408 -0.648,0.78 -1.032,1.128 -0.336,0.3 -0.696,0.564 -1.068,0.792 -0.036,0.024 -0.072,0.048 -0.096,0.06 -0.36,0.216 -0.732,0.384 -1.104,0.528 -0.06,0.024 -0.108,0.048 -0.168,0.06 -0.372,0.132 -0.756,0.24 -1.14,0.312 -0.06,0.012 -0.132,0.024 -0.192,0.036 -0.384,0.06 -0.768,0.096 -1.164,0.108 -0.096,0 -0.192,0 -0.288,0 -0.144,0 -0.276,0 -0.42,-0.024 -0.108,0 -0.228,-0.024 -0.336,-0.036 -0.144,-0.012 -0.276,-0.036 -0.42,-0.06 -0.108,-0.024 -0.216,-0.048 -0.336,-0.072 -0.132,-0.036 -0.276,-0.072 -0.408,-0.108 -0.108,-0.036 -0.216,-0.06 -0.324,-0.096 -0.132,-0.048 -0.264,-0.096 -0.396,-0.156 -0.108,-0.036 -0.204,-0.084 -0.312,-0.132 -0.132,-0.06 -0.264,-0.132 -0.396,-0.204 -0.096,-0.048 -0.192,-0.096 -0.288,-0.156 -0.132,-0.084 -0.264,-0.168 -0.396,-0.252 -0.084,-0.06 -0.168,-0.108 -0.252,-0.168 -0.144,-0.108 -0.276,-0.216 -0.408,-0.336 -0.072,-0.06 -0.132,-0.108 -0.204,-0.168 -0.192,-0.18 -0.384,-0.372 -0.564,-0.576 -1.56,-1.752 -2.148,-4.032 -1.812,-6.192 0.036,-0.24 0.084,-0.48 0.144,-0.708 0.36,-1.416 1.128,-2.736 2.304,-3.768 0,0 0,0 0,0 0.336,-0.3 0.696,-0.564 1.068,-0.792 0.036,-0.024 0.072,-0.048 0.108,-0.072 0.36,-0.216 0.732,-0.384 1.104,-0.528 0.06,-0.024 0.108,-0.048 0.168,-0.06 0.372,-0.132 0.756,-0.24 1.14,-0.312 0.06,-0.012 0.132,-0.024 0.192,-0.036 0.384,-0.06 0.768,-0.096 1.164,-0.108 0.096,0 0.192,0 0.288,0 0.144,0 0.276,0 0.42,0.024 0.108,0 0.228,0.024 0.336,0.036 0.144,0.012 0.276,0.036 0.42,0.06 0.108,0.024 0.216,0.048 0.336,0.072 0.132,0.036 0.276,0.072 0.408,0.108 0.108,0.036 0.216,0.06 0.324,0.096 0.132,0.048 0.264,0.096 0.396,0.156 0.108,0.036 0.204,0.084 0.312,0.132 0.132,0.06 0.264,0.132 0.396,0.192 0.096,0.048 0.192,0.096 0.288,0.156 0.132,0.084 0.264,0.168 0.396,0.252 0.084,0.06 0.168,0.108 0.252,0.168 0.144,0.108 0.276,0.216 0.408,0.336 0.072,0.06 0.132,0.108 0.204,0.168 0.192,0.18 0.384,0.372 0.564,0.576 1.212,1.368 1.836,3.048 1.908,4.74 0.06,1.692 -0.444,3.396 -1.5,4.8 z"
     id="path1217"
     style="fill:#83a0d2;fill-opacity:1" />
  <g
     id="g1227"
     transform="matrix(1.2,0,0,1.2,-0.01139527,0)">
    <path
       class="cls-3"
       d="M 58.76,64.46 C 58.13,63.83 57.81,63 57.81,62.17 c 0,-0.83 0.32,-1.65 0.95,-2.29 0.63,-0.63 1.46,-0.95 2.29,-0.95 0.83,0 1.65,0.32 2.29,0.95 0.63,0.63 0.95,1.46 0.95,2.29 0,0.83 -0.32,1.65 -0.95,2.29 l -1.07,1.07 h -0.34 v -3.94 c -0.07,-0.03 -0.14,-0.08 -0.19,-0.13 v 0 c -0.12,-0.12 -0.2,-0.3 -0.2,-0.48 0,-0.18 0.08,-0.36 0.2,-0.48 v 0 c 0.12,-0.12 0.29,-0.2 0.48,-0.2 0.19,0 0.36,0.08 0.48,0.2 v 0 c 0.12,0.12 0.2,0.3 0.2,0.48 0,0.18 -0.08,0.36 -0.2,0.48 -0.06,0.06 -0.12,0.1 -0.19,0.13 v 2.87 l 0.41,-0.41 c 0.52,-0.52 0.78,-1.19 0.78,-1.87 0,-0.68 -0.26,-1.35 -0.78,-1.87 -0.52,-0.52 -1.19,-0.78 -1.87,-0.78 -0.68,0 -1.35,0.26 -1.87,0.78 -0.52,0.52 -0.78,1.19 -0.78,1.87 0,0.68 0.26,1.35 0.78,1.87 l 0.41,0.41 V 63.88 C 59.52,63.85 59.45,63.8 59.4,63.75 v 0 c -0.12,-0.12 -0.2,-0.3 -0.2,-0.48 0,-0.18 0.08,-0.36 0.2,-0.48 v 0 c 0.12,-0.12 0.29,-0.2 0.48,-0.2 0.19,0 0.36,0.08 0.48,0.2 v 0 c 0.12,0.12 0.2,0.3 0.2,0.48 0,0.18 -0.08,0.36 -0.2,0.48 -0.06,0.06 -0.12,0.1 -0.19,0.13 v 1.66 h -0.34 l -1.07,-1.07 v 0 z m 3.61,-3.65 v 0 c 0,0 -0.09,-0.06 -0.15,-0.06 -0.06,0 -0.11,0.02 -0.15,0.06 -0.04,0.04 -0.06,0.09 -0.06,0.15 0,0.06 0.02,0.11 0.06,0.15 v 0 c 0,0 0.09,0.06 0.15,0.06 0.06,0 0.11,-0.02 0.15,-0.06 0.04,-0.04 0.06,-0.09 0.06,-0.15 0,-0.06 -0.02,-0.11 -0.06,-0.15 z m -2.34,2.29 v 0 c 0,0 -0.09,-0.06 -0.15,-0.06 -0.06,0 -0.11,0.02 -0.15,0.06 -0.04,0.04 -0.06,0.09 -0.06,0.15 0,0.06 0.02,0.11 0.06,0.15 v 0 c 0,0 0.09,0.06 0.15,0.06 0.06,0 0.11,-0.02 0.15,-0.06 0.04,-0.04 0.06,-0.09 0.06,-0.15 0,-0.06 -0.02,-0.11 -0.06,-0.15 z m 1.02,-1.68 c 0.19,0 0.36,0.08 0.48,0.2 v 0 c 0.12,0.12 0.2,0.3 0.2,0.48 0,0.18 -0.08,0.36 -0.2,0.48 -0.06,0.06 -0.12,0.1 -0.19,0.13 v 2.8 h -0.59 v -2.8 c -0.07,-0.03 -0.14,-0.08 -0.19,-0.13 v 0 c -0.12,-0.12 -0.2,-0.3 -0.2,-0.48 0,-0.18 0.08,-0.36 0.2,-0.48 v 0 c 0.12,-0.12 0.29,-0.2 0.48,-0.2 z m 0.15,0.53 v 0 c 0,0 -0.09,-0.06 -0.15,-0.06 -0.06,0 -0.11,0.02 -0.15,0.06 -0.04,0.04 -0.06,0.09 -0.06,0.15 0,0.06 0.02,0.11 0.06,0.15 v 0 c 0,0 0.09,0.06 0.15,0.06 0.06,0 0.11,-0.02 0.15,-0.06 0.04,-0.04 0.06,-0.09 0.06,-0.15 0,-0.06 -0.02,-0.11 -0.06,-0.15 z"
       id="path1219"
       style="fill:#a6a6a6;fill-opacity:1" />
    <path
       class="cls-3"
       d="m 59.79,65.91 h 2.52 c 0.17,0 0.3,0.13 0.3,0.3 v 0 c 0,0.16 -0.14,0.3 -0.3,0.3 h -2.52 c -0.17,0 -0.3,-0.13 -0.3,-0.3 v 0 c 0,-0.16 0.14,-0.3 0.3,-0.3 z"
       id="path1221"
       style="fill:#a6a6a6;fill-opacity:1" />
    <path
       class="cls-3"
       d="m 59.96,66.8 h 2.17 c 0.14,0 0.26,0.13 0.26,0.3 v 0 c 0,0.16 -0.12,0.3 -0.26,0.3 h -2.17 c -0.14,0 -0.26,-0.13 -0.26,-0.3 v 0 c 0,-0.16 0.12,-0.3 0.26,-0.3 z"
       id="path1223"
       style="fill:#a6a6a6;fill-opacity:1" />
    <path
       class="cls-3"
       d="m 60.35,67.71 h 1.4 c -0.06,0.34 -0.35,0.59 -0.7,0.59 -0.35,0 -0.64,-0.25 -0.7,-0.59 z"
       id="path1225"
       style="fill:#a6a6a6;fill-opacity:1" />
  </g>
</svg>
