<?xml version="1.0" encoding="UTF-8" standalone="no"?>
<!-- Created with Inkscape (http://www.inkscape.org/) -->

<svg
   width="18.76174mm"
   height="19.07913mm"
   viewBox="0 0 18.76174 19.07913"
   version="1.1"
   id="svg43979"
   inkscape:version="1.1 (c68e22c387, 2021-05-23)"
   sodipodi:docname="logo_dark.svg"
   xmlns:inkscape="http://www.inkscape.org/namespaces/inkscape"
   xmlns:sodipodi="http://sodipodi.sourceforge.net/DTD/sodipodi-0.dtd"
   xmlns="http://www.w3.org/2000/svg"
   xmlns:svg="http://www.w3.org/2000/svg">
  <sodipodi:namedview
     id="namedview43981"
     pagecolor="#505050"
     bordercolor="#eeeeee"
     borderopacity="1"
     inkscape:pageshadow="0"
     inkscape:pageopacity="0"
     inkscape:pagecheckerboard="0"
     inkscape:document-units="mm"
     showgrid="false"
     fit-margin-top="0"
     fit-margin-left="0"
     fit-margin-right="0"
     fit-margin-bottom="0"
     inkscape:zoom="12.443434"
     inkscape:cx="22.863463"
     inkscape:cy="32.828558"
     inkscape:window-width="2560"
     inkscape:window-height="1369"
     inkscape:window-x="3832"
     inkscape:window-y="-8"
     inkscape:window-maximized="1"
     inkscape:current-layer="layer1" />
  <defs
     id="defs43976">
    <radialGradient
       id="radial-gradient"
       cx="38.880001"
       cy="32.040001"
       fx="38.880001"
       fy="32.040001"
       r="32.040001"
       gradientUnits="userSpaceOnUse"
       gradientTransform="matrix(0.26458333,0,0,0.26458333,187.596,273.512)">
      <stop
         offset="0"
         stop-color="#1976d2"
         id="stop1154"
         style="stop-color:#65789a;stop-opacity:1" />
      <stop
         offset=".51"
         stop-color="#1874d0"
         id="stop1156"
         style="stop-color:#5f7191;stop-opacity:1" />
      <stop
         offset=".7"
         stop-color="#1871c9"
         id="stop1158"
         style="stop-color:#5b6d8a;stop-opacity:1" />
      <stop
         offset=".83"
         stop-color="#166abd"
         id="stop1160"
         style="stop-color:#5b6c8b;stop-opacity:1" />
      <stop
         offset=".93"
         stop-color="#1461ac"
         id="stop1162"
         style="stop-color:#576884;stop-opacity:1" />
      <stop
         offset="1"
         stop-color="#13599e"
         id="stop1164"
         style="stop-color:#53637e;stop-opacity:1" />
    </radialGradient>
  </defs>
  <g
     inkscape:label="Layer 1"
     inkscape:groupmode="layer"
     id="layer1"
     transform="translate(-187.59851,-273.51197)">
    <path
       class="cls-5"
       d="m 201.91261,288.2784 c 0.50535,-0.4498 1.15887,-0.6985 1.83621,-0.6985 v 0 c 0.1561,0 0.3122,0.0159 0.46566,0.0423 1.3335,-1.49754 2.14577,-3.47133 2.14577,-5.63298 0,-4.68313 -3.79677,-8.47725 -8.47725,-8.47725 -4.68048,0 -8.47725,3.79412 -8.47725,8.47725 0,4.68312 3.79413,8.47725 8.47725,8.47725 1.1139,0 2.17488,-0.21696 3.14855,-0.6059 0.10583,-0.59002 0.39952,-1.15358 0.88106,-1.5822 z"
       id="path1195"
       style="fill:url(#radial-gradient);stroke-width:0px" />
    <g
       id="g92492"
       transform="matrix(0.27352082,0,0,0.26993193,186.80215,273.15251)">
      <path
         class="cls-4"
         d="m 57.770769,15.965566 c 0.33989,-0.788067 0.437002,-1.686955 0.194223,-2.585844 -0.546252,-2.105617 -2.670566,-3.361598 -4.758463,-2.807489 -0.33989,0.0862 -0.667641,0.233958 -0.958976,0.406347 l -13.583469,0.20933 c 0,0 0,-0.01231 -0.01214,-0.02463 -1.94223,-2.7951746 -5.741717,-3.460106 -8.497255,-1.5022522 -2.755539,1.9701672 -3.411041,5.8243072 -1.480951,8.6194822 0.473419,0.689559 1.068227,1.255982 1.735868,1.674642 l 1.347422,9.370609 -11.714073,6.00901 c -2.063619,1.058965 -3.374624,3.213836 -3.374624,5.565723 v 6.673942 h -0.704059 c -0.534113,0 -0.606946,0.406347 -0.606946,0.406347 v 1.058965 H 32.30328 v -1.058965 c 0,0 -0.07283,-0.406347 -0.606946,-0.406347 h -0.558392 l 10.597292,-10.79898 c 1.905813,-2.093303 2.027202,-5.270198 0.291334,-7.511263 -0.02428,-0.03694 -0.0607,-0.07388 -0.09711,-0.110822 l -3.42318,-10.688158 c 0.121389,-0.160076 0.230639,-0.320152 0.33989,-0.492542 l 12.600215,-0.80038 c 0.218501,0.221644 0.46128,0.41866 0.728337,0.578736 l 0.521974,3.607869 5.7053,-0.689558 -0.655503,-4.716088 z"
         id="path1197"
         style="fill:#e89530;fill-opacity:1"
         sodipodi:nodetypes="cccccccccccscsccccscccccccccccc" />
      <path
         class="cls-4"
         d="m 61.230366,23.082796 c 0,0 -0.02428,-0.04925 -0.04856,-0.07388 l -0.376307,-0.233958 c 0,0 -0.03642,-0.01231 -0.0607,-0.01231 L 59.3731,22.922724 c 0,0 0.06069,-0.06157 0.04856,-0.09851 l -0.133528,-1.132846 c 0,0 -0.04856,-0.0862 -0.10925,-0.0862 l -6.907055,0.825008 c 0,0 -0.08497,0.04925 -0.08497,0.110822 l 0.133529,1.132846 c 0,0 0.03642,0.07388 0.08497,0.07388 L 51.033657,23.9078 c 0,0 -0.03642,0 -0.06069,0.02463 l -0.303474,0.307838 c 0,0 -0.02428,0.04925 -0.02428,0.07388 l 0.291334,2.487336 c 0,0 0.02428,0.04925 0.04856,0.07388 l 0.376307,0.233957 c 0,0 0.03642,0.01231 0.0607,0.01231 l 0.691919,-0.0862 c 0,0 -0.04856,0.04925 -0.03642,0.0862 l 0.485558,4.198919 c 0.03642,0.320152 0.145667,0.640305 0.315612,0.911203 l 2.330676,3.71869 c 0.06069,0.08619 0.157806,0.135449 0.254917,0.123136 l 0.776892,-0.09851 c 0,0 0.08497,-0.04926 0.08497,-0.110822 l -0.36417,-3.115317 c 0,0 -0.04856,-0.0862 -0.109251,-0.0862 l -0.279195,0.03694 c 0,0 -0.09711,-0.03694 -0.109251,-0.08619 l -0.67978,-5.836621 c 0,0 -0.02428,-0.06157 -0.06069,-0.07388 L 61.12112,25.93954 c 0,0 0.03642,0 0.06069,-0.02463 l 0.303473,-0.307838 c 0,0 0.03642,-0.04925 0.02428,-0.07388 l -0.291334,-2.487337 z"
         id="path1199"
         style="fill:#555555;fill-opacity:1"
         sodipodi:nodetypes="cccccccccccccccccccccccccscccccccccccccc" />
      <path
         class="cls-4"
         d="m 23.842443,50.258792 h -7.586835 -0.740475 c -0.08497,0 -0.315613,0.06157 -0.33989,0.320152 l -0.01992,0.21799 c 4.330679,6.420001 12.054586,11.911619 21.157604,13.059238 l -0.0038,-0.803608 c -0.0017,-0.357089 -0.254917,-0.480228 -0.582669,-0.480228 h -1.69945 c -0.08497,0 -0.157806,-0.06157 -0.169945,-0.135449 L 32.521782,50.578944 c -0.03642,-0.258584 -0.254917,-0.320152 -0.33989,-0.320152 h -0.740475 -7.586835 z"
         id="path1201"
         style="fill:#555555;fill-opacity:1"
         sodipodi:nodetypes="ccscccsssccsccc" />
      <path
         class="cls-2"
         d="m 29.916198,62.291641 c 2.598638,1.005794 3.803263,1.107139 6.396729,1.564531 l -0.01594,-0.803606 c -0.0071,-0.357021 -0.254917,-0.480228 -0.582669,-0.480228 H 34.01487 c -0.08497,0 -0.157806,-0.06157 -0.169945,-0.135449 L 32.509643,50.578944 c -0.03642,-0.258584 -0.254917,-0.320152 -0.33989,-0.320152 h -0.740475 -1.517367"
         id="path1203"
         style="fill:#303030;fill-opacity:1"
         sodipodi:nodetypes="ccsssccscc" />
      <path
         class="cls-2"
         d="m 31.465695,16.310346 c -0.861865,-1.243669 -0.57053,-2.955251 0.655502,-3.829513 1.226033,-0.874262 2.913345,-0.578737 3.775209,0.664931 0.861865,1.243668 0.57053,2.955251 -0.655502,3.829513 -1.226033,0.874262 -2.913345,0.578737 -3.775209,-0.664931 z"
         id="path1205"
         style="fill:#555555;fill-opacity:1"
         sodipodi:nodetypes="sssss" />
      <path
         class="cls-2"
         d="m 40.788398,33.142963 c -0.242779,1.810091 -1.881535,3.0907 -3.665959,2.844429 -1.784424,-0.246271 -3.046873,-1.9086 -2.804094,-3.718691 0.242778,-1.810091 1.881535,-3.0907 3.665958,-2.844429 1.784424,0.246271 3.046873,1.9086 2.804095,3.718691 z"
         id="path1207"
         style="fill:#555555;fill-opacity:1"
         sodipodi:nodetypes="sssss" />
      <path
         class="cls-2"
         d="m 54.614646,15.965566 c -0.861865,0.233958 -1.735868,-0.295525 -1.954369,-1.157473 -0.23064,-0.874262 0.291334,-1.760837 1.14106,-1.982481 0.861864,-0.233957 1.735868,0.295525 1.954369,1.157473 0.230639,0.874262 -0.291335,1.760837 -1.14106,1.982481 z"
         id="path1209"
         style="fill:#555555;fill-opacity:1"
         sodipodi:nodetypes="ccccc" />
      <path
         class="cls-4"
         d="m 58.377716,32.19482 -0.558391,-4.814597 c 0,0 0.03642,-0.09851 0.08497,-0.110821 l 2.524899,-0.307839 c 0,0 0.09711,0.03694 0.10925,0.0862 l 0.364169,3.176895 c 0.03642,0.320152 0,0.652618 -0.09711,0.960456 l -1.408117,4.174292 c -0.03642,0.09851 -0.121389,0.17239 -0.2185,0.184703 l -0.776892,0.09851 c 0,0 -0.09711,-0.03694 -0.109251,-0.08619 l -0.364168,-3.115327 c 0,0 0.03642,-0.09851 0.08497,-0.110822 l 0.279195,-0.03694 c 0,0 0.08497,-0.04925 0.08497,-0.110822 z"
         id="path1211"
         style="fill:#555555;fill-opacity:1"
         sodipodi:nodetypes="ccccccccsccccccc" />
      <path
         class="cls-2"
         d="m 58.936107,35.568732 0.23064,-0.02463 c 0.09711,0 0.182084,-0.08619 0.218501,-0.184703 l 1.408116,-4.174292 c 0.109251,-0.307838 0.133528,-0.640304 0.09711,-0.960456 l -0.364168,-3.176895 c 0,0 -0.04856,-0.0862 -0.109251,-0.0862 l -0.764753,0.0862 0.485558,3.312344 c 0,0 0,0.08619 0.06069,0.849634 -0.145667,0.788067 -1.274588,4.358996 -1.274588,4.358996 z"
         id="path1213"
         style="fill:#303030;fill-opacity:1"
         sodipodi:nodetypes="cccccccccccc" />
    </g>
    <path
       class="cls-3"
       d="m 205.42627,288.85254 c -0.42597,-0.47889 -1.03716,-0.75406 -1.6801,-0.75406 -0.55033,0 -1.0795,0.20108 -1.49225,0.56621 -0.70908,0.62971 -0.9234,1.61396 -0.61383,2.45533 -1.72244,0.69056 -3.60892,0.87842 -5.47423,0.52388 -2.57704,-0.49213 -4.80748,-1.95792 -6.28121,-4.12486 -1.5928,-2.35214 -2.09286,-5.27579 -1.3679,-8.02481 0.0423,-0.15875 -0.0529,-0.32279 -0.21167,-0.36248 -0.15875,-0.0423 -0.32279,0.0529 -0.36248,0.21167 -0.76729,2.9157 -0.23812,6.01662 1.45521,8.509 1.56369,2.30187 3.92907,3.85498 6.65957,4.3762 0.65881,0.12436 1.31762,0.18786 1.97379,0.18786 1.33879,0 2.65377,-0.26194 3.88938,-0.76729 0.045,0.0635 0.0952,0.127 0.14816,0.18785 0.42598,0.4789 1.03717,0.75406 1.68011,0.75406 0.55033,0 1.0795,-0.20108 1.4896,-0.5662 0.44715,-0.39953 0.71438,-0.94721 0.75142,-1.54517 0.0344,-0.59796 -0.16404,-1.17475 -0.56357,-1.62454 z m -0.34395,2.48973 c -0.0661,0.09 -0.14288,0.17198 -0.22755,0.24871 -0.0741,0.0661 -0.15345,0.12435 -0.23547,0.17462 -0.008,0.005 -0.0159,0.0106 -0.0212,0.0132 -0.0794,0.0476 -0.1614,0.0847 -0.24342,0.11642 -0.0132,0.005 -0.0238,0.0106 -0.037,0.0132 -0.082,0.0291 -0.16669,0.0529 -0.25135,0.0688 -0.0132,0.003 -0.0291,0.005 -0.0423,0.008 -0.0847,0.0132 -0.16933,0.0212 -0.25664,0.0238 -0.0212,0 -0.0423,0 -0.0635,0 -0.0318,0 -0.0609,0 -0.0926,-0.005 -0.0238,0 -0.0503,-0.005 -0.0741,-0.008 -0.0317,-0.003 -0.0608,-0.008 -0.0926,-0.0132 -0.0238,-0.005 -0.0476,-0.0106 -0.0741,-0.0159 -0.0291,-0.008 -0.0609,-0.0159 -0.09,-0.0238 -0.0238,-0.008 -0.0476,-0.0132 -0.0714,-0.0212 -0.0291,-0.0106 -0.0582,-0.0212 -0.0873,-0.0344 -0.0238,-0.008 -0.045,-0.0185 -0.0688,-0.0291 -0.0291,-0.0132 -0.0582,-0.0291 -0.0873,-0.045 -0.0212,-0.0106 -0.0423,-0.0212 -0.0635,-0.0344 -0.0291,-0.0185 -0.0582,-0.037 -0.0873,-0.0556 -0.0185,-0.0132 -0.037,-0.0238 -0.0556,-0.037 -0.0318,-0.0238 -0.0609,-0.0476 -0.09,-0.0741 -0.0159,-0.0132 -0.0291,-0.0238 -0.045,-0.037 -0.0423,-0.0397 -0.0847,-0.082 -0.12436,-0.127 -0.34396,-0.38629 -0.4736,-0.889 -0.39952,-1.36525 0.008,-0.0529 0.0185,-0.10583 0.0318,-0.1561 0.0794,-0.31221 0.24871,-0.60325 0.508,-0.83079 0,0 0,0 0,0 0.0741,-0.0661 0.15346,-0.12436 0.23548,-0.17463 0.008,-0.005 0.0159,-0.0106 0.0238,-0.0159 0.0794,-0.0476 0.1614,-0.0847 0.24342,-0.11642 0.0132,-0.005 0.0238,-0.0106 0.037,-0.0132 0.082,-0.0291 0.16669,-0.0529 0.25136,-0.0688 0.0132,-0.003 0.0291,-0.005 0.0423,-0.008 0.0847,-0.0132 0.16933,-0.0212 0.25665,-0.0238 0.0212,0 0.0423,0 0.0635,0 0.0318,0 0.0609,0 0.0926,0.005 0.0238,0 0.0503,0.005 0.0741,0.008 0.0318,0.003 0.0609,0.008 0.0926,0.0132 0.0238,0.005 0.0476,0.0106 0.0741,0.0159 0.0291,0.008 0.0609,0.0159 0.09,0.0238 0.0238,0.008 0.0476,0.0132 0.0714,0.0212 0.0291,0.0106 0.0582,0.0212 0.0873,0.0344 0.0238,0.008 0.045,0.0185 0.0688,0.0291 0.0291,0.0132 0.0582,0.0291 0.0873,0.0423 0.0212,0.0106 0.0423,0.0212 0.0635,0.0344 0.0291,0.0185 0.0582,0.037 0.0873,0.0556 0.0185,0.0132 0.037,0.0238 0.0556,0.037 0.0318,0.0238 0.0609,0.0476 0.09,0.0741 0.0159,0.0132 0.0291,0.0238 0.045,0.037 0.0423,0.0397 0.0847,0.082 0.12435,0.127 0.26723,0.30163 0.40481,0.67204 0.42069,1.04511 0.0132,0.37306 -0.0979,0.74877 -0.33073,1.05833 z"
       id="path1217"
       style="fill:#586a88;fill-opacity:1;stroke-width:0px" />
    <g
       id="g1227"
       transform="matrix(0.26458333,0,0,0.26458333,187.596,273.512)">
      <path
         class="cls-3"
         d="M 58.76,64.46 C 58.13,63.83 57.81,63 57.81,62.17 c 0,-0.83 0.32,-1.65 0.95,-2.29 0.63,-0.63 1.46,-0.95 2.29,-0.95 0.83,0 1.65,0.32 2.29,0.95 0.63,0.63 0.95,1.46 0.95,2.29 0,0.83 -0.32,1.65 -0.95,2.29 l -1.07,1.07 h -0.34 v -3.94 c -0.07,-0.03 -0.14,-0.08 -0.19,-0.13 v 0 c -0.12,-0.12 -0.2,-0.3 -0.2,-0.48 0,-0.18 0.08,-0.36 0.2,-0.48 v 0 c 0.12,-0.12 0.29,-0.2 0.48,-0.2 0.19,0 0.36,0.08 0.48,0.2 v 0 c 0.12,0.12 0.2,0.3 0.2,0.48 0,0.18 -0.08,0.36 -0.2,0.48 -0.06,0.06 -0.12,0.1 -0.19,0.13 v 2.87 l 0.41,-0.41 c 0.52,-0.52 0.78,-1.19 0.78,-1.87 0,-0.68 -0.26,-1.35 -0.78,-1.87 -0.52,-0.52 -1.19,-0.78 -1.87,-0.78 -0.68,0 -1.35,0.26 -1.87,0.78 -0.52,0.52 -0.78,1.19 -0.78,1.87 0,0.68 0.26,1.35 0.78,1.87 l 0.41,0.41 V 63.88 C 59.52,63.85 59.45,63.8 59.4,63.75 v 0 c -0.12,-0.12 -0.2,-0.3 -0.2,-0.48 0,-0.18 0.08,-0.36 0.2,-0.48 v 0 c 0.12,-0.12 0.29,-0.2 0.48,-0.2 0.19,0 0.36,0.08 0.48,0.2 v 0 c 0.12,0.12 0.2,0.3 0.2,0.48 0,0.18 -0.08,0.36 -0.2,0.48 -0.06,0.06 -0.12,0.1 -0.19,0.13 v 1.66 h -0.34 l -1.07,-1.07 v 0 z m 3.61,-3.65 v 0 c 0,0 -0.09,-0.06 -0.15,-0.06 -0.06,0 -0.11,0.02 -0.15,0.06 -0.04,0.04 -0.06,0.09 -0.06,0.15 0,0.06 0.02,0.11 0.06,0.15 v 0 c 0,0 0.09,0.06 0.15,0.06 0.06,0 0.11,-0.02 0.15,-0.06 0.04,-0.04 0.06,-0.09 0.06,-0.15 0,-0.06 -0.02,-0.11 -0.06,-0.15 z m -2.34,2.29 v 0 c 0,0 -0.09,-0.06 -0.15,-0.06 -0.06,0 -0.11,0.02 -0.15,0.06 -0.04,0.04 -0.06,0.09 -0.06,0.15 0,0.06 0.02,0.11 0.06,0.15 v 0 c 0,0 0.09,0.06 0.15,0.06 0.06,0 0.11,-0.02 0.15,-0.06 0.04,-0.04 0.06,-0.09 0.06,-0.15 0,-0.06 -0.02,-0.11 -0.06,-0.15 z m 1.02,-1.68 c 0.19,0 0.36,0.08 0.48,0.2 v 0 c 0.12,0.12 0.2,0.3 0.2,0.48 0,0.18 -0.08,0.36 -0.2,0.48 -0.06,0.06 -0.12,0.1 -0.19,0.13 v 2.8 h -0.59 v -2.8 c -0.07,-0.03 -0.14,-0.08 -0.19,-0.13 v 0 c -0.12,-0.12 -0.2,-0.3 -0.2,-0.48 0,-0.18 0.08,-0.36 0.2,-0.48 v 0 c 0.12,-0.12 0.29,-0.2 0.48,-0.2 z m 0.15,0.53 v 0 c 0,0 -0.09,-0.06 -0.15,-0.06 -0.06,0 -0.11,0.02 -0.15,0.06 -0.04,0.04 -0.06,0.09 -0.06,0.15 0,0.06 0.02,0.11 0.06,0.15 v 0 c 0,0 0.09,0.06 0.15,0.06 0.06,0 0.11,-0.02 0.15,-0.06 0.04,-0.04 0.06,-0.09 0.06,-0.15 0,-0.06 -0.02,-0.11 -0.06,-0.15 z"
         id="path1219"
         style="fill:#929cad;fill-opacity:1" />
      <path
         class="cls-3"
         d="m 59.79,65.91 h 2.52 c 0.17,0 0.3,0.13 0.3,0.3 v 0 c 0,0.16 -0.14,0.3 -0.3,0.3 h -2.52 c -0.17,0 -0.3,-0.13 -0.3,-0.3 v 0 c 0,-0.16 0.14,-0.3 0.3,-0.3 z"
         id="path1221"
         style="fill:#929cad;fill-opacity:1" />
      <path
         class="cls-3"
         d="m 59.96,66.8 h 2.17 c 0.14,0 0.26,0.13 0.26,0.3 v 0 c 0,0.16 -0.12,0.3 -0.26,0.3 h -2.17 c -0.14,0 -0.26,-0.13 -0.26,-0.3 v 0 c 0,-0.16 0.12,-0.3 0.26,-0.3 z"
         id="path1223"
         style="fill:#929cad;fill-opacity:1" />
      <path
         class="cls-3"
         d="m 60.35,67.71 h 1.4 c -0.06,0.34 -0.35,0.59 -0.7,0.59 -0.35,0 -0.64,-0.25 -0.7,-0.59 z"
         id="path1225"
         style="fill:#929cad;fill-opacity:1" />
    </g>
  </g>
</svg>
