<?xml version="1.0" encoding="UTF-8" standalone="no"?>
<svg
   id="artwork"
   viewBox="0 0 76.896033 76.896003"
   version="1.1"
   sodipodi:docname="logo_hollow.svg"
   inkscape:version="1.1 (c68e22c387, 2021-05-23)"
   width="76.896034"
   height="76.896004"
   xmlns:inkscape="http://www.inkscape.org/namespaces/inkscape"
   xmlns:sodipodi="http://sodipodi.sourceforge.net/DTD/sodipodi-0.dtd"
   xmlns="http://www.w3.org/2000/svg"
   xmlns:svg="http://www.w3.org/2000/svg">
  <sodipodi:namedview
     id="namedview1232"
     pagecolor="#505050"
     bordercolor="#eeeeee"
     borderopacity="1"
     inkscape:pageshadow="0"
     inkscape:pageopacity="0"
     inkscape:pagecheckerboard="0"
     showgrid="false"
     inkscape:zoom="13.221469"
     inkscape:cx="28.854585"
     inkscape:cy="37.325656"
     inkscape:window-width="2560"
     inkscape:window-height="1369"
     inkscape:window-x="3832"
     inkscape:window-y="-8"
     inkscape:window-maximized="1"
     inkscape:current-layer="g92492"
     fit-margin-top="0"
     fit-margin-left="0"
     fit-margin-right="0"
     fit-margin-bottom="0"
     lock-margins="true" />
  <defs
     id="defs1167">
    <style
       id="style1152">
      .cls-1 {
        fill: #4d4d4d;
      }

      .cls-1, .cls-2, .cls-3, .cls-4, .cls-5 {
        stroke-width: 0px;
      }

      .cls-2 {
        fill: #0e4377;
      }

      .cls-3 {
        fill: #1976d2;
      }

      .cls-4 {
        fill: #fff;
      }

      .cls-5 {
        fill: url(#radial-gradient);
      }
    </style>
    <radialGradient
       id="radial-gradient"
       cx="38.880001"
       cy="32.040001"
       fx="38.880001"
       fy="32.040001"
       r="32.040001"
       gradientUnits="userSpaceOnUse"
       gradientTransform="matrix(1.2,0,0,1.2,-8.208,0)">
      <stop
         offset="0"
         stop-color="#1976d2"
         id="stop1154"
         style="stop-color:#2c83e7;stop-opacity:1" />
      <stop
         offset=".51"
         stop-color="#1874d0"
         id="stop1156"
         style="stop-color:#1874dd;stop-opacity:1" />
      <stop
         offset=".7"
         stop-color="#1871c9"
         id="stop1158"
         style="stop-color:#176fd4;stop-opacity:1" />
      <stop
         offset=".83"
         stop-color="#166abd"
         id="stop1160"
         style="stop-color:#166aca;stop-opacity:1" />
      <stop
         offset=".93"
         stop-color="#1461ac"
         id="stop1162"
         style="stop-color:#1668c5;stop-opacity:1" />
      <stop
         offset="1"
         stop-color="#13599e"
         id="stop1164"
         style="stop-color:#1565c0;stop-opacity:1" />
    </radialGradient>
  </defs>
  <g
     id="g41457"
     transform="translate(-1.1150504,7.211)">
    <path
       id="path1195"
       style="fill:url(#radial-gradient)"
       class="cls-5"
       d="M 38.447266 0 C 17.219266 0 -9.4739031e-15 17.207266 0 38.447266 C 0 46.677636 2.5911892 54.297849 6.9921875 60.550781 L 7.0175781 60.291016 C 7.0476946 59.974444 7.3340448 59.898438 7.4394531 59.898438 L 8.3574219 59.898438 L 17.769531 59.898438 L 17.783203 59.898438 L 27.195312 59.898438 L 28.115234 59.898438 C 28.220646 59.898438 28.489976 59.974442 28.535156 60.291016 L 30.193359 74.808594 C 30.208418 74.899041 30.296935 74.974609 30.402344 74.974609 L 32.511719 74.974609 C 32.918307 74.974609 33.232266 75.125331 33.234375 75.5625 L 33.238281 76.535156 C 34.942997 76.76607 36.679062 76.896484 38.447266 76.896484 C 58.401551 76.867544 76.92518 59.827349 76.896484 38.447266 C 76.896484 17.207266 59.675266 -4.7369516e-15 38.447266 0 z M 29.800781 8.8242188 C 32.22798 8.778287 34.634747 9.8983505 36.140625 12.037109 C 36.155685 12.052192 36.15625 12.066406 36.15625 12.066406 L 53.005859 11.810547 C 53.367271 11.599498 53.773668 11.418031 54.195312 11.3125 C 56.785424 10.634128 59.421964 12.172181 60.099609 14.75 C 60.400785 15.850472 60.279067 16.951218 59.857422 17.916016 L 59.828125 17.900391 L 60.640625 23.673828 L 53.564453 24.517578 L 52.916016 20.101562 C 52.584722 19.905589 52.282777 19.663928 52.011719 19.392578 L 36.380859 20.373047 C 36.24533 20.584097 36.109572 20.780589 35.958984 20.976562 L 40.207031 34.060547 C 40.252199 34.105773 40.296052 34.152042 40.326172 34.197266 C 42.479578 36.940908 42.329072 40.829835 39.964844 43.392578 L 26.818359 56.613281 L 27.511719 56.613281 C 28.174309 56.613281 28.265625 57.111328 28.265625 57.111328 L 28.265625 58.40625 L 7.2421875 58.40625 L 7.2421875 57.111328 C 7.2421875 57.111328 7.3335077 56.613281 7.9960938 56.613281 L 8.8691406 56.613281 L 8.8691406 48.441406 C 8.8691406 45.562089 10.494693 42.925353 13.054688 41.628906 L 27.587891 34.271484 L 25.916016 22.800781 C 25.087783 22.288233 24.349012 21.594198 23.761719 20.75 C 21.367374 17.327984 22.181266 12.609259 25.599609 10.197266 C 26.881488 9.2984204 28.344462 8.8517777 29.800781 8.8242188 z M 61.605469 24.820312 C 61.680757 24.820313 61.740234 24.925781 61.740234 24.925781 L 61.90625 26.3125 C 61.921298 26.357724 61.845703 26.433594 61.845703 26.433594 L 63.546875 26.236328 C 63.576995 26.236328 63.623047 26.251953 63.623047 26.251953 L 64.089844 26.539062 C 64.110014 26.559255 64.125594 26.587354 64.136719 26.607422 L 64.134766 26.583984 L 64.150391 26.628906 C 64.150391 26.628906 64.142207 26.617321 64.136719 26.607422 L 64.496094 29.628906 C 64.511154 29.65906 64.466797 29.71875 64.466797 29.71875 L 64.089844 30.095703 C 64.059736 30.125857 64.013672 30.126953 64.013672 30.126953 L 56.078125 31.060547 C 56.123293 31.075617 56.154297 31.150391 56.154297 31.150391 L 56.996094 38.296875 C 57.011155 38.35717 57.132812 38.402344 57.132812 38.402344 L 57.478516 38.357422 C 57.553805 38.357422 57.615234 38.462891 57.615234 38.462891 L 58.066406 42.277344 C 58.066406 42.352712 57.960938 42.412109 57.960938 42.412109 L 56.998047 42.533203 C 56.877577 42.548277 56.756929 42.488332 56.681641 42.382812 L 53.789062 37.830078 C 53.57824 37.498429 53.443618 37.106792 53.398438 36.714844 L 52.794922 31.574219 C 52.779862 31.528982 52.841797 31.46875 52.841797 31.46875 L 51.982422 31.574219 C 51.952302 31.574219 51.90625 31.558594 51.90625 31.558594 L 51.439453 31.271484 C 51.409333 31.241331 51.380859 31.181641 51.380859 31.181641 L 51.019531 28.136719 C 51.019531 28.106565 51.048828 28.044922 51.048828 28.044922 L 51.425781 27.669922 C 51.455889 27.639768 51.5 27.638672 51.5 27.638672 L 53.203125 27.443359 C 53.142897 27.443359 53.097656 27.351562 53.097656 27.351562 L 52.931641 25.964844 C 52.931641 25.889464 53.037109 25.830078 53.037109 25.830078 L 61.605469 24.820312 z M 63.15625 31.376953 C 63.15625 31.376953 63.275956 31.422115 63.291016 31.482422 L 63.744141 35.373047 C 63.789321 35.764996 63.743515 36.171955 63.623047 36.548828 L 61.876953 41.658203 C 61.831773 41.778805 61.725938 41.869691 61.605469 41.884766 L 60.640625 42.005859 C 60.640625 42.005859 60.520921 41.960685 60.505859 41.900391 L 60.054688 38.085938 C 60.054688 38.085938 60.099928 37.964292 60.160156 37.949219 L 60.505859 37.904297 C 60.505859 37.904297 60.602277 37.84888 60.609375 37.777344 L 59.917969 31.890625 C 59.917969 31.890625 59.96321 31.768978 60.023438 31.753906 L 63.15625 31.376953 z "
       transform="translate(1.1150504,-7.211)" />
    <g
       id="g92492"
       transform="matrix(1.2405354,0,0,1.2242582,-10.693398,-8.8414519)">
      <path
         class="cls-2"
         d="m 29.916198,62.291641 c 2.598638,1.005794 3.803263,1.107139 6.396729,1.564531 l -0.01594,-0.803606 c -0.0071,-0.357021 -0.254917,-0.480228 -0.582669,-0.480228 H 34.01487 c -0.08497,0 -0.157806,-0.06157 -0.169945,-0.135449 L 32.509643,50.578944 c -0.03642,-0.258584 -0.254917,-0.320152 -0.33989,-0.320152 h -0.740475 -1.517367"
         id="path1203"
         style="fill:#0d4079;fill-opacity:1"
         sodipodi:nodetypes="ccsssccscc" />
      <path
         class="cls-2"
         d="m 31.465695,16.310346 c -0.861865,-1.243669 -0.57053,-2.955251 0.655502,-3.829513 1.226033,-0.874262 2.913345,-0.578737 3.775209,0.664931 0.861865,1.243668 0.57053,2.955251 -0.655502,3.829513 -1.226033,0.874262 -2.913345,0.578737 -3.775209,-0.664931 z"
         id="path1205"
         style="fill:#0d4079;fill-opacity:1"
         sodipodi:nodetypes="sssss" />
      <path
         class="cls-2"
         d="m 40.788398,33.142963 c -0.242779,1.810091 -1.881535,3.0907 -3.665959,2.844429 -1.784424,-0.246271 -3.046873,-1.9086 -2.804094,-3.718691 0.242778,-1.810091 1.881535,-3.0907 3.665958,-2.844429 1.784424,0.246271 3.046873,1.9086 2.804095,3.718691 z"
         id="path1207"
         style="fill:#0d4079;fill-opacity:1"
         sodipodi:nodetypes="sssss" />
      <path
         class="cls-2"
         d="m 54.614646,15.965566 c -0.861865,0.233958 -1.735868,-0.295525 -1.954369,-1.157473 -0.23064,-0.874262 0.291334,-1.760837 1.14106,-1.982481 0.861864,-0.233957 1.735868,0.295525 1.954369,1.157473 0.230639,0.874262 -0.291335,1.760837 -1.14106,1.982481 z"
         id="path1209"
         style="fill:#0d4079;fill-opacity:1"
         sodipodi:nodetypes="ccccc" />
      <path
         class="cls-2"
         d="m 58.936107,35.568732 0.23064,-0.02463 c 0.09711,0 0.182084,-0.08619 0.218501,-0.184703 l 1.408116,-4.174292 c 0.109251,-0.307838 0.133528,-0.640304 0.09711,-0.960456 l -0.364168,-3.176895 c 0,0 -0.04856,-0.0862 -0.109251,-0.0862 l -0.764753,0.0862 0.485558,3.312344 c 0,0 0,0.08619 0.06069,0.849634 -0.145667,0.788067 -1.274588,4.358996 -1.274588,4.358996 z"
         id="path1213"
         style="fill:#0d4079;fill-opacity:1"
         sodipodi:nodetypes="cccccccccccc" />
    </g>
  </g>
</svg>
