<?xml version="1.0" encoding="UTF-8" standalone="no"?>
<svg
   id="artwork"
   viewBox="0 0 85.091795 86.531997"
   version="1.1"
   sodipodi:docname="logo_swoop.svg"
   inkscape:version="1.1 (c68e22c387, 2021-05-23)"
   width="85.091797"
   height="86.531998"
   xmlns:inkscape="http://www.inkscape.org/namespaces/inkscape"
   xmlns:sodipodi="http://sodipodi.sourceforge.net/DTD/sodipodi-0.dtd"
   xmlns="http://www.w3.org/2000/svg"
   xmlns:svg="http://www.w3.org/2000/svg">
  <sodipodi:namedview
     id="namedview1232"
     pagecolor="#505050"
     bordercolor="#eeeeee"
     borderopacity="1"
     inkscape:pageshadow="0"
     inkscape:pageopacity="0"
     inkscape:pagecheckerboard="0"
     showgrid="false"
     inkscape:zoom="13.221469"
     inkscape:cx="40.956115"
     inkscape:cy="44.208401"
     inkscape:window-width="2560"
     inkscape:window-height="1369"
     inkscape:window-x="3832"
     inkscape:window-y="-8"
     inkscape:window-maximized="1"
     inkscape:current-layer="g92492"
     fit-margin-top="0"
     fit-margin-left="0"
     fit-margin-right="0"
     fit-margin-bottom="0"
     lock-margins="true" />
  <defs
     id="defs1167">
    <style
       id="style1152">
      .cls-1 {
        fill: #4d4d4d;
      }

      .cls-1, .cls-2, .cls-3, .cls-4, .cls-5 {
        stroke-width: 0px;
      }

      .cls-2 {
        fill: #0e4377;
      }

      .cls-3 {
        fill: #1976d2;
      }

      .cls-4 {
        fill: #fff;
      }

      .cls-5 {
        fill: url(#radial-gradient);
      }
    </style>
    <radialGradient
       id="radial-gradient"
       cx="38.880001"
       cy="32.040001"
       fx="38.880001"
       fy="32.040001"
       r="32.040001"
       gradientUnits="userSpaceOnUse"
       gradientTransform="matrix(1.2,0,0,1.2,-0.0113953,0)">
      <stop
         offset="0"
         stop-color="#1976d2"
         id="stop1154"
         style="stop-color:#2c83e7;stop-opacity:1" />
      <stop
         offset=".51"
         stop-color="#1874d0"
         id="stop1156"
         style="stop-color:#1874dd;stop-opacity:1" />
      <stop
         offset=".7"
         stop-color="#1871c9"
         id="stop1158"
         style="stop-color:#176fd4;stop-opacity:1" />
      <stop
         offset=".83"
         stop-color="#166abd"
         id="stop1160"
         style="stop-color:#166aca;stop-opacity:1" />
      <stop
         offset=".93"
         stop-color="#1461ac"
         id="stop1162"
         style="stop-color:#1668c5;stop-opacity:1" />
      <stop
         offset="1"
         stop-color="#13599e"
         id="stop1164"
         style="stop-color:#1565c0;stop-opacity:1" />
    </radialGradient>
  </defs>
  <g
     id="g41457"
     transform="translate(7.0815543,7.211)">
    <path
       id="path1195"
       style="fill:url(#radial-gradient)"
       class="cls-5"
       d="m 46.644531,0 c -21.228,0 -38.4472654,17.207266 -38.4472654,38.447266 0,8.23037 2.5911894,15.850583 6.9921874,22.103515 l 0.02344,-0.259765 c 0.03012,-0.316572 0.316466,-0.392578 0.421875,-0.392578 h 0.919922 9.410156 0.01563 9.412109 0.917969 c 0.105412,0 0.376695,0.076 0.421875,0.392578 l 1.65625,14.517578 c 0.01506,0.09045 0.105529,0.166015 0.210937,0.166015 h 2.109375 c 0.406588,0 0.720548,0.150722 0.722657,0.587891 l 0.0039,0.972656 c 1.704309,0.230801 3.441221,0.361328 5.208984,0.361328 5.052,0 9.863297,-0.984048 14.279297,-2.748046 0.48,-2.676001 1.812094,-5.231782 3.996094,-7.175782 2.292,-2.04 5.256125,-3.167968 8.328125,-3.167968 0.708,0 1.417281,0.07141 2.113281,0.191406 6.048,-6.792 9.730469,-15.744828 9.730469,-25.548828 C 85.091797,17.207266 67.872531,0 46.644531,0 Z m -8.646484,8.8242188 c 2.427199,-0.045932 4.833965,1.0741317 6.339844,3.2128902 0.01506,0.01508 0.01367,0.0293 0.01367,0.0293 L 61.203124,11.81055 c 0.361411,-0.211049 0.767808,-0.392516 1.189453,-0.498047 2.59011,-0.678372 5.224699,0.859681 5.902344,3.4375 0.301176,1.100472 0.18141,2.201218 -0.240234,3.166016 l -0.0293,-0.01563 0.8125,5.773437 -7.078125,0.84375 -0.646485,-4.416016 C 60.781984,19.905587 60.480039,19.663926 60.20898,19.392576 l -15.630859,0.980469 c -0.13553,0.21105 -0.271288,0.407542 -0.421875,0.603515 l 4.246094,13.083985 c 0.04517,0.04523 0.09097,0.0915 0.121094,0.136719 2.153404,2.743642 2.0029,6.632569 -0.361329,9.195312 l -13.14648,13.220705 h 0.693359 c 0.66259,0 0.751954,0.498047 0.751954,0.498047 V 58.40625 H 15.439453 v -1.294922 c 0,0 0.09132,-0.498047 0.753906,-0.498047 h 0.873047 v -8.171875 c 0,-2.879317 1.625555,-5.516053 4.185547,-6.8125 L 35.783203,34.271484 34.113281,22.800781 C 33.285049,22.288233 32.546277,21.594198 31.958984,20.75 29.564639,17.327984 30.378531,12.609259 33.796875,10.197266 35.078753,9.2984204 36.541728,8.8517777 37.998047,8.8242188 Z M 69.800781,24.820312 c 0.07529,10e-7 0.136719,0.105469 0.136719,0.105469 l 0.166016,1.386719 c 0.01505,0.04522 -0.06055,0.121094 -0.06055,0.121094 l 1.701172,-0.197266 c 0.03012,0 0.07617,0.01563 0.07617,0.01563 l 0.466797,0.287109 c 0.021,0.02103 0.03608,0.05064 0.04687,0.07031 l -0.002,-0.02539 0.01367,0.04492 c 0,0 -0.007,-0.01099 -0.01172,-0.01953 l 0.359375,3.019531 c 0.01506,0.03015 -0.03125,0.08984 -0.03125,0.08984 l -0.375,0.376953 c -0.03011,0.03015 -0.07617,0.03125 -0.07617,0.03125 l -7.935547,0.933594 c 0.04517,0.01507 0.07422,0.08984 0.07422,0.08984 l 0.84375,7.146484 c 0.01506,0.0603 0.136719,0.105469 0.136719,0.105469 l 0.345703,-0.04492 c 0.07529,0 0.134766,0.105469 0.134766,0.105469 l 0.453125,3.814453 c 0,0.07537 -0.105469,0.134765 -0.105469,0.134765 l -0.964844,0.121094 c -0.120469,0.01507 -0.241118,-0.04487 -0.316406,-0.150391 l -2.890569,-4.55273 C 61.775505,37.498429 61.63893,37.106792 61.59375,36.714844 l -0.601562,-5.140625 c -0.01506,-0.04524 0.04492,-0.105469 0.04492,-0.105469 l -0.857421,0.105469 c -0.03012,0 -0.07617,-0.01563 -0.07617,-0.01563 l -0.466797,-0.28711 c -0.03012,-0.03015 -0.06055,-0.08984 -0.06055,-0.08984 l -0.361328,-3.044922 c 0,-0.03015 0.03125,-0.0918 0.03125,-0.0918 l 0.375,-0.375 c 0.03011,-0.03015 0.07617,-0.03125 0.07617,-0.03125 l 1.701172,-0.195313 c -0.06023,0 -0.105469,-0.0918 -0.105469,-0.0918 l -0.166016,-1.386718 c 0,-0.07538 0.105469,-0.134766 0.105469,-0.134766 z m 1.552735,6.556641 c 0,0 0.119705,0.04516 0.134765,0.105469 l 0.451172,3.890625 c 0.04518,0.391949 0.0013,0.798908 -0.119141,1.175781 l -1.748046,5.109375 c -0.04518,0.120602 -0.151015,0.211488 -0.271485,0.226563 l -0.96289,0.121093 c 0,0 -0.119705,-0.04517 -0.134766,-0.105468 L 68.25,38.085938 c 0,0 0.04524,-0.121646 0.105469,-0.136719 l 0.347656,-0.04492 c 0,0 0.09804,-0.05643 0.103516,-0.128906 l -0.691407,-5.884766 c 0,0 0.04524,-0.121647 0.105469,-0.136719 z"
       transform="translate(-7.0815543,-7.211)" />
    <g
       id="g92492"
       transform="matrix(1.2405354,0,0,1.2242582,-10.693398,-8.8414519)">
      <path
         class="cls-2"
         d="m 29.916198,62.291641 c 2.598638,1.005794 3.803263,1.107139 6.396729,1.564531 l -0.01594,-0.803606 c -0.0071,-0.357021 -0.254917,-0.480228 -0.582669,-0.480228 H 34.01487 c -0.08497,0 -0.157806,-0.06157 -0.169945,-0.135449 L 32.509643,50.578944 c -0.03642,-0.258584 -0.254917,-0.320152 -0.33989,-0.320152 h -0.740475 -1.517367"
         id="path1203"
         style="fill:#0d4079;fill-opacity:1"
         sodipodi:nodetypes="ccsssccscc" />
      <path
         class="cls-2"
         d="m 31.465695,16.310346 c -0.861865,-1.243669 -0.57053,-2.955251 0.655502,-3.829513 1.226033,-0.874262 2.913345,-0.578737 3.775209,0.664931 0.861865,1.243668 0.57053,2.955251 -0.655502,3.829513 -1.226033,0.874262 -2.913345,0.578737 -3.775209,-0.664931 z"
         id="path1205"
         style="fill:#0d4079;fill-opacity:1"
         sodipodi:nodetypes="sssss" />
      <path
         class="cls-2"
         d="m 40.788398,33.142963 c -0.242779,1.810091 -1.881535,3.0907 -3.665959,2.844429 -1.784424,-0.246271 -3.046873,-1.9086 -2.804094,-3.718691 0.242778,-1.810091 1.881535,-3.0907 3.665958,-2.844429 1.784424,0.246271 3.046873,1.9086 2.804095,3.718691 z"
         id="path1207"
         style="fill:#0d4079;fill-opacity:1"
         sodipodi:nodetypes="sssss" />
      <path
         class="cls-2"
         d="m 54.614646,15.965566 c -0.861865,0.233958 -1.735868,-0.295525 -1.954369,-1.157473 -0.23064,-0.874262 0.291334,-1.760837 1.14106,-1.982481 0.861864,-0.233957 1.735868,0.295525 1.954369,1.157473 0.230639,0.874262 -0.291335,1.760837 -1.14106,1.982481 z"
         id="path1209"
         style="fill:#0d4079;fill-opacity:1"
         sodipodi:nodetypes="ccccc" />
      <path
         class="cls-2"
         d="m 58.936107,35.568732 0.23064,-0.02463 c 0.09711,0 0.182084,-0.08619 0.218501,-0.184703 l 1.408116,-4.174292 c 0.109251,-0.307838 0.133528,-0.640304 0.09711,-0.960456 l -0.364168,-3.176895 c 0,0 -0.04856,-0.0862 -0.109251,-0.0862 l -0.764753,0.0862 0.485558,3.312344 c 0,0 0,0.08619 0.06069,0.849634 -0.145667,0.788067 -1.274588,4.358996 -1.274588,4.358996 z"
         id="path1213"
         style="fill:#0d4079;fill-opacity:1"
         sodipodi:nodetypes="cccccccccccc" />
    </g>
    <path
       class="cls-3"
       d="m 73.77505,62.365 c -1.932,-2.172 -4.704,-3.42 -7.62,-3.42 -2.496,0 -4.896,0.912 -6.768,2.568 -3.216,2.856 -4.188,7.32 -2.784,11.136 -7.812,3.132 -16.368,3.984 -24.828,2.376 -11.688,-2.232 -21.8039996,-8.88 -28.4879996,-18.708 -7.224,-10.668 -9.492,-23.928 -6.204,-36.396 0.192,-0.72 -0.24,-1.464 -0.96,-1.644 -0.72,-0.192 -1.464,0.24 -1.644,0.96 -3.48,13.224 -1.08,27.288 6.6,38.592 7.092,10.44 17.8199996,17.484 30.2039996,19.848 2.988,0.564 5.976,0.852 8.952,0.852 6.072,0 12.036,-1.188 17.64,-3.48 0.204,0.288 0.432,0.576 0.672,0.852 1.932,2.172 4.704,3.42 7.62,3.42 2.496,0 4.896,-0.912 6.756,-2.568 2.028,-1.812 3.24,-4.296 3.408,-7.008 0.156,-2.712 -0.744,-5.328 -2.556,-7.368 z m -1.56,11.292 c -0.3,0.408 -0.648,0.78 -1.032,1.128 -0.336,0.3 -0.696,0.564 -1.068,0.792 -0.036,0.024 -0.072,0.048 -0.096,0.06 -0.36,0.216 -0.732,0.384 -1.104,0.528 -0.06,0.024 -0.108,0.048 -0.168,0.06 -0.372,0.132 -0.756,0.24 -1.14,0.312 -0.06,0.012 -0.132,0.024 -0.192,0.036 -0.384,0.06 -0.768,0.096 -1.164,0.108 -0.096,0 -0.192,0 -0.288,0 -0.144,0 -0.276,0 -0.42,-0.024 -0.108,0 -0.228,-0.024 -0.336,-0.036 -0.144,-0.012 -0.276,-0.036 -0.42,-0.06 -0.108,-0.024 -0.216,-0.048 -0.336,-0.072 -0.132,-0.036 -0.276,-0.072 -0.408,-0.108 -0.108,-0.036 -0.216,-0.06 -0.324,-0.096 -0.132,-0.048 -0.264,-0.096 -0.396,-0.156 -0.108,-0.036 -0.204,-0.084 -0.312,-0.132 -0.132,-0.06 -0.264,-0.132 -0.396,-0.204 -0.096,-0.048 -0.192,-0.096 -0.288,-0.156 -0.132,-0.084 -0.264,-0.168 -0.396,-0.252 -0.084,-0.06 -0.168,-0.108 -0.252,-0.168 -0.144,-0.108 -0.276,-0.216 -0.408,-0.336 -0.072,-0.06 -0.132,-0.108 -0.204,-0.168 -0.192,-0.18 -0.384,-0.372 -0.564,-0.576 -1.56,-1.752 -2.148,-4.032 -1.812,-6.192 0.036,-0.24 0.084,-0.48 0.144,-0.708 0.36,-1.416 1.128,-2.736 2.304,-3.768 0,0 0,0 0,0 0.336,-0.3 0.696,-0.564 1.068,-0.792 0.036,-0.024 0.072,-0.048 0.108,-0.072 0.36,-0.216 0.732,-0.384 1.104,-0.528 0.06,-0.024 0.108,-0.048 0.168,-0.06 0.372,-0.132 0.756,-0.24 1.14,-0.312 0.06,-0.012 0.132,-0.024 0.192,-0.036 0.384,-0.06 0.768,-0.096 1.164,-0.108 0.096,0 0.192,0 0.288,0 0.144,0 0.276,0 0.42,0.024 0.108,0 0.228,0.024 0.336,0.036 0.144,0.012 0.276,0.036 0.42,0.06 0.108,0.024 0.216,0.048 0.336,0.072 0.132,0.036 0.276,0.072 0.408,0.108 0.108,0.036 0.216,0.06 0.324,0.096 0.132,0.048 0.264,0.096 0.396,0.156 0.108,0.036 0.204,0.084 0.312,0.132 0.132,0.06 0.264,0.132 0.396,0.192 0.096,0.048 0.192,0.096 0.288,0.156 0.132,0.084 0.264,0.168 0.396,0.252 0.084,0.06 0.168,0.108 0.252,0.168 0.144,0.108 0.276,0.216 0.408,0.336 0.072,0.06 0.132,0.108 0.204,0.168 0.192,0.18 0.384,0.372 0.564,0.576 1.212,1.368 1.836,3.048 1.908,4.74 0.06,1.692 -0.444,3.396 -1.5,4.8 z"
       id="path1217"
       style="fill:#1565c0;fill-opacity:1" />
    <g
       id="g1227">
      <path
         class="cls-3"
         d="m 63.41905,70.141 c -0.756,-0.756 -1.14,-1.752 -1.14,-2.748 0,-0.996 0.384,-1.98 1.14,-2.748 0.756,-0.756 1.752,-1.14 2.748,-1.14 0.996,0 1.98,0.384 2.748,1.14 0.756,0.756 1.14,1.752 1.14,2.748 0,0.996 -0.384,1.98 -1.14,2.748 l -1.284,1.284 h -0.408 v -4.728 c -0.084,-0.036 -0.168,-0.096 -0.228,-0.156 v 0 c -0.144,-0.144 -0.24,-0.36 -0.24,-0.576 0,-0.216 0.096,-0.432 0.24,-0.576 v 0 c 0.144,-0.144 0.348,-0.24 0.576,-0.24 0.228,0 0.432,0.096 0.576,0.24 v 0 c 0.144,0.144 0.24,0.36 0.24,0.576 0,0.216 -0.096,0.432 -0.24,0.576 -0.072,0.072 -0.144,0.12 -0.228,0.156 v 3.444 l 0.492,-0.492 c 0.624,-0.624 0.936,-1.428 0.936,-2.244 0,-0.816 -0.312,-1.62 -0.936,-2.244 -0.624,-0.624 -1.428,-0.936 -2.244,-0.936 -0.816,0 -1.62,0.312 -2.244,0.936 -0.624,0.624 -0.936,1.428 -0.936,2.244 0,0.816 0.312,1.62 0.936,2.244 l 0.492,0.492 v -0.696 c -0.084,-0.036 -0.168,-0.096 -0.228,-0.156 v 0 c -0.144,-0.144 -0.24,-0.36 -0.24,-0.576 0,-0.216 0.096,-0.432 0.24,-0.576 v 0 c 0.144,-0.144 0.348,-0.24 0.576,-0.24 0.228,0 0.432,0.096 0.576,0.24 v 0 c 0.144,0.144 0.24,0.36 0.24,0.576 0,0.216 -0.096,0.432 -0.24,0.576 -0.072,0.072 -0.144,0.12 -0.228,0.156 v 1.992 h -0.408 l -1.284,-1.284 v 0 z m 4.332,-4.38 v 0 c 0,0 -0.108,-0.072 -0.18,-0.072 -0.072,0 -0.132,0.024 -0.18,0.072 -0.048,0.048 -0.072,0.108 -0.072,0.18 0,0.072 0.024,0.132 0.072,0.18 v 0 c 0,0 0.108,0.072 0.18,0.072 0.072,0 0.132,-0.024 0.18,-0.072 0.048,-0.048 0.072,-0.108 0.072,-0.18 0,-0.072 -0.024,-0.132 -0.072,-0.18 z m -2.808,2.748 v 0 c 0,0 -0.108,-0.072 -0.18,-0.072 -0.072,0 -0.132,0.024 -0.18,0.072 -0.048,0.048 -0.072,0.108 -0.072,0.18 0,0.072 0.024,0.132 0.072,0.18 v 0 c 0,0 0.108,0.072 0.18,0.072 0.072,0 0.132,-0.024 0.18,-0.072 0.048,-0.048 0.072,-0.108 0.072,-0.18 0,-0.072 -0.024,-0.132 -0.072,-0.18 z m 1.224,-2.016 c 0.228,0 0.432,0.096 0.576,0.24 v 0 c 0.144,0.144 0.24,0.36 0.24,0.576 0,0.216 -0.096,0.432 -0.24,0.576 -0.072,0.072 -0.144,0.12 -0.228,0.156 v 3.36 h -0.708 v -3.36 c -0.084,-0.036 -0.168,-0.096 -0.228,-0.156 v 0 c -0.144,-0.144 -0.24,-0.36 -0.24,-0.576 0,-0.216 0.096,-0.432 0.24,-0.576 v 0 c 0.144,-0.144 0.348,-0.24 0.576,-0.24 z m 0.18,0.636 v 0 c 0,0 -0.108,-0.072 -0.18,-0.072 -0.072,0 -0.132,0.024 -0.18,0.072 -0.048,0.048 -0.072,0.108 -0.072,0.18 0,0.072 0.024,0.132 0.072,0.18 v 0 c 0,0 0.108,0.072 0.18,0.072 0.072,0 0.132,-0.024 0.18,-0.072 0.048,-0.048 0.072,-0.108 0.072,-0.18 0,-0.072 -0.024,-0.132 -0.072,-0.18 z"
         id="path1219"
         style="fill:#737373;fill-opacity:1" />
      <path
         class="cls-3"
         d="m 64.65505,71.881 h 3.024 c 0.204,0 0.36,0.156 0.36,0.36 v 0 c 0,0.192 -0.168,0.36 -0.36,0.36 h -3.024 c -0.204,0 -0.36,-0.156 -0.36,-0.36 v 0 c 0,-0.192 0.168,-0.36 0.36,-0.36 z"
         id="path1221"
         style="fill:#737373;fill-opacity:1" />
      <path
         class="cls-3"
         d="m 64.85905,72.949 h 2.604 c 0.168,0 0.312,0.156 0.312,0.36 v 0 c 0,0.192 -0.144,0.36 -0.312,0.36 h -2.604 c -0.168,0 -0.312,-0.156 -0.312,-0.36 v 0 c 0,-0.192 0.144,-0.36 0.312,-0.36 z"
         id="path1223"
         style="fill:#737373;fill-opacity:1" />
      <path
         class="cls-3"
         d="m 65.32705,74.041 h 1.68 c -0.072,0.408 -0.42,0.708 -0.84,0.708 -0.42,0 -0.768,-0.3 -0.84,-0.708 z"
         id="path1225"
         style="fill:#737373;fill-opacity:1" />
    </g>
  </g>
</svg>
