<?xml version="1.0" encoding="UTF-8" standalone="no"?>
<svg id="artwork" viewBox="0 0 230.68361 230.68944" version="1.1" sodipodi:docname="noswoop_dark.svg"
   inkscape:version="1.1 (c68e22c387, 2021-05-23)" width="230.68361" height="230.68944"
   xmlns:inkscape="http://www.inkscape.org/namespaces/inkscape"
   xmlns:sodipodi="http://sodipodi.sourceforge.net/DTD/sodipodi-0.dtd" xmlns="http://www.w3.org/2000/svg"
   xmlns:svg="http://www.w3.org/2000/svg">
   <sodipodi:namedview id="namedview1232" pagecolor="#202020" bordercolor="#eeeeee" borderopacity="1"
      inkscape:pageshadow="0" inkscape:pageopacity="0" inkscape:pagecheckerboard="0" showgrid="false"
      inkscape:zoom="2.8284273" inkscape:cx="41.188968" inkscape:cy="145.48721" inkscape:window-width="2560"
      inkscape:window-height="1369" inkscape:window-x="3832" inkscape:window-y="-8" inkscape:window-maximized="1"
      inkscape:current-layer="artwork" fit-margin-top="0" fit-margin-left="0" fit-margin-right="0" fit-margin-bottom="0"
      lock-margins="true" />
   <defs id="defs1167">
      <style id="style1152">
         .shadow {
            fill: #00315f;
            stroke-width: 0px;
         }

         .circle {
            fill: url(#radial-gradient);
         }
      </style>
      <radialGradient id="radial-gradient" cx="38.880001" cy="32.040001" fx="38.880001" fy="32.040001" r="32.040001"
         gradientUnits="userSpaceOnUse" gradientTransform="matrix(3.6,0,0,3.6,-24.625986,0)">
         <stop offset="0" stop-color="#66a1d8" id="stop0" />
         <stop offset=".51" stop-color="#3382cb" id="stop1" />
         <stop offset=".7" stop-color="#1972c5" id="stop2" />
         <stop offset=".83" stop-color="#0c6ac2" id="stop3" />
         <stop offset=".93" stop-color="#0666c0" id="stop4" />
         <stop offset="1" stop-color="#0062BF" id="stop5" />
      </radialGradient>
   </defs>
   <path class="circle"
      d="M 115.3418,0 C 51.657795,0 0,51.621798 0,115.3418 c 0,24.69111 7.773973,47.55107 20.976562,66.31055 l 0.07032,-0.7793 c 0.09036,-0.94972 0.949398,-1.17773 1.265625,-1.17773 h 2.759766 28.230467 0.04689 28.236327 2.753907 c 0.316236,0 1.130085,0.228 1.265625,1.17773 l 4.96875,43.55273 c 0.04518,0.27135 0.316587,0.49743 0.632811,0.49805 l 6.023436,0.0117 c 1.219764,0.002 2.396022,0.42873 2.402346,1.74024 l 0.08202,2.92968 c 5.112898,0.69245 10.323668,1.08399 15.626948,1.08399 60.78686,-0.4006 115.30936,-53.65645 115.3418,-115.34766 C 230.68359,51.621798 179.02579,0 115.3418,0 Z M 89.402343,26.472656 c 7.281597,-0.137796 14.501897,3.222397 19.019537,9.638671 0.0452,0.04524 0.041,0.0879 0.041,0.0879 l 50.55468,-0.767577 c 1.08424,-0.633147 2.30343,-1.177548 3.56836,-1.494141 7.77033,-2.035116 15.6741,2.579043 17.70703,10.3125 0.90353,3.301416 0.54423,6.603654 -0.7207,9.498048 l -0.0879,-0.04689 2.4375,17.320311 -21.23437,2.53125 -1.93946,-13.248048 c -0.99388,-0.587919 -1.89971,-1.312902 -2.71289,-2.126952 l -46.89257,2.941407 c -0.4066,0.63315 -0.81387,1.222626 -1.26563,1.810545 l 12.73828,39.25196 c 0.13551,0.13569 0.27291,0.2745 0.36328,0.41015 6.46022,8.23093 6.0087,19.89771 -1.08398,27.58594 l -39.439443,39.66211 h 2.080077 c 1.98777,0 2.255862,1.49414 2.255862,1.49414 v 3.88477 H 21.726562 v -3.88477 c 0,0 0.27396,-1.49414 2.261718,-1.49414 h 2.619141 v -24.51562 c 0,-8.63795 4.876664,-16.54816 12.55664,-20.4375 L 82.757811,102.81445 77.748045,68.402343 C 75.263349,66.864699 73.047033,64.782594 71.285154,62.25 64.102119,51.983952 66.543795,37.827777 76.798827,30.591798 80.644461,27.89526 85.033386,26.555333 89.402343,26.472656 Z m 95.408197,47.98828 c 0.22587,0 0.41016,0.316407 0.41016,0.316407 l 0.49805,4.160157 c 0.0452,0.13566 -0.18165,0.363282 -0.18165,0.363282 l 5.10351,-0.591798 c 0.0904,0 0.22851,0.04689 0.22851,0.04689 l 1.40039,0.861327 c 0.063,0.06309 0.10824,0.15192 0.14061,0.21093 l -0.006,-0.07617 0.041,0.13476 c 0,0 -0.021,-0.03297 -0.0352,-0.05859 l 1.07813,9.058593 c 0.0452,0.09045 -0.0937,0.26952 -0.0937,0.26952 l -1.125,1.130859 c -0.0903,0.09045 -0.22851,0.09375 -0.22851,0.09375 l -23.80664,2.800782 c 0.13551,0.04521 0.22266,0.26952 0.22266,0.26952 l 2.53125,21.439455 c 0.0452,0.1809 0.41016,0.3164 0.41016,0.3164 l 1.03711,-0.13476 c 0.22587,0 0.40429,0.31641 0.40429,0.31641 l 1.35938,11.44336 c 0,0.22611 -0.31641,0.40429 -0.31641,0.40429 l -2.89453,0.36329 c -0.36141,0.0452 -0.72335,-0.13461 -0.94922,-0.45118 l -8.6717,-13.65819 c -0.63247,-0.99494 -1.0422,-2.16985 -1.17774,-3.3457 l -1.80468,-15.421873 c -0.0452,-0.13572 0.13476,-0.316407 0.13476,-0.316407 l -2.57227,0.316407 c -0.0904,0 -0.22851,-0.04689 -0.22851,-0.04689 l -1.40039,-0.86133 c -0.0904,-0.09045 -0.18165,-0.26952 -0.18165,-0.26952 l -1.08398,-9.134766 c 0,-0.09045 0.0937,-0.2754 0.0937,-0.2754 l 1.125,-1.125 c 0.0903,-0.09045 0.22851,-0.09375 0.22851,-0.09375 l 5.10351,-0.585939 c -0.18069,0 -0.3164,-0.2754 -0.3164,-0.2754 l -0.49805,-4.160154 c 0,-0.22614 0.31641,-0.404298 0.31641,-0.404298 z m 4.65821,19.669923 c 0,0 0.35911,0.13548 0.40429,0.316407 l 1.35352,11.671874 c 0.13554,1.17585 0.004,2.39673 -0.35743,3.52734 l -5.24413,15.32813 c -0.13554,0.36181 -0.45305,0.63446 -0.81446,0.67969 l -2.88867,0.36328 c 0,0 -0.35911,-0.13551 -0.4043,-0.31641 l -1.35937,-11.44336 c 0,0 0.13572,-0.36493 0.3164,-0.41015 l 1.04297,-0.13476 c 0,0 0.29412,-0.16929 0.31055,-0.38672 L 179.7539,95.671881 c 0,0 0.13572,-0.364941 0.31641,-0.410157 z" />
   <g id="shadow" class="shadow" transform="matrix(3.7216062,0,0,3.6727746,-35.427326,-4.891356)">
      <path
         d="m 29.916198,62.291641 c 2.598638,1.005794 3.8032,1.098284 6.396666,1.555676 l -0.01588,-0.794751 c -0.0071,-0.35702 -0.327343,-0.475737 -0.655092,-0.477037 l -1.611281,-0.0064 c -0.08497,-3.37e-4 -0.16171,-0.05824 -0.173849,-0.132117 L 32.521656,50.578765 c -0.03642,-0.258584 -0.248037,-0.319973 -0.33301,-0.319973 h -0.759368 -1.517367" />
      <path
         d="m 31.465695,16.310346 c -0.861865,-1.243669 -0.57053,-2.955251 0.655502,-3.829513 1.226033,-0.874262 2.913345,-0.578737 3.775209,0.664931 0.861865,1.243668 0.57053,2.955251 -0.655502,3.829513 -1.226033,0.874262 -2.913345,0.578737 -3.775209,-0.664931 z" />
      <path
         d="m 40.788398,33.142963 c -0.242779,1.810091 -1.881535,3.0907 -3.665959,2.844429 -1.784424,-0.246271 -3.046873,-1.9086 -2.804094,-3.718691 0.242778,-1.810091 1.881535,-3.0907 3.665958,-2.844429 1.784424,0.246271 3.046873,1.9086 2.804095,3.718691 z" />
      <path
         d="m 54.614646,15.965566 c -0.861865,0.233958 -1.735868,-0.295525 -1.954369,-1.157473 -0.23064,-0.874262 0.291334,-1.760837 1.14106,-1.982481 0.861864,-0.233957 1.735868,0.295525 1.954369,1.157473 0.230639,0.874262 -0.291335,1.760837 -1.14106,1.982481 z" />
      <path
         d="m 58.927111,35.57511 0.251067,-0.03096 c 0.09711,0 0.182428,-0.08655 0.218845,-0.185062 l 1.409106,-4.173445 c 0.109251,-0.307838 0.132458,-0.640251 0.09604,-0.960403 l -0.363691,-3.177945 c 0,0 -0.01035,-0.101694 -0.121423,-0.08574 l -0.749009,0.09258 0.469814,3.305963 c 0,0 0,0.08619 0.06069,0.849634 -0.356814,1.471768 -0.829235,2.918481 -1.271439,4.365378 z" />
   </g>
</svg>
