<?xml version="1.0" encoding="UTF-8" standalone="no"?>
<svg id="artwork" viewBox="0 0 255.2754 259.59601" version="1.1" sodipodi:docname="swoop_dark.svg"
   inkscape:version="1.1 (c68e22c387, 2021-05-23)" width="255.27541" height="259.59601"
   xmlns:inkscape="http://www.inkscape.org/namespaces/inkscape"
   xmlns:sodipodi="http://sodipodi.sourceforge.net/DTD/sodipodi-0.dtd" xmlns="http://www.w3.org/2000/svg"
   xmlns:svg="http://www.w3.org/2000/svg">
   <sodipodi:namedview id="namedview1232" pagecolor="#202020" bordercolor="#eeeeee" borderopacity="1"
      inkscape:pageshadow="0" inkscape:pageopacity="0" inkscape:pagecheckerboard="0" showgrid="false"
      inkscape:zoom="2.8284271" inkscape:cx="156.44738" inkscape:cy="139.83037" inkscape:window-width="2560"
      inkscape:window-height="1369" inkscape:window-x="3832" inkscape:window-y="-8" inkscape:window-maximized="1"
      inkscape:current-layer="artwork" fit-margin-top="0" fit-margin-left="0" fit-margin-right="0" fit-margin-bottom="0"
      lock-margins="true" />
   <defs id="defs1167">
      <style id="style1152">
         .text {
            fill: #bcbcbc;
         }

         .text,
         .base,
         shadow {
            stroke-width: 0px;
         }

         .base {
            fill: #7da1db;
         }

         .shadow {
            fill: #3e506d;
         }

         .circle {
            fill: url(#radial-gradient);
         }
      </style>
      <radialGradient id="radial-gradient" cx="38.880001" cy="32.040001" fx="38.880001" fy="32.040001" r="32.040001"
         gradientUnits="userSpaceOnUse" gradientTransform="matrix(3.6,0,0,3.6,-0.03418582,0)">
         <stop offset="0" stop-color="#b1c6e9" id="stop0" />
         <stop offset=".51" stop-color="#97b3e2" id="stop1" />
         <stop offset=".7" stop-color="#8aaade" id="stop2" />
         <stop offset=".83" stop-color="#83a5dc" id="stop3" />
         <stop offset=".93" stop-color="#80a3db" id="stop4" />
         <stop offset="1" stop-color="#7da1db" id="stop5" />
      </radialGradient>
   </defs>
   <path class="circle"
      d="M 139.93359,0 C 76.249593,0 24.591797,51.621798 24.591797,115.3418 c 0,24.69111 7.773973,47.55107 20.976562,66.31054 l 0.07032,-0.77929 c 0.09036,-0.94972 0.949398,-1.17774 1.265625,-1.17774 h 2.759766 28.230468 0.04689 28.236332 2.7539 c 0.31624,0 1.13009,0.228 1.26563,1.17774 l 4.96875,43.55273 c 0.0452,0.27135 0.31658,0.49743 0.63281,0.49805 l 6.02343,0.0117 c 1.21977,0.002 2.39603,0.42873 2.40235,1.74023 l 0.082,2.92969 c 5.1129,0.69245 10.32366,1.08398 15.62695,1.08398 15.156,0 29.58989,-2.95214 42.83789,-8.24413 1.44,-8.02801 5.43629,-15.69535 11.98829,-21.52735 6.876,-6.12 15.76837,-9.5039 24.98437,-9.5039 2.124,0 4.25184,0.21423 6.33984,0.57421 18.144,-20.376 29.19141,-47.23448 29.19141,-76.64648 C 255.27539,51.621798 203.61759,0 139.93359,0 Z m -25.93945,26.472656 c 7.2816,-0.137796 14.5019,3.222397 19.01953,9.638671 0.0452,0.04524 0.041,0.0879 0.041,0.0879 l 50.55469,-0.767577 c 1.08424,-0.633147 2.30343,-1.177548 3.56836,-1.494141 7.77033,-2.035116 15.6741,2.579043 17.70703,10.3125 0.90353,3.301416 0.54423,6.603654 -0.7207,9.498048 l -0.0879,-0.04689 2.4375,17.320311 -21.23437,2.53125 -1.93946,-13.248048 c -0.99388,-0.587919 -1.89971,-1.312902 -2.71289,-2.126952 l -46.89258,2.941407 c -0.40659,0.63315 -0.81386,1.222626 -1.26562,1.810545 l 12.73828,39.25196 c 0.13551,0.13568 0.27291,0.27449 0.36328,0.41015 6.46021,8.23093 6.0087,19.89771 -1.08398,27.58594 l -39.43944,39.66211 h 2.08007 c 1.98777,0 2.25586,1.49414 2.25586,1.49414 v 3.88477 H 46.318359 v -3.88477 c 0,0 0.27396,-1.49414 2.261718,-1.49414 h 2.619141 v -24.51562 c 0,-8.63795 4.876665,-16.54816 12.556641,-20.4375 L 107.34961,102.81445 102.33984,68.402343 C 99.855147,66.864699 97.638831,64.782594 95.876952,62.25 88.693917,51.983952 91.135593,37.827777 101.39063,30.591798 c 3.84563,-2.696538 8.23455,-4.036465 12.60351,-4.119142 z m 95.4082,47.98828 c 0.22587,0 0.41016,0.316407 0.41016,0.316407 l 0.49805,4.160157 c 0.0452,0.13566 -0.18165,0.363282 -0.18165,0.363282 l 5.10351,-0.591798 c 0.0904,0 0.22851,0.04689 0.22851,0.04689 l 1.4004,0.861327 c 0.063,0.06309 0.10824,0.15192 0.14061,0.21093 l -0.006,-0.07617 0.041,0.13476 c 0,0 -0.021,-0.03297 -0.0352,-0.05859 l 1.07812,9.058593 c 0.0452,0.09045 -0.0937,0.26952 -0.0937,0.26952 l -1.125,1.130859 c -0.0903,0.09045 -0.22851,0.09375 -0.22851,0.09375 L 192.826,93.181635 c 0.13551,0.04521 0.22266,0.26952 0.22266,0.26952 l 2.53125,21.439455 c 0.0452,0.1809 0.41016,0.3164 0.41016,0.3164 l 1.03711,-0.13476 c 0.22587,0 0.40429,0.31641 0.40429,0.31641 l 1.35938,11.44336 c 0,0.22611 -0.31641,0.40429 -0.31641,0.40429 l -2.89453,0.36329 c -0.36141,0.0452 -0.72335,-0.13461 -0.94922,-0.45118 l -8.67171,-13.65819 c -0.63246,-0.99494 -1.04219,-2.16985 -1.17773,-3.3457 l -1.80469,-15.421873 c -0.0452,-0.13572 0.13476,-0.316407 0.13476,-0.316407 l -2.57226,0.316407 c -0.0904,0 -0.22851,-0.04689 -0.22851,-0.04689 l -1.40039,-0.86133 c -0.0904,-0.09045 -0.18165,-0.26952 -0.18165,-0.26952 l -1.08398,-9.134766 c 0,-0.09045 0.0937,-0.2754 0.0937,-0.2754 l 1.125,-1.125 c 0.0903,-0.09045 0.22851,-0.09375 0.22851,-0.09375 l 5.10351,-0.585939 c -0.18069,0 -0.3164,-0.2754 -0.3164,-0.2754 l -0.49805,-4.160154 c 0,-0.22614 0.3164,-0.404298 0.3164,-0.404298 z m 4.65821,19.669923 c 0,0 0.35911,0.13548 0.40429,0.316407 l 1.35352,11.671874 c 0.13554,1.17585 0.004,2.39673 -0.35742,3.52734 l -5.24414,15.32813 c -0.13554,0.3618 -0.45305,0.63446 -0.81446,0.67969 l -2.88867,0.36328 c 0,0 -0.35911,-0.13551 -0.40429,-0.31641 L 204.75,114.25781 c 0,0 0.13572,-0.36493 0.31641,-0.41015 l 1.04297,-0.13476 c 0,0 0.29412,-0.16929 0.31054,-0.38672 L 204.3457,95.671881 c 0,0 0.13572,-0.364941 0.31641,-0.410157 z" />
   <g id="shadow" class="shadow" transform="matrix(3.7216062,0,0,3.6727746,-10.835531,-4.891356)">
      <path
         d="m 29.916198,62.291641 c 2.598638,1.005794 3.8032,1.098284 6.396666,1.555676 l -0.01588,-0.794751 c -0.0071,-0.35702 -0.327343,-0.475737 -0.655092,-0.477037 l -1.611281,-0.0064 c -0.08497,-3.37e-4 -0.16171,-0.05824 -0.173849,-0.132117 L 32.521656,50.578765 c -0.03642,-0.258584 -0.248037,-0.319973 -0.33301,-0.319973 h -0.759368 -1.517367" />
      <path
         d="m 31.465695,16.310346 c -0.861865,-1.243669 -0.57053,-2.955251 0.655502,-3.829513 1.226033,-0.874262 2.913345,-0.578737 3.775209,0.664931 0.861865,1.243668 0.57053,2.955251 -0.655502,3.829513 -1.226033,0.874262 -2.913345,0.578737 -3.775209,-0.664931 z" />
      <path
         d="m 40.788398,33.142963 c -0.242779,1.810091 -1.881535,3.0907 -3.665959,2.844429 -1.784424,-0.246271 -3.046873,-1.9086 -2.804094,-3.718691 0.242778,-1.810091 1.881535,-3.0907 3.665958,-2.844429 1.784424,0.246271 3.046873,1.9086 2.804095,3.718691 z" />
      <path
         d="m 54.614646,15.965566 c -0.861865,0.233958 -1.735868,-0.295525 -1.954369,-1.157473 -0.23064,-0.874262 0.291334,-1.760837 1.14106,-1.982481 0.861864,-0.233957 1.735868,0.295525 1.954369,1.157473 0.230639,0.874262 -0.291335,1.760837 -1.14106,1.982481 z" />
      <path
         d="m 58.927111,35.57511 0.251067,-0.03096 c 0.09711,0 0.182428,-0.08655 0.218845,-0.185062 l 1.409106,-4.173445 c 0.109251,-0.307838 0.132458,-0.640251 0.09604,-0.960403 l -0.363691,-3.177945 c 0,0 -0.01035,-0.101694 -0.121423,-0.08574 l -0.749009,0.09258 0.469814,3.305963 c 0,0 0,0.08619 0.06069,0.849634 -0.356814,1.471768 -0.829235,2.918481 -1.271439,4.365378 z" />
   </g>
   <path class="base"
      d="m 242.56981,208.728 c -5.796,-6.516 -14.112,-10.26 -22.86,-10.26 -7.488,0 -14.688,2.736 -20.304,7.704 -9.648,8.568 -12.564,21.96 -8.352,33.408 -23.436,9.396 -49.104,11.952 -74.484,7.128 C 81.505812,240.012 51.157815,220.068 31.105815,190.584 9.4338142,158.58 2.6298142,118.8 12.493814,81.396 c 0.576,-2.16 -0.72,-4.392 -2.8799998,-4.932 -2.16,-0.576 -4.392,0.72 -4.932,2.88 -10.44,39.672 -3.24,81.864 19.8000008,115.776 21.276,31.32 53.459997,52.452 90.611995,59.544 8.964,1.692 17.928,2.556 26.856,2.556 18.216,0 36.108,-3.564 52.92,-10.44 0.612,0.864 1.296,1.728 2.016,2.556 5.796,6.516 14.112,10.26 22.86,10.26 7.488,0 14.688,-2.736 20.268,-7.704 6.084,-5.436 9.72,-12.888 10.224,-21.024 0.468,-8.136 -2.232,-15.984 -7.668,-22.104 z m -4.68,33.876 c -0.9,1.224 -1.944,2.34 -3.096,3.384 -1.008,0.9 -2.088,1.692 -3.204,2.376 -0.108,0.072 -0.216,0.144 -0.288,0.18 -1.08,0.648 -2.196,1.152 -3.312,1.584 -0.18,0.072 -0.324,0.144 -0.504,0.18 -1.116,0.396 -2.268,0.72 -3.42,0.936 -0.18,0.036 -0.396,0.072 -0.576,0.108 -1.152,0.18 -2.304,0.288 -3.492,0.324 -0.288,0 -0.576,0 -0.864,0 -0.432,0 -0.828,0 -1.26,-0.072 -0.324,0 -0.684,-0.072 -1.008,-0.108 -0.432,-0.036 -0.828,-0.108 -1.26,-0.18 -0.324,-0.072 -0.648,-0.144 -1.008,-0.216 -0.396,-0.108 -0.828,-0.216 -1.224,-0.324 -0.324,-0.108 -0.648,-0.18 -0.972,-0.288 -0.396,-0.144 -0.792,-0.288 -1.188,-0.468 -0.324,-0.108 -0.612,-0.252 -0.936,-0.396 -0.396,-0.18 -0.792,-0.396 -1.188,-0.612 -0.288,-0.144 -0.576,-0.288 -0.864,-0.468 -0.396,-0.252 -0.792,-0.504 -1.188,-0.756 -0.252,-0.18 -0.504,-0.324 -0.756,-0.504 -0.432,-0.324 -0.828,-0.648 -1.224,-1.008 -0.216,-0.18 -0.396,-0.324 -0.612,-0.504 -0.576,-0.54 -1.152,-1.116 -1.692,-1.728 -4.68,-5.256 -6.444,-12.096 -5.436,-18.576 0.108,-0.72 0.252,-1.44 0.432,-2.124 1.08,-4.248 3.384,-8.208 6.912,-11.304 0,0 0,0 0,0 1.008,-0.9 2.088,-1.692 3.204,-2.376 0.108,-0.072 0.216,-0.144 0.324,-0.216 1.08,-0.648 2.196,-1.152 3.312,-1.584 0.18,-0.072 0.324,-0.144 0.504,-0.18 1.116,-0.396 2.268,-0.72 3.42,-0.936 0.18,-0.036 0.396,-0.072 0.576,-0.108 1.152,-0.18 2.304,-0.288 3.492,-0.324 0.288,0 0.576,0 0.864,0 0.432,0 0.828,0 1.26,0.072 0.324,0 0.684,0.072 1.008,0.108 0.432,0.036 0.828,0.108 1.26,0.18 0.324,0.072 0.648,0.144 1.008,0.216 0.396,0.108 0.828,0.216 1.224,0.324 0.324,0.108 0.648,0.18 0.972,0.288 0.396,0.144 0.792,0.288 1.188,0.468 0.324,0.108 0.612,0.252 0.936,0.396 0.396,0.18 0.792,0.396 1.188,0.576 0.288,0.144 0.576,0.288 0.864,0.468 0.396,0.252 0.792,0.504 1.188,0.756 0.252,0.18 0.504,0.324 0.756,0.504 0.432,0.324 0.828,0.648 1.224,1.008 0.216,0.18 0.396,0.324 0.612,0.504 0.576,0.54 1.152,1.116 1.692,1.728 3.636,4.104 5.508,9.144 5.724,14.22 0.18,5.076 -1.332,10.188 -4.5,14.4 z"
      id="swoop" />
   <g id="bulb" class="text" transform="matrix(3.6,0,0,3.6,-0.03418582,0)">
      <path
         d="M 58.76,64.46 C 58.13,63.83 57.81,63 57.81,62.17 c 0,-0.83 0.32,-1.65 0.95,-2.29 0.63,-0.63 1.46,-0.95 2.29,-0.95 0.83,0 1.65,0.32 2.29,0.95 0.63,0.63 0.95,1.46 0.95,2.29 0,0.83 -0.32,1.65 -0.95,2.29 l -1.07,1.07 h -0.34 v -3.94 c -0.07,-0.03 -0.14,-0.08 -0.19,-0.13 v 0 c -0.12,-0.12 -0.2,-0.3 -0.2,-0.48 0,-0.18 0.08,-0.36 0.2,-0.48 v 0 c 0.12,-0.12 0.29,-0.2 0.48,-0.2 0.19,0 0.36,0.08 0.48,0.2 v 0 c 0.12,0.12 0.2,0.3 0.2,0.48 0,0.18 -0.08,0.36 -0.2,0.48 -0.06,0.06 -0.12,0.1 -0.19,0.13 v 2.87 l 0.41,-0.41 c 0.52,-0.52 0.78,-1.19 0.78,-1.87 0,-0.68 -0.26,-1.35 -0.78,-1.87 -0.52,-0.52 -1.19,-0.78 -1.87,-0.78 -0.68,0 -1.35,0.26 -1.87,0.78 -0.52,0.52 -0.78,1.19 -0.78,1.87 0,0.68 0.26,1.35 0.78,1.87 l 0.41,0.41 V 63.88 C 59.52,63.85 59.45,63.8 59.4,63.75 v 0 c -0.12,-0.12 -0.2,-0.3 -0.2,-0.48 0,-0.18 0.08,-0.36 0.2,-0.48 v 0 c 0.12,-0.12 0.29,-0.2 0.48,-0.2 0.19,0 0.36,0.08 0.48,0.2 v 0 c 0.12,0.12 0.2,0.3 0.2,0.48 0,0.18 -0.08,0.36 -0.2,0.48 -0.06,0.06 -0.12,0.1 -0.19,0.13 v 1.66 h -0.34 l -1.07,-1.07 v 0 z m 3.61,-3.65 v 0 c 0,0 -0.09,-0.06 -0.15,-0.06 -0.06,0 -0.11,0.02 -0.15,0.06 -0.04,0.04 -0.06,0.09 -0.06,0.15 0,0.06 0.02,0.11 0.06,0.15 v 0 c 0,0 0.09,0.06 0.15,0.06 0.06,0 0.11,-0.02 0.15,-0.06 0.04,-0.04 0.06,-0.09 0.06,-0.15 0,-0.06 -0.02,-0.11 -0.06,-0.15 z m -2.34,2.29 v 0 c 0,0 -0.09,-0.06 -0.15,-0.06 -0.06,0 -0.11,0.02 -0.15,0.06 -0.04,0.04 -0.06,0.09 -0.06,0.15 0,0.06 0.02,0.11 0.06,0.15 v 0 c 0,0 0.09,0.06 0.15,0.06 0.06,0 0.11,-0.02 0.15,-0.06 0.04,-0.04 0.06,-0.09 0.06,-0.15 0,-0.06 -0.02,-0.11 -0.06,-0.15 z m 1.02,-1.68 c 0.19,0 0.36,0.08 0.48,0.2 v 0 c 0.12,0.12 0.2,0.3 0.2,0.48 0,0.18 -0.08,0.36 -0.2,0.48 -0.06,0.06 -0.12,0.1 -0.19,0.13 v 2.8 h -0.59 v -2.8 c -0.07,-0.03 -0.14,-0.08 -0.19,-0.13 v 0 c -0.12,-0.12 -0.2,-0.3 -0.2,-0.48 0,-0.18 0.08,-0.36 0.2,-0.48 v 0 c 0.12,-0.12 0.29,-0.2 0.48,-0.2 z m 0.15,0.53 v 0 c 0,0 -0.09,-0.06 -0.15,-0.06 -0.06,0 -0.11,0.02 -0.15,0.06 -0.04,0.04 -0.06,0.09 -0.06,0.15 0,0.06 0.02,0.11 0.06,0.15 v 0 c 0,0 0.09,0.06 0.15,0.06 0.06,0 0.11,-0.02 0.15,-0.06 0.04,-0.04 0.06,-0.09 0.06,-0.15 0,-0.06 -0.02,-0.11 -0.06,-0.15 z" />
      <path
         d="m 59.79,65.91 h 2.52 c 0.17,0 0.3,0.13 0.3,0.3 v 0 c 0,0.16 -0.14,0.3 -0.3,0.3 h -2.52 c -0.17,0 -0.3,-0.13 -0.3,-0.3 v 0 c 0,-0.16 0.14,-0.3 0.3,-0.3 z" />
      <path
         d="m 59.96,66.8 h 2.17 c 0.14,0 0.26,0.13 0.26,0.3 v 0 c 0,0.16 -0.12,0.3 -0.26,0.3 h -2.17 c -0.14,0 -0.26,-0.13 -0.26,-0.3 v 0 c 0,-0.16 0.12,-0.3 0.26,-0.3 z" />
      <path d="m 60.35,67.71 h 1.4 c -0.06,0.34 -0.35,0.59 -0.7,0.59 -0.35,0 -0.64,-0.25 -0.7,-0.59 z" />
   </g>
</svg>
